G04 #@! TF.GenerationSoftware,KiCad,Pcbnew,(5.1.4)-1*
G04 #@! TF.CreationDate,2022-04-07T22:43:36+09:30*
G04 #@! TF.ProjectId,ISA_POST_Card_v5.1,4953415f-504f-4535-945f-436172645f76,1*
G04 #@! TF.SameCoordinates,Original*
G04 #@! TF.FileFunction,Legend,Bot*
G04 #@! TF.FilePolarity,Positive*
%FSLAX46Y46*%
G04 Gerber Fmt 4.6, Leading zero omitted, Abs format (unit mm)*
G04 Created by KiCad (PCBNEW (5.1.4)-1) date 2022-04-07 22:43:36*
%MOMM*%
%LPD*%
G04 APERTURE LIST*
%ADD10C,0.200000*%
%ADD11C,0.120000*%
%ADD12C,0.150000*%
%ADD13C,0.400000*%
%ADD14C,0.100000*%
%ADD15C,0.300000*%
G04 APERTURE END LIST*
D10*
X165130714Y-117673380D02*
X165130714Y-116673380D01*
X164749761Y-116673380D01*
X164654523Y-116721000D01*
X164606904Y-116768619D01*
X164559285Y-116863857D01*
X164559285Y-117006714D01*
X164606904Y-117101952D01*
X164654523Y-117149571D01*
X164749761Y-117197190D01*
X165130714Y-117197190D01*
X163940238Y-116673380D02*
X163749761Y-116673380D01*
X163654523Y-116721000D01*
X163559285Y-116816238D01*
X163511666Y-117006714D01*
X163511666Y-117340047D01*
X163559285Y-117530523D01*
X163654523Y-117625761D01*
X163749761Y-117673380D01*
X163940238Y-117673380D01*
X164035476Y-117625761D01*
X164130714Y-117530523D01*
X164178333Y-117340047D01*
X164178333Y-117006714D01*
X164130714Y-116816238D01*
X164035476Y-116721000D01*
X163940238Y-116673380D01*
X163083095Y-117673380D02*
X163083095Y-116673380D01*
X162702142Y-116673380D01*
X162606904Y-116721000D01*
X162559285Y-116768619D01*
X162511666Y-116863857D01*
X162511666Y-117006714D01*
X162559285Y-117101952D01*
X162606904Y-117149571D01*
X162702142Y-117197190D01*
X163083095Y-117197190D01*
X162083095Y-116673380D02*
X162083095Y-117482904D01*
X162035476Y-117578142D01*
X161987857Y-117625761D01*
X161892619Y-117673380D01*
X161702142Y-117673380D01*
X161606904Y-117625761D01*
X161559285Y-117578142D01*
X161511666Y-117482904D01*
X161511666Y-116673380D01*
X160559285Y-117673380D02*
X161035476Y-117673380D01*
X161035476Y-116673380D01*
X160273571Y-117387666D02*
X159797380Y-117387666D01*
X160368809Y-117673380D02*
X160035476Y-116673380D01*
X159702142Y-117673380D01*
X159511666Y-116673380D02*
X158940238Y-116673380D01*
X159225952Y-117673380D02*
X159225952Y-116673380D01*
X158606904Y-117149571D02*
X158273571Y-117149571D01*
X158130714Y-117673380D02*
X158606904Y-117673380D01*
X158606904Y-116673380D01*
X158130714Y-116673380D01*
X156749761Y-116673380D02*
X156559285Y-116673380D01*
X156464047Y-116721000D01*
X156368809Y-116816238D01*
X156321190Y-117006714D01*
X156321190Y-117340047D01*
X156368809Y-117530523D01*
X156464047Y-117625761D01*
X156559285Y-117673380D01*
X156749761Y-117673380D01*
X156845000Y-117625761D01*
X156940238Y-117530523D01*
X156987857Y-117340047D01*
X156987857Y-117006714D01*
X156940238Y-116816238D01*
X156845000Y-116721000D01*
X156749761Y-116673380D01*
X156035476Y-116673380D02*
X155464047Y-116673380D01*
X155749761Y-117673380D02*
X155749761Y-116673380D01*
X155130714Y-117673380D02*
X155130714Y-116673380D01*
X155130714Y-117149571D02*
X154559285Y-117149571D01*
X154559285Y-117673380D02*
X154559285Y-116673380D01*
X154083095Y-117149571D02*
X153749761Y-117149571D01*
X153606904Y-117673380D02*
X154083095Y-117673380D01*
X154083095Y-116673380D01*
X153606904Y-116673380D01*
X152606904Y-117673380D02*
X152940238Y-117197190D01*
X153178333Y-117673380D02*
X153178333Y-116673380D01*
X152797380Y-116673380D01*
X152702142Y-116721000D01*
X152654523Y-116768619D01*
X152606904Y-116863857D01*
X152606904Y-117006714D01*
X152654523Y-117101952D01*
X152702142Y-117149571D01*
X152797380Y-117197190D01*
X153178333Y-117197190D01*
X151464047Y-117625761D02*
X151321190Y-117673380D01*
X151083095Y-117673380D01*
X150987857Y-117625761D01*
X150940238Y-117578142D01*
X150892619Y-117482904D01*
X150892619Y-117387666D01*
X150940238Y-117292428D01*
X150987857Y-117244809D01*
X151083095Y-117197190D01*
X151273571Y-117149571D01*
X151368809Y-117101952D01*
X151416428Y-117054333D01*
X151464047Y-116959095D01*
X151464047Y-116863857D01*
X151416428Y-116768619D01*
X151368809Y-116721000D01*
X151273571Y-116673380D01*
X151035476Y-116673380D01*
X150892619Y-116721000D01*
X150464047Y-117673380D02*
X150464047Y-116673380D01*
X149987857Y-117673380D02*
X149987857Y-116673380D01*
X149749761Y-116673380D01*
X149606904Y-116721000D01*
X149511666Y-116816238D01*
X149464047Y-116911476D01*
X149416428Y-117101952D01*
X149416428Y-117244809D01*
X149464047Y-117435285D01*
X149511666Y-117530523D01*
X149606904Y-117625761D01*
X149749761Y-117673380D01*
X149987857Y-117673380D01*
X148987857Y-117149571D02*
X148654523Y-117149571D01*
X148511666Y-117673380D02*
X148987857Y-117673380D01*
X148987857Y-116673380D01*
X148511666Y-116673380D01*
X170542142Y-108291380D02*
X169875476Y-108291380D01*
X170304047Y-109291380D01*
X169065952Y-108624714D02*
X169065952Y-109291380D01*
X169304047Y-108243761D02*
X169542142Y-108958047D01*
X168923095Y-108958047D01*
X168637380Y-109291380D02*
X168113571Y-108624714D01*
X168637380Y-108624714D02*
X168113571Y-109291380D01*
X167827857Y-108291380D02*
X167208809Y-108291380D01*
X167542142Y-108672333D01*
X167399285Y-108672333D01*
X167304047Y-108719952D01*
X167256428Y-108767571D01*
X167208809Y-108862809D01*
X167208809Y-109100904D01*
X167256428Y-109196142D01*
X167304047Y-109243761D01*
X167399285Y-109291380D01*
X167685000Y-109291380D01*
X167780238Y-109243761D01*
X167827857Y-109196142D01*
X166875476Y-108291380D02*
X166208809Y-108291380D01*
X166637380Y-109291380D01*
X165399285Y-108624714D02*
X165399285Y-109291380D01*
X165637380Y-108243761D02*
X165875476Y-108958047D01*
X165256428Y-108958047D01*
X163827857Y-109672333D02*
X163875476Y-109624714D01*
X163970714Y-109481857D01*
X164018333Y-109386619D01*
X164065952Y-109243761D01*
X164113571Y-109005666D01*
X164113571Y-108815190D01*
X164065952Y-108577095D01*
X164018333Y-108434238D01*
X163970714Y-108339000D01*
X163875476Y-108196142D01*
X163827857Y-108148523D01*
X163446904Y-108291380D02*
X163446904Y-109100904D01*
X163399285Y-109196142D01*
X163351666Y-109243761D01*
X163256428Y-109291380D01*
X163065952Y-109291380D01*
X162970714Y-109243761D01*
X162923095Y-109196142D01*
X162875476Y-109100904D01*
X162875476Y-108291380D01*
X161875476Y-109291380D02*
X162446904Y-109291380D01*
X162161190Y-109291380D02*
X162161190Y-108291380D01*
X162256428Y-108434238D01*
X162351666Y-108529476D01*
X162446904Y-108577095D01*
X160732619Y-109005666D02*
X160256428Y-109005666D01*
X160827857Y-109291380D02*
X160494523Y-108291380D01*
X160161190Y-109291380D01*
X159351666Y-109291380D02*
X159827857Y-109291380D01*
X159827857Y-108291380D01*
X159161190Y-108291380D02*
X158589761Y-108291380D01*
X158875476Y-109291380D02*
X158875476Y-108291380D01*
X158256428Y-109196142D02*
X158208809Y-109243761D01*
X158256428Y-109291380D01*
X158304047Y-109243761D01*
X158256428Y-109196142D01*
X158256428Y-109291380D01*
X156827857Y-108291380D02*
X156637380Y-108291380D01*
X156542142Y-108339000D01*
X156446904Y-108434238D01*
X156399285Y-108624714D01*
X156399285Y-108958047D01*
X156446904Y-109148523D01*
X156542142Y-109243761D01*
X156637380Y-109291380D01*
X156827857Y-109291380D01*
X156923095Y-109243761D01*
X157018333Y-109148523D01*
X157065952Y-108958047D01*
X157065952Y-108624714D01*
X157018333Y-108434238D01*
X156923095Y-108339000D01*
X156827857Y-108291380D01*
X155970714Y-109291380D02*
X155970714Y-108291380D01*
X155589761Y-108291380D01*
X155494523Y-108339000D01*
X155446904Y-108386619D01*
X155399285Y-108481857D01*
X155399285Y-108624714D01*
X155446904Y-108719952D01*
X155494523Y-108767571D01*
X155589761Y-108815190D01*
X155970714Y-108815190D01*
X155113571Y-108291380D02*
X154542142Y-108291380D01*
X154827857Y-109291380D02*
X154827857Y-108291380D01*
X154208809Y-109291380D02*
X154208809Y-108291380D01*
X153542142Y-108291380D02*
X153351666Y-108291380D01*
X153256428Y-108339000D01*
X153161190Y-108434238D01*
X153113571Y-108624714D01*
X153113571Y-108958047D01*
X153161190Y-109148523D01*
X153256428Y-109243761D01*
X153351666Y-109291380D01*
X153542142Y-109291380D01*
X153637380Y-109243761D01*
X153732619Y-109148523D01*
X153780238Y-108958047D01*
X153780238Y-108624714D01*
X153732619Y-108434238D01*
X153637380Y-108339000D01*
X153542142Y-108291380D01*
X152685000Y-109291380D02*
X152685000Y-108291380D01*
X152113571Y-109291380D01*
X152113571Y-108291380D01*
X151732619Y-109672333D02*
X151685000Y-109624714D01*
X151589761Y-109481857D01*
X151542142Y-109386619D01*
X151494523Y-109243761D01*
X151446904Y-109005666D01*
X151446904Y-108815190D01*
X151494523Y-108577095D01*
X151542142Y-108434238D01*
X151589761Y-108339000D01*
X151685000Y-108196142D01*
X151732619Y-108148523D01*
X170542142Y-106513380D02*
X169875476Y-106513380D01*
X170304047Y-107513380D01*
X169065952Y-106846714D02*
X169065952Y-107513380D01*
X169304047Y-106465761D02*
X169542142Y-107180047D01*
X168923095Y-107180047D01*
X168637380Y-107513380D02*
X168113571Y-106846714D01*
X168637380Y-106846714D02*
X168113571Y-107513380D01*
X167780238Y-106608619D02*
X167732619Y-106561000D01*
X167637380Y-106513380D01*
X167399285Y-106513380D01*
X167304047Y-106561000D01*
X167256428Y-106608619D01*
X167208809Y-106703857D01*
X167208809Y-106799095D01*
X167256428Y-106941952D01*
X167827857Y-107513380D01*
X167208809Y-107513380D01*
X166875476Y-106513380D02*
X166208809Y-106513380D01*
X166637380Y-107513380D01*
X165923095Y-106513380D02*
X165304047Y-106513380D01*
X165637380Y-106894333D01*
X165494523Y-106894333D01*
X165399285Y-106941952D01*
X165351666Y-106989571D01*
X165304047Y-107084809D01*
X165304047Y-107322904D01*
X165351666Y-107418142D01*
X165399285Y-107465761D01*
X165494523Y-107513380D01*
X165780238Y-107513380D01*
X165875476Y-107465761D01*
X165923095Y-107418142D01*
X163827857Y-107894333D02*
X163875476Y-107846714D01*
X163970714Y-107703857D01*
X164018333Y-107608619D01*
X164065952Y-107465761D01*
X164113571Y-107227666D01*
X164113571Y-107037190D01*
X164065952Y-106799095D01*
X164018333Y-106656238D01*
X163970714Y-106561000D01*
X163875476Y-106418142D01*
X163827857Y-106370523D01*
X163446904Y-106513380D02*
X163446904Y-107322904D01*
X163399285Y-107418142D01*
X163351666Y-107465761D01*
X163256428Y-107513380D01*
X163065952Y-107513380D01*
X162970714Y-107465761D01*
X162923095Y-107418142D01*
X162875476Y-107322904D01*
X162875476Y-106513380D01*
X161875476Y-107513380D02*
X162446904Y-107513380D01*
X162161190Y-107513380D02*
X162161190Y-106513380D01*
X162256428Y-106656238D01*
X162351666Y-106751476D01*
X162446904Y-106799095D01*
X160685000Y-107513380D02*
X160685000Y-106513380D01*
X160446904Y-106513380D01*
X160304047Y-106561000D01*
X160208809Y-106656238D01*
X160161190Y-106751476D01*
X160113571Y-106941952D01*
X160113571Y-107084809D01*
X160161190Y-107275285D01*
X160208809Y-107370523D01*
X160304047Y-107465761D01*
X160446904Y-107513380D01*
X160685000Y-107513380D01*
X159685000Y-106989571D02*
X159351666Y-106989571D01*
X159208809Y-107513380D02*
X159685000Y-107513380D01*
X159685000Y-106513380D01*
X159208809Y-106513380D01*
X158446904Y-106989571D02*
X158780238Y-106989571D01*
X158780238Y-107513380D02*
X158780238Y-106513380D01*
X158304047Y-106513380D01*
X157970714Y-107227666D02*
X157494523Y-107227666D01*
X158065952Y-107513380D02*
X157732619Y-106513380D01*
X157399285Y-107513380D01*
X157065952Y-106513380D02*
X157065952Y-107322904D01*
X157018333Y-107418142D01*
X156970714Y-107465761D01*
X156875476Y-107513380D01*
X156685000Y-107513380D01*
X156589761Y-107465761D01*
X156542142Y-107418142D01*
X156494523Y-107322904D01*
X156494523Y-106513380D01*
X155542142Y-107513380D02*
X156018333Y-107513380D01*
X156018333Y-106513380D01*
X155351666Y-106513380D02*
X154780238Y-106513380D01*
X155065952Y-107513380D02*
X155065952Y-106513380D01*
X154542142Y-107894333D02*
X154494523Y-107846714D01*
X154399285Y-107703857D01*
X154351666Y-107608619D01*
X154304047Y-107465761D01*
X154256428Y-107227666D01*
X154256428Y-107037190D01*
X154304047Y-106799095D01*
X154351666Y-106656238D01*
X154399285Y-106561000D01*
X154494523Y-106418142D01*
X154542142Y-106370523D01*
D11*
X150495000Y-80010000D02*
X131445000Y-80010000D01*
X131445000Y-85090000D02*
X131445000Y-80010000D01*
X150495000Y-85090000D02*
X150495000Y-80010000D01*
X150495000Y-85090000D02*
X131445000Y-85090000D01*
D10*
X135569523Y-112131666D02*
X135093333Y-112131666D01*
X135664761Y-112417380D02*
X135331428Y-111417380D01*
X134998095Y-112417380D01*
X134093333Y-112322142D02*
X134140952Y-112369761D01*
X134283809Y-112417380D01*
X134379047Y-112417380D01*
X134521904Y-112369761D01*
X134617142Y-112274523D01*
X134664761Y-112179285D01*
X134712380Y-111988809D01*
X134712380Y-111845952D01*
X134664761Y-111655476D01*
X134617142Y-111560238D01*
X134521904Y-111465000D01*
X134379047Y-111417380D01*
X134283809Y-111417380D01*
X134140952Y-111465000D01*
X134093333Y-111512619D01*
X133664761Y-112417380D02*
X133664761Y-111417380D01*
X133093333Y-112417380D02*
X133521904Y-111845952D01*
X133093333Y-111417380D02*
X133664761Y-111988809D01*
X132664761Y-112417380D02*
X132664761Y-111417380D01*
X132093333Y-112417380D01*
X132093333Y-111417380D01*
X131426666Y-111417380D02*
X131236190Y-111417380D01*
X131140952Y-111465000D01*
X131045714Y-111560238D01*
X130998095Y-111750714D01*
X130998095Y-112084047D01*
X131045714Y-112274523D01*
X131140952Y-112369761D01*
X131236190Y-112417380D01*
X131426666Y-112417380D01*
X131521904Y-112369761D01*
X131617142Y-112274523D01*
X131664761Y-112084047D01*
X131664761Y-111750714D01*
X131617142Y-111560238D01*
X131521904Y-111465000D01*
X131426666Y-111417380D01*
X130664761Y-111417380D02*
X130426666Y-112417380D01*
X130236190Y-111703095D01*
X130045714Y-112417380D01*
X129807619Y-111417380D01*
X128950476Y-112417380D02*
X129426666Y-112417380D01*
X129426666Y-111417380D01*
X128617142Y-111893571D02*
X128283809Y-111893571D01*
X128140952Y-112417380D02*
X128617142Y-112417380D01*
X128617142Y-111417380D01*
X128140952Y-111417380D01*
X127712380Y-112417380D02*
X127712380Y-111417380D01*
X127474285Y-111417380D01*
X127331428Y-111465000D01*
X127236190Y-111560238D01*
X127188571Y-111655476D01*
X127140952Y-111845952D01*
X127140952Y-111988809D01*
X127188571Y-112179285D01*
X127236190Y-112274523D01*
X127331428Y-112369761D01*
X127474285Y-112417380D01*
X127712380Y-112417380D01*
X126188571Y-111465000D02*
X126283809Y-111417380D01*
X126426666Y-111417380D01*
X126569523Y-111465000D01*
X126664761Y-111560238D01*
X126712380Y-111655476D01*
X126760000Y-111845952D01*
X126760000Y-111988809D01*
X126712380Y-112179285D01*
X126664761Y-112274523D01*
X126569523Y-112369761D01*
X126426666Y-112417380D01*
X126331428Y-112417380D01*
X126188571Y-112369761D01*
X126140952Y-112322142D01*
X126140952Y-111988809D01*
X126331428Y-111988809D01*
X125712380Y-111893571D02*
X125379047Y-111893571D01*
X125236190Y-112417380D02*
X125712380Y-112417380D01*
X125712380Y-111417380D01*
X125236190Y-111417380D01*
X124807619Y-112417380D02*
X124807619Y-111417380D01*
X124474285Y-112131666D01*
X124140952Y-111417380D01*
X124140952Y-112417380D01*
X123664761Y-111893571D02*
X123331428Y-111893571D01*
X123188571Y-112417380D02*
X123664761Y-112417380D01*
X123664761Y-111417380D01*
X123188571Y-111417380D01*
X122760000Y-112417380D02*
X122760000Y-111417380D01*
X122188571Y-112417380D01*
X122188571Y-111417380D01*
X121855238Y-111417380D02*
X121283809Y-111417380D01*
X121569523Y-112417380D02*
X121569523Y-111417380D01*
X120950476Y-112322142D02*
X120902857Y-112369761D01*
X120950476Y-112417380D01*
X120998095Y-112369761D01*
X120950476Y-112322142D01*
X120950476Y-112417380D01*
X120950476Y-111798333D02*
X120902857Y-111845952D01*
X120950476Y-111893571D01*
X120998095Y-111845952D01*
X120950476Y-111798333D01*
X120950476Y-111893571D01*
X135188571Y-113593571D02*
X135045714Y-113641190D01*
X134998095Y-113688809D01*
X134950476Y-113784047D01*
X134950476Y-113926904D01*
X134998095Y-114022142D01*
X135045714Y-114069761D01*
X135140952Y-114117380D01*
X135521904Y-114117380D01*
X135521904Y-113117380D01*
X135188571Y-113117380D01*
X135093333Y-113165000D01*
X135045714Y-113212619D01*
X134998095Y-113307857D01*
X134998095Y-113403095D01*
X135045714Y-113498333D01*
X135093333Y-113545952D01*
X135188571Y-113593571D01*
X135521904Y-113593571D01*
X134569523Y-113831666D02*
X134093333Y-113831666D01*
X134664761Y-114117380D02*
X134331428Y-113117380D01*
X133998095Y-114117380D01*
X133712380Y-114069761D02*
X133569523Y-114117380D01*
X133331428Y-114117380D01*
X133236190Y-114069761D01*
X133188571Y-114022142D01*
X133140952Y-113926904D01*
X133140952Y-113831666D01*
X133188571Y-113736428D01*
X133236190Y-113688809D01*
X133331428Y-113641190D01*
X133521904Y-113593571D01*
X133617142Y-113545952D01*
X133664761Y-113498333D01*
X133712380Y-113403095D01*
X133712380Y-113307857D01*
X133664761Y-113212619D01*
X133617142Y-113165000D01*
X133521904Y-113117380D01*
X133283809Y-113117380D01*
X133140952Y-113165000D01*
X132712380Y-113593571D02*
X132379047Y-113593571D01*
X132236190Y-114117380D02*
X132712380Y-114117380D01*
X132712380Y-113117380D01*
X132236190Y-113117380D01*
X131807619Y-114117380D02*
X131807619Y-113117380D01*
X131569523Y-113117380D01*
X131426666Y-113165000D01*
X131331428Y-113260238D01*
X131283809Y-113355476D01*
X131236190Y-113545952D01*
X131236190Y-113688809D01*
X131283809Y-113879285D01*
X131331428Y-113974523D01*
X131426666Y-114069761D01*
X131569523Y-114117380D01*
X131807619Y-114117380D01*
X129855238Y-113117380D02*
X129664761Y-113117380D01*
X129569523Y-113165000D01*
X129474285Y-113260238D01*
X129426666Y-113450714D01*
X129426666Y-113784047D01*
X129474285Y-113974523D01*
X129569523Y-114069761D01*
X129664761Y-114117380D01*
X129855238Y-114117380D01*
X129950476Y-114069761D01*
X130045714Y-113974523D01*
X130093333Y-113784047D01*
X130093333Y-113450714D01*
X130045714Y-113260238D01*
X129950476Y-113165000D01*
X129855238Y-113117380D01*
X128998095Y-114117380D02*
X128998095Y-113117380D01*
X128426666Y-114117380D01*
X128426666Y-113117380D01*
X127236190Y-114069761D02*
X127093333Y-114117380D01*
X126855238Y-114117380D01*
X126760000Y-114069761D01*
X126712380Y-114022142D01*
X126664761Y-113926904D01*
X126664761Y-113831666D01*
X126712380Y-113736428D01*
X126760000Y-113688809D01*
X126855238Y-113641190D01*
X127045714Y-113593571D01*
X127140952Y-113545952D01*
X127188571Y-113498333D01*
X127236190Y-113403095D01*
X127236190Y-113307857D01*
X127188571Y-113212619D01*
X127140952Y-113165000D01*
X127045714Y-113117380D01*
X126807619Y-113117380D01*
X126664761Y-113165000D01*
X125664761Y-114022142D02*
X125712380Y-114069761D01*
X125855238Y-114117380D01*
X125950476Y-114117380D01*
X126093333Y-114069761D01*
X126188571Y-113974523D01*
X126236190Y-113879285D01*
X126283809Y-113688809D01*
X126283809Y-113545952D01*
X126236190Y-113355476D01*
X126188571Y-113260238D01*
X126093333Y-113165000D01*
X125950476Y-113117380D01*
X125855238Y-113117380D01*
X125712380Y-113165000D01*
X125664761Y-113212619D01*
X125236190Y-114117380D02*
X125236190Y-113117380D01*
X125236190Y-113593571D02*
X124664761Y-113593571D01*
X124664761Y-114117380D02*
X124664761Y-113117380D01*
X124188571Y-113593571D02*
X123855238Y-113593571D01*
X123712380Y-114117380D02*
X124188571Y-114117380D01*
X124188571Y-113117380D01*
X123712380Y-113117380D01*
X123283809Y-114117380D02*
X123283809Y-113117380D01*
X122950476Y-113831666D01*
X122617142Y-113117380D01*
X122617142Y-114117380D01*
X122188571Y-113831666D02*
X121712380Y-113831666D01*
X122283809Y-114117380D02*
X121950476Y-113117380D01*
X121617142Y-114117380D01*
X121426666Y-113117380D02*
X120855238Y-113117380D01*
X121140952Y-114117380D02*
X121140952Y-113117380D01*
X120521904Y-114117380D02*
X120521904Y-113117380D01*
X119474285Y-114022142D02*
X119521904Y-114069761D01*
X119664761Y-114117380D01*
X119760000Y-114117380D01*
X119902857Y-114069761D01*
X119998095Y-113974523D01*
X120045714Y-113879285D01*
X120093333Y-113688809D01*
X120093333Y-113545952D01*
X120045714Y-113355476D01*
X119998095Y-113260238D01*
X119902857Y-113165000D01*
X119760000Y-113117380D01*
X119664761Y-113117380D01*
X119521904Y-113165000D01*
X119474285Y-113212619D01*
X119093333Y-114069761D02*
X118950476Y-114117380D01*
X118712380Y-114117380D01*
X118617142Y-114069761D01*
X118569523Y-114022142D01*
X118521904Y-113926904D01*
X118521904Y-113831666D01*
X118569523Y-113736428D01*
X118617142Y-113688809D01*
X118712380Y-113641190D01*
X118902857Y-113593571D01*
X118998095Y-113545952D01*
X119045714Y-113498333D01*
X119093333Y-113403095D01*
X119093333Y-113307857D01*
X119045714Y-113212619D01*
X118998095Y-113165000D01*
X118902857Y-113117380D01*
X118664761Y-113117380D01*
X118521904Y-113165000D01*
X116998095Y-113593571D02*
X116855238Y-113641190D01*
X116807619Y-113688809D01*
X116760000Y-113784047D01*
X116760000Y-113926904D01*
X116807619Y-114022142D01*
X116855238Y-114069761D01*
X116950476Y-114117380D01*
X117331428Y-114117380D01*
X117331428Y-113117380D01*
X116998095Y-113117380D01*
X116902857Y-113165000D01*
X116855238Y-113212619D01*
X116807619Y-113307857D01*
X116807619Y-113403095D01*
X116855238Y-113498333D01*
X116902857Y-113545952D01*
X116998095Y-113593571D01*
X117331428Y-113593571D01*
X116140952Y-113641190D02*
X116140952Y-114117380D01*
X116474285Y-113117380D02*
X116140952Y-113641190D01*
X115807619Y-113117380D01*
X135569523Y-115769761D02*
X135426666Y-115817380D01*
X135188571Y-115817380D01*
X135093333Y-115769761D01*
X135045714Y-115722142D01*
X134998095Y-115626904D01*
X134998095Y-115531666D01*
X135045714Y-115436428D01*
X135093333Y-115388809D01*
X135188571Y-115341190D01*
X135379047Y-115293571D01*
X135474285Y-115245952D01*
X135521904Y-115198333D01*
X135569523Y-115103095D01*
X135569523Y-115007857D01*
X135521904Y-114912619D01*
X135474285Y-114865000D01*
X135379047Y-114817380D01*
X135140952Y-114817380D01*
X134998095Y-114865000D01*
X134569523Y-115293571D02*
X134236190Y-115293571D01*
X134093333Y-115817380D02*
X134569523Y-115817380D01*
X134569523Y-114817380D01*
X134093333Y-114817380D01*
X133093333Y-115817380D02*
X133426666Y-115341190D01*
X133664761Y-115817380D02*
X133664761Y-114817380D01*
X133283809Y-114817380D01*
X133188571Y-114865000D01*
X133140952Y-114912619D01*
X133093333Y-115007857D01*
X133093333Y-115150714D01*
X133140952Y-115245952D01*
X133188571Y-115293571D01*
X133283809Y-115341190D01*
X133664761Y-115341190D01*
X132140952Y-114865000D02*
X132236190Y-114817380D01*
X132379047Y-114817380D01*
X132521904Y-114865000D01*
X132617142Y-114960238D01*
X132664761Y-115055476D01*
X132712380Y-115245952D01*
X132712380Y-115388809D01*
X132664761Y-115579285D01*
X132617142Y-115674523D01*
X132521904Y-115769761D01*
X132379047Y-115817380D01*
X132283809Y-115817380D01*
X132140952Y-115769761D01*
X132093333Y-115722142D01*
X132093333Y-115388809D01*
X132283809Y-115388809D01*
X131664761Y-115293571D02*
X131331428Y-115293571D01*
X131188571Y-115817380D02*
X131664761Y-115817380D01*
X131664761Y-114817380D01*
X131188571Y-114817380D01*
X130569523Y-115341190D02*
X130569523Y-115817380D01*
X130902857Y-114817380D02*
X130569523Y-115341190D01*
X130236190Y-114817380D01*
X129140952Y-115817380D02*
X129140952Y-114817380D01*
X128569523Y-115817380D02*
X128998095Y-115245952D01*
X128569523Y-114817380D02*
X129140952Y-115388809D01*
X128140952Y-115817380D02*
X128140952Y-114817380D01*
X127712380Y-115769761D02*
X127569523Y-115817380D01*
X127331428Y-115817380D01*
X127236190Y-115769761D01*
X127188571Y-115722142D01*
X127140952Y-115626904D01*
X127140952Y-115531666D01*
X127188571Y-115436428D01*
X127236190Y-115388809D01*
X127331428Y-115341190D01*
X127521904Y-115293571D01*
X127617142Y-115245952D01*
X127664761Y-115198333D01*
X127712380Y-115103095D01*
X127712380Y-115007857D01*
X127664761Y-114912619D01*
X127617142Y-114865000D01*
X127521904Y-114817380D01*
X127283809Y-114817380D01*
X127140952Y-114865000D01*
X126712380Y-115293571D02*
X126379047Y-115293571D01*
X126236190Y-115817380D02*
X126712380Y-115817380D01*
X126712380Y-114817380D01*
X126236190Y-114817380D01*
X125331428Y-115817380D02*
X125807619Y-115817380D01*
X125807619Y-114817380D01*
X124998095Y-115293571D02*
X124664761Y-115293571D01*
X124521904Y-115817380D02*
X124998095Y-115817380D01*
X124998095Y-114817380D01*
X124521904Y-114817380D01*
X124236190Y-114817380D02*
X123902857Y-115817380D01*
X123569523Y-114817380D01*
X122521904Y-114912619D02*
X122474285Y-114865000D01*
X122379047Y-114817380D01*
X122140952Y-114817380D01*
X122045714Y-114865000D01*
X121998095Y-114912619D01*
X121950476Y-115007857D01*
X121950476Y-115103095D01*
X121998095Y-115245952D01*
X122569523Y-115817380D01*
X121950476Y-115817380D01*
X121331428Y-114817380D02*
X121236190Y-114817380D01*
X121140952Y-114865000D01*
X121093333Y-114912619D01*
X121045714Y-115007857D01*
X120998095Y-115198333D01*
X120998095Y-115436428D01*
X121045714Y-115626904D01*
X121093333Y-115722142D01*
X121140952Y-115769761D01*
X121236190Y-115817380D01*
X121331428Y-115817380D01*
X121426666Y-115769761D01*
X121474285Y-115722142D01*
X121521904Y-115626904D01*
X121569523Y-115436428D01*
X121569523Y-115198333D01*
X121521904Y-115007857D01*
X121474285Y-114912619D01*
X121426666Y-114865000D01*
X121331428Y-114817380D01*
X120045714Y-115817380D02*
X120617142Y-115817380D01*
X120331428Y-115817380D02*
X120331428Y-114817380D01*
X120426666Y-114960238D01*
X120521904Y-115055476D01*
X120617142Y-115103095D01*
X119664761Y-114912619D02*
X119617142Y-114865000D01*
X119521904Y-114817380D01*
X119283809Y-114817380D01*
X119188571Y-114865000D01*
X119140952Y-114912619D01*
X119093333Y-115007857D01*
X119093333Y-115103095D01*
X119140952Y-115245952D01*
X119712380Y-115817380D01*
X119093333Y-115817380D01*
D11*
X150495000Y-96520000D02*
X150495000Y-91440000D01*
X131445000Y-96520000D02*
X131445000Y-91440000D01*
X150495000Y-91440000D02*
X131445000Y-91440000D01*
X150495000Y-96520000D02*
X131445000Y-96520000D01*
D10*
X189496904Y-112417380D02*
X189496904Y-111417380D01*
X188925476Y-112417380D01*
X188925476Y-111417380D01*
X188258809Y-111417380D02*
X188068333Y-111417380D01*
X187973095Y-111465000D01*
X187877857Y-111560238D01*
X187830238Y-111750714D01*
X187830238Y-112084047D01*
X187877857Y-112274523D01*
X187973095Y-112369761D01*
X188068333Y-112417380D01*
X188258809Y-112417380D01*
X188354047Y-112369761D01*
X188449285Y-112274523D01*
X188496904Y-112084047D01*
X188496904Y-111750714D01*
X188449285Y-111560238D01*
X188354047Y-111465000D01*
X188258809Y-111417380D01*
X187544523Y-111417380D02*
X186973095Y-111417380D01*
X187258809Y-112417380D02*
X187258809Y-111417380D01*
X186639761Y-112417380D02*
X186639761Y-111417380D01*
X185592142Y-112322142D02*
X185639761Y-112369761D01*
X185782619Y-112417380D01*
X185877857Y-112417380D01*
X186020714Y-112369761D01*
X186115952Y-112274523D01*
X186163571Y-112179285D01*
X186211190Y-111988809D01*
X186211190Y-111845952D01*
X186163571Y-111655476D01*
X186115952Y-111560238D01*
X186020714Y-111465000D01*
X185877857Y-111417380D01*
X185782619Y-111417380D01*
X185639761Y-111465000D01*
X185592142Y-111512619D01*
X185163571Y-111893571D02*
X184830238Y-111893571D01*
X184687380Y-112417380D02*
X185163571Y-112417380D01*
X185163571Y-111417380D01*
X184687380Y-111417380D01*
X184258809Y-112322142D02*
X184211190Y-112369761D01*
X184258809Y-112417380D01*
X184306428Y-112369761D01*
X184258809Y-112322142D01*
X184258809Y-112417380D01*
X184258809Y-111798333D02*
X184211190Y-111845952D01*
X184258809Y-111893571D01*
X184306428Y-111845952D01*
X184258809Y-111798333D01*
X184258809Y-111893571D01*
X189592142Y-113117380D02*
X189354047Y-114117380D01*
X189163571Y-113403095D01*
X188973095Y-114117380D01*
X188735000Y-113117380D01*
X188401666Y-113831666D02*
X187925476Y-113831666D01*
X188496904Y-114117380D02*
X188163571Y-113117380D01*
X187830238Y-114117380D01*
X186925476Y-114117380D02*
X187258809Y-113641190D01*
X187496904Y-114117380D02*
X187496904Y-113117380D01*
X187115952Y-113117380D01*
X187020714Y-113165000D01*
X186973095Y-113212619D01*
X186925476Y-113307857D01*
X186925476Y-113450714D01*
X186973095Y-113545952D01*
X187020714Y-113593571D01*
X187115952Y-113641190D01*
X187496904Y-113641190D01*
X185925476Y-114117380D02*
X186258809Y-113641190D01*
X186496904Y-114117380D02*
X186496904Y-113117380D01*
X186115952Y-113117380D01*
X186020714Y-113165000D01*
X185973095Y-113212619D01*
X185925476Y-113307857D01*
X185925476Y-113450714D01*
X185973095Y-113545952D01*
X186020714Y-113593571D01*
X186115952Y-113641190D01*
X186496904Y-113641190D01*
X185544523Y-113831666D02*
X185068333Y-113831666D01*
X185639761Y-114117380D02*
X185306428Y-113117380D01*
X184973095Y-114117380D01*
X184639761Y-114117380D02*
X184639761Y-113117380D01*
X184068333Y-114117380D01*
X184068333Y-113117380D01*
X183735000Y-113117380D02*
X183163571Y-113117380D01*
X183449285Y-114117380D02*
X183449285Y-113117380D01*
X182639761Y-113641190D02*
X182639761Y-114117380D01*
X182973095Y-113117380D02*
X182639761Y-113641190D01*
X182306428Y-113117380D01*
X181211190Y-114117380D02*
X181211190Y-113117380D01*
X180973095Y-113117380D01*
X180830238Y-113165000D01*
X180735000Y-113260238D01*
X180687380Y-113355476D01*
X180639761Y-113545952D01*
X180639761Y-113688809D01*
X180687380Y-113879285D01*
X180735000Y-113974523D01*
X180830238Y-114069761D01*
X180973095Y-114117380D01*
X181211190Y-114117380D01*
X180211190Y-114117380D02*
X180211190Y-113117380D01*
X179782619Y-114069761D02*
X179639761Y-114117380D01*
X179401666Y-114117380D01*
X179306428Y-114069761D01*
X179258809Y-114022142D01*
X179211190Y-113926904D01*
X179211190Y-113831666D01*
X179258809Y-113736428D01*
X179306428Y-113688809D01*
X179401666Y-113641190D01*
X179592142Y-113593571D01*
X179687380Y-113545952D01*
X179735000Y-113498333D01*
X179782619Y-113403095D01*
X179782619Y-113307857D01*
X179735000Y-113212619D01*
X179687380Y-113165000D01*
X179592142Y-113117380D01*
X179354047Y-113117380D01*
X179211190Y-113165000D01*
X178211190Y-114022142D02*
X178258809Y-114069761D01*
X178401666Y-114117380D01*
X178496904Y-114117380D01*
X178639761Y-114069761D01*
X178735000Y-113974523D01*
X178782619Y-113879285D01*
X178830238Y-113688809D01*
X178830238Y-113545952D01*
X178782619Y-113355476D01*
X178735000Y-113260238D01*
X178639761Y-113165000D01*
X178496904Y-113117380D01*
X178401666Y-113117380D01*
X178258809Y-113165000D01*
X178211190Y-113212619D01*
X177306428Y-114117380D02*
X177782619Y-114117380D01*
X177782619Y-113117380D01*
X177020714Y-113831666D02*
X176544523Y-113831666D01*
X177115952Y-114117380D02*
X176782619Y-113117380D01*
X176449285Y-114117380D01*
X176115952Y-114117380D02*
X176115952Y-113117380D01*
X175639761Y-114117380D02*
X175639761Y-113117380D01*
X175306428Y-113831666D01*
X174973095Y-113117380D01*
X174973095Y-114117380D01*
X174496904Y-113593571D02*
X174163571Y-113593571D01*
X174020714Y-114117380D02*
X174496904Y-114117380D01*
X174496904Y-113117380D01*
X174020714Y-113117380D01*
X173592142Y-114117380D02*
X173592142Y-113117380D01*
X173354047Y-113117380D01*
X173211190Y-113165000D01*
X173115952Y-113260238D01*
X173068333Y-113355476D01*
X173020714Y-113545952D01*
X173020714Y-113688809D01*
X173068333Y-113879285D01*
X173115952Y-113974523D01*
X173211190Y-114069761D01*
X173354047Y-114117380D01*
X173592142Y-114117380D01*
X171830238Y-114117380D02*
X171830238Y-113117380D01*
X171449285Y-113117380D01*
X171354047Y-113165000D01*
X171306428Y-113212619D01*
X171258809Y-113307857D01*
X171258809Y-113450714D01*
X171306428Y-113545952D01*
X171354047Y-113593571D01*
X171449285Y-113641190D01*
X171830238Y-113641190D01*
X170830238Y-113593571D02*
X170496904Y-113593571D01*
X170354047Y-114117380D02*
X170830238Y-114117380D01*
X170830238Y-113117380D01*
X170354047Y-113117380D01*
X169354047Y-114117380D02*
X169687380Y-113641190D01*
X169925476Y-114117380D02*
X169925476Y-113117380D01*
X169544523Y-113117380D01*
X169449285Y-113165000D01*
X169401666Y-113212619D01*
X169354047Y-113307857D01*
X169354047Y-113450714D01*
X169401666Y-113545952D01*
X169449285Y-113593571D01*
X169544523Y-113641190D01*
X169925476Y-113641190D01*
X167687380Y-113117380D02*
X168163571Y-113117380D01*
X168211190Y-113593571D01*
X168163571Y-113545952D01*
X168068333Y-113498333D01*
X167830238Y-113498333D01*
X167735000Y-113545952D01*
X167687380Y-113593571D01*
X167639761Y-113688809D01*
X167639761Y-113926904D01*
X167687380Y-114022142D01*
X167735000Y-114069761D01*
X167830238Y-114117380D01*
X168068333Y-114117380D01*
X168163571Y-114069761D01*
X168211190Y-114022142D01*
X167211190Y-114022142D02*
X167163571Y-114069761D01*
X167211190Y-114117380D01*
X167258809Y-114069761D01*
X167211190Y-114022142D01*
X167211190Y-114117380D01*
X166211190Y-114117380D02*
X166782619Y-114117380D01*
X166496904Y-114117380D02*
X166496904Y-113117380D01*
X166592142Y-113260238D01*
X166687380Y-113355476D01*
X166782619Y-113403095D01*
X164830238Y-113117380D02*
X164639761Y-113117380D01*
X164544523Y-113165000D01*
X164449285Y-113260238D01*
X164401666Y-113450714D01*
X164401666Y-113784047D01*
X164449285Y-113974523D01*
X164544523Y-114069761D01*
X164639761Y-114117380D01*
X164830238Y-114117380D01*
X164925476Y-114069761D01*
X165020714Y-113974523D01*
X165068333Y-113784047D01*
X165068333Y-113450714D01*
X165020714Y-113260238D01*
X164925476Y-113165000D01*
X164830238Y-113117380D01*
X163639761Y-113593571D02*
X163973095Y-113593571D01*
X163973095Y-114117380D02*
X163973095Y-113117380D01*
X163496904Y-113117380D01*
X161782619Y-114022142D02*
X161830238Y-114069761D01*
X161973095Y-114117380D01*
X162068333Y-114117380D01*
X162211190Y-114069761D01*
X162306428Y-113974523D01*
X162354047Y-113879285D01*
X162401666Y-113688809D01*
X162401666Y-113545952D01*
X162354047Y-113355476D01*
X162306428Y-113260238D01*
X162211190Y-113165000D01*
X162068333Y-113117380D01*
X161973095Y-113117380D01*
X161830238Y-113165000D01*
X161782619Y-113212619D01*
X161354047Y-113593571D02*
X161020714Y-113593571D01*
X160877857Y-114117380D02*
X161354047Y-114117380D01*
X161354047Y-113117380D01*
X160877857Y-113117380D01*
X159877857Y-114117380D02*
X160211190Y-113641190D01*
X160449285Y-114117380D02*
X160449285Y-113117380D01*
X160068333Y-113117380D01*
X159973095Y-113165000D01*
X159925476Y-113212619D01*
X159877857Y-113307857D01*
X159877857Y-113450714D01*
X159925476Y-113545952D01*
X159973095Y-113593571D01*
X160068333Y-113641190D01*
X160449285Y-113641190D01*
X159449285Y-114117380D02*
X159449285Y-113117380D01*
X158877857Y-114117380D01*
X158877857Y-113117380D01*
X158401666Y-113736428D02*
X157639761Y-113736428D01*
X156973095Y-113117380D02*
X156782619Y-113117380D01*
X156687380Y-113165000D01*
X156592142Y-113260238D01*
X156544523Y-113450714D01*
X156544523Y-113784047D01*
X156592142Y-113974523D01*
X156687380Y-114069761D01*
X156782619Y-114117380D01*
X156973095Y-114117380D01*
X157068333Y-114069761D01*
X157163571Y-113974523D01*
X157211190Y-113784047D01*
X157211190Y-113450714D01*
X157163571Y-113260238D01*
X157068333Y-113165000D01*
X156973095Y-113117380D01*
X156115952Y-114117380D02*
X156115952Y-113117380D01*
X156115952Y-113593571D02*
X155544523Y-113593571D01*
X155544523Y-114117380D02*
X155544523Y-113117380D01*
X154592142Y-114117380D02*
X155068333Y-114117380D01*
X155068333Y-113117380D01*
X154258809Y-113736428D02*
X153496904Y-113736428D01*
X153020714Y-114117380D02*
X153020714Y-113117380D01*
X152639761Y-113117380D01*
X152544523Y-113165000D01*
X152496904Y-113212619D01*
X152449285Y-113307857D01*
X152449285Y-113450714D01*
X152496904Y-113545952D01*
X152544523Y-113593571D01*
X152639761Y-113641190D01*
X153020714Y-113641190D01*
X151354047Y-113450714D02*
X151115952Y-114117380D01*
X150877857Y-113450714D01*
X150544523Y-113212619D02*
X150496904Y-113165000D01*
X150401666Y-113117380D01*
X150163571Y-113117380D01*
X150068333Y-113165000D01*
X150020714Y-113212619D01*
X149973095Y-113307857D01*
X149973095Y-113403095D01*
X150020714Y-113545952D01*
X150592142Y-114117380D01*
X149973095Y-114117380D01*
X149544523Y-114022142D02*
X149496904Y-114069761D01*
X149544523Y-114117380D01*
X149592142Y-114069761D01*
X149544523Y-114022142D01*
X149544523Y-114117380D01*
X189020714Y-115817380D02*
X189496904Y-115817380D01*
X189496904Y-114817380D01*
X188687380Y-115817380D02*
X188687380Y-114817380D01*
X188258809Y-115531666D02*
X187782619Y-115531666D01*
X188354047Y-115817380D02*
X188020714Y-114817380D01*
X187687380Y-115817380D01*
X187020714Y-115293571D02*
X186877857Y-115341190D01*
X186830238Y-115388809D01*
X186782619Y-115484047D01*
X186782619Y-115626904D01*
X186830238Y-115722142D01*
X186877857Y-115769761D01*
X186973095Y-115817380D01*
X187354047Y-115817380D01*
X187354047Y-114817380D01*
X187020714Y-114817380D01*
X186925476Y-114865000D01*
X186877857Y-114912619D01*
X186830238Y-115007857D01*
X186830238Y-115103095D01*
X186877857Y-115198333D01*
X186925476Y-115245952D01*
X187020714Y-115293571D01*
X187354047Y-115293571D01*
X186354047Y-115817380D02*
X186354047Y-114817380D01*
X185401666Y-115817380D02*
X185877857Y-115817380D01*
X185877857Y-114817380D01*
X185068333Y-115817380D02*
X185068333Y-114817380D01*
X184735000Y-114817380D02*
X184163571Y-114817380D01*
X184449285Y-115817380D02*
X184449285Y-114817380D01*
X183639761Y-115341190D02*
X183639761Y-115817380D01*
X183973095Y-114817380D02*
X183639761Y-115341190D01*
X183306428Y-114817380D01*
X182211190Y-115293571D02*
X181877857Y-115293571D01*
X181735000Y-115817380D02*
X182211190Y-115817380D01*
X182211190Y-114817380D01*
X181735000Y-114817380D01*
X181401666Y-114817380D02*
X180735000Y-115817380D01*
X180735000Y-114817380D02*
X181401666Y-115817380D01*
X179782619Y-115722142D02*
X179830238Y-115769761D01*
X179973095Y-115817380D01*
X180068333Y-115817380D01*
X180211190Y-115769761D01*
X180306428Y-115674523D01*
X180354047Y-115579285D01*
X180401666Y-115388809D01*
X180401666Y-115245952D01*
X180354047Y-115055476D01*
X180306428Y-114960238D01*
X180211190Y-114865000D01*
X180068333Y-114817380D01*
X179973095Y-114817380D01*
X179830238Y-114865000D01*
X179782619Y-114912619D01*
X178877857Y-115817380D02*
X179354047Y-115817380D01*
X179354047Y-114817380D01*
X178544523Y-114817380D02*
X178544523Y-115626904D01*
X178496904Y-115722142D01*
X178449285Y-115769761D01*
X178354047Y-115817380D01*
X178163571Y-115817380D01*
X178068333Y-115769761D01*
X178020714Y-115722142D01*
X177973095Y-115626904D01*
X177973095Y-114817380D01*
X177496904Y-115817380D02*
X177496904Y-114817380D01*
X177258809Y-114817380D01*
X177115952Y-114865000D01*
X177020714Y-114960238D01*
X176973095Y-115055476D01*
X176925476Y-115245952D01*
X176925476Y-115388809D01*
X176973095Y-115579285D01*
X177020714Y-115674523D01*
X177115952Y-115769761D01*
X177258809Y-115817380D01*
X177496904Y-115817380D01*
X176496904Y-115293571D02*
X176163571Y-115293571D01*
X176020714Y-115817380D02*
X176496904Y-115817380D01*
X176496904Y-114817380D01*
X176020714Y-114817380D01*
X175592142Y-115817380D02*
X175592142Y-114817380D01*
X175354047Y-114817380D01*
X175211190Y-114865000D01*
X175115952Y-114960238D01*
X175068333Y-115055476D01*
X175020714Y-115245952D01*
X175020714Y-115388809D01*
X175068333Y-115579285D01*
X175115952Y-115674523D01*
X175211190Y-115769761D01*
X175354047Y-115817380D01*
X175592142Y-115817380D01*
X173877857Y-115531666D02*
X173401666Y-115531666D01*
X173973095Y-115817380D02*
X173639761Y-114817380D01*
X173306428Y-115817380D01*
X172973095Y-115817380D02*
X172973095Y-114817380D01*
X172401666Y-115817380D01*
X172401666Y-114817380D01*
X171925476Y-115817380D02*
X171925476Y-114817380D01*
X171687380Y-114817380D01*
X171544523Y-114865000D01*
X171449285Y-114960238D01*
X171401666Y-115055476D01*
X171354047Y-115245952D01*
X171354047Y-115388809D01*
X171401666Y-115579285D01*
X171449285Y-115674523D01*
X171544523Y-115769761D01*
X171687380Y-115817380D01*
X171925476Y-115817380D01*
X169687380Y-115817380D02*
X170163571Y-115817380D01*
X170163571Y-114817380D01*
X169354047Y-115817380D02*
X169354047Y-114817380D01*
X168877857Y-115817380D02*
X168877857Y-114817380D01*
X168544523Y-115531666D01*
X168211190Y-114817380D01*
X168211190Y-115817380D01*
X167735000Y-115817380D02*
X167735000Y-114817380D01*
X167401666Y-114817380D02*
X166830238Y-114817380D01*
X167115952Y-115817380D02*
X167115952Y-114817380D01*
X166496904Y-115293571D02*
X166163571Y-115293571D01*
X166020714Y-115817380D02*
X166496904Y-115817380D01*
X166496904Y-114817380D01*
X166020714Y-114817380D01*
X165592142Y-115817380D02*
X165592142Y-114817380D01*
X165354047Y-114817380D01*
X165211190Y-114865000D01*
X165115952Y-114960238D01*
X165068333Y-115055476D01*
X165020714Y-115245952D01*
X165020714Y-115388809D01*
X165068333Y-115579285D01*
X165115952Y-115674523D01*
X165211190Y-115769761D01*
X165354047Y-115817380D01*
X165592142Y-115817380D01*
X163830238Y-115817380D02*
X163830238Y-114817380D01*
X163449285Y-114817380D01*
X163354047Y-114865000D01*
X163306428Y-114912619D01*
X163258809Y-115007857D01*
X163258809Y-115150714D01*
X163306428Y-115245952D01*
X163354047Y-115293571D01*
X163449285Y-115341190D01*
X163830238Y-115341190D01*
X162830238Y-115293571D02*
X162496904Y-115293571D01*
X162354047Y-115817380D02*
X162830238Y-115817380D01*
X162830238Y-114817380D01*
X162354047Y-114817380D01*
X161354047Y-115817380D02*
X161687380Y-115341190D01*
X161925476Y-115817380D02*
X161925476Y-114817380D01*
X161544523Y-114817380D01*
X161449285Y-114865000D01*
X161401666Y-114912619D01*
X161354047Y-115007857D01*
X161354047Y-115150714D01*
X161401666Y-115245952D01*
X161449285Y-115293571D01*
X161544523Y-115341190D01*
X161925476Y-115341190D01*
X159687380Y-114817380D02*
X160163571Y-114817380D01*
X160211190Y-115293571D01*
X160163571Y-115245952D01*
X160068333Y-115198333D01*
X159830238Y-115198333D01*
X159735000Y-115245952D01*
X159687380Y-115293571D01*
X159639761Y-115388809D01*
X159639761Y-115626904D01*
X159687380Y-115722142D01*
X159735000Y-115769761D01*
X159830238Y-115817380D01*
X160068333Y-115817380D01*
X160163571Y-115769761D01*
X160211190Y-115722142D01*
X159211190Y-115722142D02*
X159163571Y-115769761D01*
X159211190Y-115817380D01*
X159258809Y-115769761D01*
X159211190Y-115722142D01*
X159211190Y-115817380D01*
X158782619Y-114912619D02*
X158735000Y-114865000D01*
X158639761Y-114817380D01*
X158401666Y-114817380D01*
X158306428Y-114865000D01*
X158258809Y-114912619D01*
X158211190Y-115007857D01*
X158211190Y-115103095D01*
X158258809Y-115245952D01*
X158830238Y-115817380D01*
X158211190Y-115817380D01*
X156830238Y-114817380D02*
X156639761Y-114817380D01*
X156544523Y-114865000D01*
X156449285Y-114960238D01*
X156401666Y-115150714D01*
X156401666Y-115484047D01*
X156449285Y-115674523D01*
X156544523Y-115769761D01*
X156639761Y-115817380D01*
X156830238Y-115817380D01*
X156925476Y-115769761D01*
X157020714Y-115674523D01*
X157068333Y-115484047D01*
X157068333Y-115150714D01*
X157020714Y-114960238D01*
X156925476Y-114865000D01*
X156830238Y-114817380D01*
X155639761Y-115293571D02*
X155973095Y-115293571D01*
X155973095Y-115817380D02*
X155973095Y-114817380D01*
X155496904Y-114817380D01*
X153782619Y-115722142D02*
X153830238Y-115769761D01*
X153973095Y-115817380D01*
X154068333Y-115817380D01*
X154211190Y-115769761D01*
X154306428Y-115674523D01*
X154354047Y-115579285D01*
X154401666Y-115388809D01*
X154401666Y-115245952D01*
X154354047Y-115055476D01*
X154306428Y-114960238D01*
X154211190Y-114865000D01*
X154068333Y-114817380D01*
X153973095Y-114817380D01*
X153830238Y-114865000D01*
X153782619Y-114912619D01*
X153354047Y-115293571D02*
X153020714Y-115293571D01*
X152877857Y-115817380D02*
X153354047Y-115817380D01*
X153354047Y-114817380D01*
X152877857Y-114817380D01*
X151877857Y-115817380D02*
X152211190Y-115341190D01*
X152449285Y-115817380D02*
X152449285Y-114817380D01*
X152068333Y-114817380D01*
X151973095Y-114865000D01*
X151925476Y-114912619D01*
X151877857Y-115007857D01*
X151877857Y-115150714D01*
X151925476Y-115245952D01*
X151973095Y-115293571D01*
X152068333Y-115341190D01*
X152449285Y-115341190D01*
X151449285Y-115817380D02*
X151449285Y-114817380D01*
X150877857Y-115817380D01*
X150877857Y-114817380D01*
X150401666Y-115436428D02*
X149639761Y-115436428D01*
X148973095Y-114817380D02*
X148782619Y-114817380D01*
X148687380Y-114865000D01*
X148592142Y-114960238D01*
X148544523Y-115150714D01*
X148544523Y-115484047D01*
X148592142Y-115674523D01*
X148687380Y-115769761D01*
X148782619Y-115817380D01*
X148973095Y-115817380D01*
X149068333Y-115769761D01*
X149163571Y-115674523D01*
X149211190Y-115484047D01*
X149211190Y-115150714D01*
X149163571Y-114960238D01*
X149068333Y-114865000D01*
X148973095Y-114817380D01*
X148115952Y-115817380D02*
X148115952Y-114817380D01*
X148115952Y-115293571D02*
X147544523Y-115293571D01*
X147544523Y-115817380D02*
X147544523Y-114817380D01*
X146592142Y-115817380D02*
X147068333Y-115817380D01*
X147068333Y-114817380D01*
X146258809Y-115436428D02*
X145496904Y-115436428D01*
X145020714Y-115817380D02*
X145020714Y-114817380D01*
X144639761Y-114817380D01*
X144544523Y-114865000D01*
X144496904Y-114912619D01*
X144449285Y-115007857D01*
X144449285Y-115150714D01*
X144496904Y-115245952D01*
X144544523Y-115293571D01*
X144639761Y-115341190D01*
X145020714Y-115341190D01*
X143354047Y-115150714D02*
X143115952Y-115817380D01*
X142877857Y-115150714D01*
X142544523Y-114912619D02*
X142496904Y-114865000D01*
X142401666Y-114817380D01*
X142163571Y-114817380D01*
X142068333Y-114865000D01*
X142020714Y-114912619D01*
X141973095Y-115007857D01*
X141973095Y-115103095D01*
X142020714Y-115245952D01*
X142592142Y-115817380D01*
X141973095Y-115817380D01*
X141544523Y-115722142D02*
X141496904Y-115769761D01*
X141544523Y-115817380D01*
X141592142Y-115769761D01*
X141544523Y-115722142D01*
X141544523Y-115817380D01*
D12*
X112996071Y-117403571D02*
X112853214Y-117451190D01*
X112805595Y-117498809D01*
X112757976Y-117594047D01*
X112757976Y-117736904D01*
X112805595Y-117832142D01*
X112853214Y-117879761D01*
X112948452Y-117927380D01*
X113329404Y-117927380D01*
X113329404Y-116927380D01*
X112996071Y-116927380D01*
X112900833Y-116975000D01*
X112853214Y-117022619D01*
X112805595Y-117117857D01*
X112805595Y-117213095D01*
X112853214Y-117308333D01*
X112900833Y-117355952D01*
X112996071Y-117403571D01*
X113329404Y-117403571D01*
X112424642Y-116927380D02*
X111805595Y-116927380D01*
X112138928Y-117308333D01*
X111996071Y-117308333D01*
X111900833Y-117355952D01*
X111853214Y-117403571D01*
X111805595Y-117498809D01*
X111805595Y-117736904D01*
X111853214Y-117832142D01*
X111900833Y-117879761D01*
X111996071Y-117927380D01*
X112281785Y-117927380D01*
X112377023Y-117879761D01*
X112424642Y-117832142D01*
X110853214Y-117927380D02*
X111424642Y-117927380D01*
X111138928Y-117927380D02*
X111138928Y-116927380D01*
X111234166Y-117070238D01*
X111329404Y-117165476D01*
X111424642Y-117213095D01*
X189196071Y-117403571D02*
X189053214Y-117451190D01*
X189005595Y-117498809D01*
X188957976Y-117594047D01*
X188957976Y-117736904D01*
X189005595Y-117832142D01*
X189053214Y-117879761D01*
X189148452Y-117927380D01*
X189529404Y-117927380D01*
X189529404Y-116927380D01*
X189196071Y-116927380D01*
X189100833Y-116975000D01*
X189053214Y-117022619D01*
X189005595Y-117117857D01*
X189005595Y-117213095D01*
X189053214Y-117308333D01*
X189100833Y-117355952D01*
X189196071Y-117403571D01*
X189529404Y-117403571D01*
X188338928Y-116927380D02*
X188243690Y-116927380D01*
X188148452Y-116975000D01*
X188100833Y-117022619D01*
X188053214Y-117117857D01*
X188005595Y-117308333D01*
X188005595Y-117546428D01*
X188053214Y-117736904D01*
X188100833Y-117832142D01*
X188148452Y-117879761D01*
X188243690Y-117927380D01*
X188338928Y-117927380D01*
X188434166Y-117879761D01*
X188481785Y-117832142D01*
X188529404Y-117736904D01*
X188577023Y-117546428D01*
X188577023Y-117308333D01*
X188529404Y-117117857D01*
X188481785Y-117022619D01*
X188434166Y-116975000D01*
X188338928Y-116927380D01*
X187053214Y-117927380D02*
X187624642Y-117927380D01*
X187338928Y-117927380D02*
X187338928Y-116927380D01*
X187434166Y-117070238D01*
X187529404Y-117165476D01*
X187624642Y-117213095D01*
D13*
X127889000Y-70866000D02*
G75*
G03X127889000Y-70866000I-127000J0D01*
G01*
D14*
G36*
X128016000Y-70104000D02*
G01*
X127508000Y-70104000D01*
X127508000Y-68834000D01*
X128016000Y-68834000D01*
X128016000Y-70104000D01*
G37*
X128016000Y-70104000D02*
X127508000Y-70104000D01*
X127508000Y-68834000D01*
X128016000Y-68834000D01*
X128016000Y-70104000D01*
D11*
X128079500Y-70866000D02*
G75*
G03X128079500Y-70866000I-317500J0D01*
G01*
D13*
X129540000Y-71809000D02*
X125984000Y-71809000D01*
X128165011Y-67854518D02*
X129916721Y-71156500D01*
X125607279Y-71156500D02*
X127411600Y-67854500D01*
X128165011Y-67854518D02*
G75*
G03X127411600Y-67854500I-376711J-217482D01*
G01*
X129916721Y-71156500D02*
G75*
G02X129540000Y-71809000I-376721J-217500D01*
G01*
X125607279Y-71156500D02*
G75*
G03X125984000Y-71809000I376721J-217500D01*
G01*
D10*
X123901428Y-67602380D02*
X123710952Y-67602380D01*
X123615714Y-67650000D01*
X123520476Y-67745238D01*
X123472857Y-67935714D01*
X123472857Y-68269047D01*
X123520476Y-68459523D01*
X123615714Y-68554761D01*
X123710952Y-68602380D01*
X123901428Y-68602380D01*
X123996666Y-68554761D01*
X124091904Y-68459523D01*
X124139523Y-68269047D01*
X124139523Y-67935714D01*
X124091904Y-67745238D01*
X123996666Y-67650000D01*
X123901428Y-67602380D01*
X122472857Y-68602380D02*
X122806190Y-68126190D01*
X123044285Y-68602380D02*
X123044285Y-67602380D01*
X122663333Y-67602380D01*
X122568095Y-67650000D01*
X122520476Y-67697619D01*
X122472857Y-67792857D01*
X122472857Y-67935714D01*
X122520476Y-68030952D01*
X122568095Y-68078571D01*
X122663333Y-68126190D01*
X123044285Y-68126190D01*
X122044285Y-68602380D02*
X122044285Y-67602380D01*
X121568095Y-68078571D02*
X121234761Y-68078571D01*
X121091904Y-68602380D02*
X121568095Y-68602380D01*
X121568095Y-67602380D01*
X121091904Y-67602380D01*
X120663333Y-68602380D02*
X120663333Y-67602380D01*
X120091904Y-68602380D01*
X120091904Y-67602380D01*
X119758571Y-67602380D02*
X119187142Y-67602380D01*
X119472857Y-68602380D02*
X119472857Y-67602380D01*
X118139523Y-67602380D02*
X118139523Y-67792857D01*
X117758571Y-67602380D02*
X117758571Y-67792857D01*
X116568095Y-67935714D02*
X117330000Y-68221428D01*
X116568095Y-68507142D01*
X116091904Y-68221428D02*
X115330000Y-68221428D01*
X113520476Y-68602380D02*
X113853809Y-68126190D01*
X114091904Y-68602380D02*
X114091904Y-67602380D01*
X113710952Y-67602380D01*
X113615714Y-67650000D01*
X113568095Y-67697619D01*
X113520476Y-67792857D01*
X113520476Y-67935714D01*
X113568095Y-68030952D01*
X113615714Y-68078571D01*
X113710952Y-68126190D01*
X114091904Y-68126190D01*
X113091904Y-68078571D02*
X112758571Y-68078571D01*
X112615714Y-68602380D02*
X113091904Y-68602380D01*
X113091904Y-67602380D01*
X112615714Y-67602380D01*
X112234761Y-68316666D02*
X111758571Y-68316666D01*
X112330000Y-68602380D02*
X111996666Y-67602380D01*
X111663333Y-68602380D01*
X110758571Y-68602380D02*
X111091904Y-68126190D01*
X111330000Y-68602380D02*
X111330000Y-67602380D01*
X110949047Y-67602380D01*
X110853809Y-67650000D01*
X110806190Y-67697619D01*
X110758571Y-67792857D01*
X110758571Y-67935714D01*
X110806190Y-68030952D01*
X110853809Y-68078571D01*
X110949047Y-68126190D01*
X111330000Y-68126190D01*
X110377619Y-67602380D02*
X110377619Y-67792857D01*
X109996666Y-67602380D02*
X109996666Y-67792857D01*
X108949047Y-67602380D02*
X108377619Y-67602380D01*
X108663333Y-68602380D02*
X108663333Y-67602380D01*
X107853809Y-67602380D02*
X107663333Y-67602380D01*
X107568095Y-67650000D01*
X107472857Y-67745238D01*
X107425238Y-67935714D01*
X107425238Y-68269047D01*
X107472857Y-68459523D01*
X107568095Y-68554761D01*
X107663333Y-68602380D01*
X107853809Y-68602380D01*
X107949047Y-68554761D01*
X108044285Y-68459523D01*
X108091904Y-68269047D01*
X108091904Y-67935714D01*
X108044285Y-67745238D01*
X107949047Y-67650000D01*
X107853809Y-67602380D01*
X107091904Y-67602380D02*
X106853809Y-68602380D01*
X106663333Y-67888095D01*
X106472857Y-68602380D01*
X106234761Y-67602380D01*
X105901428Y-68316666D02*
X105425238Y-68316666D01*
X105996666Y-68602380D02*
X105663333Y-67602380D01*
X105330000Y-68602380D01*
X104425238Y-68602380D02*
X104758571Y-68126190D01*
X104996666Y-68602380D02*
X104996666Y-67602380D01*
X104615714Y-67602380D01*
X104520476Y-67650000D01*
X104472857Y-67697619D01*
X104425238Y-67792857D01*
X104425238Y-67935714D01*
X104472857Y-68030952D01*
X104520476Y-68078571D01*
X104615714Y-68126190D01*
X104996666Y-68126190D01*
X103996666Y-68602380D02*
X103996666Y-67602380D01*
X103758571Y-67602380D01*
X103615714Y-67650000D01*
X103520476Y-67745238D01*
X103472857Y-67840476D01*
X103425238Y-68030952D01*
X103425238Y-68173809D01*
X103472857Y-68364285D01*
X103520476Y-68459523D01*
X103615714Y-68554761D01*
X103758571Y-68602380D01*
X103996666Y-68602380D01*
X103044285Y-68554761D02*
X102901428Y-68602380D01*
X102663333Y-68602380D01*
X102568095Y-68554761D01*
X102520476Y-68507142D01*
X102472857Y-68411904D01*
X102472857Y-68316666D01*
X102520476Y-68221428D01*
X102568095Y-68173809D01*
X102663333Y-68126190D01*
X102853809Y-68078571D01*
X102949047Y-68030952D01*
X102996666Y-67983333D01*
X103044285Y-67888095D01*
X103044285Y-67792857D01*
X102996666Y-67697619D01*
X102949047Y-67650000D01*
X102853809Y-67602380D01*
X102615714Y-67602380D01*
X102472857Y-67650000D01*
X123520476Y-70302380D02*
X123853809Y-69826190D01*
X124091904Y-70302380D02*
X124091904Y-69302380D01*
X123710952Y-69302380D01*
X123615714Y-69350000D01*
X123568095Y-69397619D01*
X123520476Y-69492857D01*
X123520476Y-69635714D01*
X123568095Y-69730952D01*
X123615714Y-69778571D01*
X123710952Y-69826190D01*
X124091904Y-69826190D01*
X123091904Y-69778571D02*
X122758571Y-69778571D01*
X122615714Y-70302380D02*
X123091904Y-70302380D01*
X123091904Y-69302380D01*
X122615714Y-69302380D01*
X122234761Y-70016666D02*
X121758571Y-70016666D01*
X122330000Y-70302380D02*
X121996666Y-69302380D01*
X121663333Y-70302380D01*
X120758571Y-70302380D02*
X121091904Y-69826190D01*
X121330000Y-70302380D02*
X121330000Y-69302380D01*
X120949047Y-69302380D01*
X120853809Y-69350000D01*
X120806190Y-69397619D01*
X120758571Y-69492857D01*
X120758571Y-69635714D01*
X120806190Y-69730952D01*
X120853809Y-69778571D01*
X120949047Y-69826190D01*
X121330000Y-69826190D01*
X119377619Y-69302380D02*
X119187142Y-69302380D01*
X119091904Y-69350000D01*
X118996666Y-69445238D01*
X118949047Y-69635714D01*
X118949047Y-69969047D01*
X118996666Y-70159523D01*
X119091904Y-70254761D01*
X119187142Y-70302380D01*
X119377619Y-70302380D01*
X119472857Y-70254761D01*
X119568095Y-70159523D01*
X119615714Y-69969047D01*
X119615714Y-69635714D01*
X119568095Y-69445238D01*
X119472857Y-69350000D01*
X119377619Y-69302380D01*
X118187142Y-69778571D02*
X118520476Y-69778571D01*
X118520476Y-70302380D02*
X118520476Y-69302380D01*
X118044285Y-69302380D01*
X116901428Y-70302380D02*
X116901428Y-69302380D01*
X116568095Y-70016666D01*
X116234761Y-69302380D01*
X116234761Y-70302380D01*
X115568095Y-69302380D02*
X115377619Y-69302380D01*
X115282380Y-69350000D01*
X115187142Y-69445238D01*
X115139523Y-69635714D01*
X115139523Y-69969047D01*
X115187142Y-70159523D01*
X115282380Y-70254761D01*
X115377619Y-70302380D01*
X115568095Y-70302380D01*
X115663333Y-70254761D01*
X115758571Y-70159523D01*
X115806190Y-69969047D01*
X115806190Y-69635714D01*
X115758571Y-69445238D01*
X115663333Y-69350000D01*
X115568095Y-69302380D01*
X114853809Y-69302380D02*
X114282380Y-69302380D01*
X114568095Y-70302380D02*
X114568095Y-69302380D01*
X113949047Y-70302380D02*
X113949047Y-69302380D01*
X113949047Y-69778571D02*
X113377619Y-69778571D01*
X113377619Y-70302380D02*
X113377619Y-69302380D01*
X112901428Y-69778571D02*
X112568095Y-69778571D01*
X112425238Y-70302380D02*
X112901428Y-70302380D01*
X112901428Y-69302380D01*
X112425238Y-69302380D01*
X111425238Y-70302380D02*
X111758571Y-69826190D01*
X111996666Y-70302380D02*
X111996666Y-69302380D01*
X111615714Y-69302380D01*
X111520476Y-69350000D01*
X111472857Y-69397619D01*
X111425238Y-69492857D01*
X111425238Y-69635714D01*
X111472857Y-69730952D01*
X111520476Y-69778571D01*
X111615714Y-69826190D01*
X111996666Y-69826190D01*
X110663333Y-69778571D02*
X110520476Y-69826190D01*
X110472857Y-69873809D01*
X110425238Y-69969047D01*
X110425238Y-70111904D01*
X110472857Y-70207142D01*
X110520476Y-70254761D01*
X110615714Y-70302380D01*
X110996666Y-70302380D01*
X110996666Y-69302380D01*
X110663333Y-69302380D01*
X110568095Y-69350000D01*
X110520476Y-69397619D01*
X110472857Y-69492857D01*
X110472857Y-69588095D01*
X110520476Y-69683333D01*
X110568095Y-69730952D01*
X110663333Y-69778571D01*
X110996666Y-69778571D01*
X109806190Y-69302380D02*
X109615714Y-69302380D01*
X109520476Y-69350000D01*
X109425238Y-69445238D01*
X109377619Y-69635714D01*
X109377619Y-69969047D01*
X109425238Y-70159523D01*
X109520476Y-70254761D01*
X109615714Y-70302380D01*
X109806190Y-70302380D01*
X109901428Y-70254761D01*
X109996666Y-70159523D01*
X110044285Y-69969047D01*
X110044285Y-69635714D01*
X109996666Y-69445238D01*
X109901428Y-69350000D01*
X109806190Y-69302380D01*
X108996666Y-70016666D02*
X108520476Y-70016666D01*
X109091904Y-70302380D02*
X108758571Y-69302380D01*
X108425238Y-70302380D01*
X107520476Y-70302380D02*
X107853809Y-69826190D01*
X108091904Y-70302380D02*
X108091904Y-69302380D01*
X107710952Y-69302380D01*
X107615714Y-69350000D01*
X107568095Y-69397619D01*
X107520476Y-69492857D01*
X107520476Y-69635714D01*
X107568095Y-69730952D01*
X107615714Y-69778571D01*
X107710952Y-69826190D01*
X108091904Y-69826190D01*
X107091904Y-70302380D02*
X107091904Y-69302380D01*
X106853809Y-69302380D01*
X106710952Y-69350000D01*
X106615714Y-69445238D01*
X106568095Y-69540476D01*
X106520476Y-69730952D01*
X106520476Y-69873809D01*
X106568095Y-70064285D01*
X106615714Y-70159523D01*
X106710952Y-70254761D01*
X106853809Y-70302380D01*
X107091904Y-70302380D01*
X123758571Y-71478571D02*
X123615714Y-71526190D01*
X123568095Y-71573809D01*
X123520476Y-71669047D01*
X123520476Y-71811904D01*
X123568095Y-71907142D01*
X123615714Y-71954761D01*
X123710952Y-72002380D01*
X124091904Y-72002380D01*
X124091904Y-71002380D01*
X123758571Y-71002380D01*
X123663333Y-71050000D01*
X123615714Y-71097619D01*
X123568095Y-71192857D01*
X123568095Y-71288095D01*
X123615714Y-71383333D01*
X123663333Y-71430952D01*
X123758571Y-71478571D01*
X124091904Y-71478571D01*
X123091904Y-71478571D02*
X122758571Y-71478571D01*
X122615714Y-72002380D02*
X123091904Y-72002380D01*
X123091904Y-71002380D01*
X122615714Y-71002380D01*
X121853809Y-71478571D02*
X122187142Y-71478571D01*
X122187142Y-72002380D02*
X122187142Y-71002380D01*
X121710952Y-71002380D01*
X121139523Y-71002380D02*
X120949047Y-71002380D01*
X120853809Y-71050000D01*
X120758571Y-71145238D01*
X120710952Y-71335714D01*
X120710952Y-71669047D01*
X120758571Y-71859523D01*
X120853809Y-71954761D01*
X120949047Y-72002380D01*
X121139523Y-72002380D01*
X121234761Y-71954761D01*
X121330000Y-71859523D01*
X121377619Y-71669047D01*
X121377619Y-71335714D01*
X121330000Y-71145238D01*
X121234761Y-71050000D01*
X121139523Y-71002380D01*
X119710952Y-72002380D02*
X120044285Y-71526190D01*
X120282380Y-72002380D02*
X120282380Y-71002380D01*
X119901428Y-71002380D01*
X119806190Y-71050000D01*
X119758571Y-71097619D01*
X119710952Y-71192857D01*
X119710952Y-71335714D01*
X119758571Y-71430952D01*
X119806190Y-71478571D01*
X119901428Y-71526190D01*
X120282380Y-71526190D01*
X119282380Y-71478571D02*
X118949047Y-71478571D01*
X118806190Y-72002380D02*
X119282380Y-72002380D01*
X119282380Y-71002380D01*
X118806190Y-71002380D01*
X117615714Y-72002380D02*
X117615714Y-71002380D01*
X117139523Y-72002380D02*
X117139523Y-71002380D01*
X116568095Y-72002380D01*
X116568095Y-71002380D01*
X116139523Y-71954761D02*
X115996666Y-72002380D01*
X115758571Y-72002380D01*
X115663333Y-71954761D01*
X115615714Y-71907142D01*
X115568095Y-71811904D01*
X115568095Y-71716666D01*
X115615714Y-71621428D01*
X115663333Y-71573809D01*
X115758571Y-71526190D01*
X115949047Y-71478571D01*
X116044285Y-71430952D01*
X116091904Y-71383333D01*
X116139523Y-71288095D01*
X116139523Y-71192857D01*
X116091904Y-71097619D01*
X116044285Y-71050000D01*
X115949047Y-71002380D01*
X115710952Y-71002380D01*
X115568095Y-71050000D01*
X115139523Y-71478571D02*
X114806190Y-71478571D01*
X114663333Y-72002380D02*
X115139523Y-72002380D01*
X115139523Y-71002380D01*
X114663333Y-71002380D01*
X113663333Y-72002380D02*
X113996666Y-71526190D01*
X114234761Y-72002380D02*
X114234761Y-71002380D01*
X113853809Y-71002380D01*
X113758571Y-71050000D01*
X113710952Y-71097619D01*
X113663333Y-71192857D01*
X113663333Y-71335714D01*
X113710952Y-71430952D01*
X113758571Y-71478571D01*
X113853809Y-71526190D01*
X114234761Y-71526190D01*
X113377619Y-71002380D02*
X112806190Y-71002380D01*
X113091904Y-72002380D02*
X113091904Y-71002380D01*
X112472857Y-72002380D02*
X112472857Y-71002380D01*
X111806190Y-71002380D02*
X111615714Y-71002380D01*
X111520476Y-71050000D01*
X111425238Y-71145238D01*
X111377619Y-71335714D01*
X111377619Y-71669047D01*
X111425238Y-71859523D01*
X111520476Y-71954761D01*
X111615714Y-72002380D01*
X111806190Y-72002380D01*
X111901428Y-71954761D01*
X111996666Y-71859523D01*
X112044285Y-71669047D01*
X112044285Y-71335714D01*
X111996666Y-71145238D01*
X111901428Y-71050000D01*
X111806190Y-71002380D01*
X110949047Y-72002380D02*
X110949047Y-71002380D01*
X110377619Y-72002380D01*
X110377619Y-71002380D01*
X109139523Y-72002380D02*
X109139523Y-71002380D01*
X108663333Y-72002380D02*
X108663333Y-71002380D01*
X108091904Y-72002380D01*
X108091904Y-71002380D01*
X107758571Y-71002380D02*
X107187142Y-71002380D01*
X107472857Y-72002380D02*
X107472857Y-71002380D01*
X106663333Y-71002380D02*
X106472857Y-71002380D01*
X106377619Y-71050000D01*
X106282380Y-71145238D01*
X106234761Y-71335714D01*
X106234761Y-71669047D01*
X106282380Y-71859523D01*
X106377619Y-71954761D01*
X106472857Y-72002380D01*
X106663333Y-72002380D01*
X106758571Y-71954761D01*
X106853809Y-71859523D01*
X106901428Y-71669047D01*
X106901428Y-71335714D01*
X106853809Y-71145238D01*
X106758571Y-71050000D01*
X106663333Y-71002380D01*
X105044285Y-72002380D02*
X105044285Y-71002380D01*
X104615714Y-71954761D02*
X104472857Y-72002380D01*
X104234761Y-72002380D01*
X104139523Y-71954761D01*
X104091904Y-71907142D01*
X104044285Y-71811904D01*
X104044285Y-71716666D01*
X104091904Y-71621428D01*
X104139523Y-71573809D01*
X104234761Y-71526190D01*
X104425238Y-71478571D01*
X104520476Y-71430952D01*
X104568095Y-71383333D01*
X104615714Y-71288095D01*
X104615714Y-71192857D01*
X104568095Y-71097619D01*
X104520476Y-71050000D01*
X104425238Y-71002380D01*
X104187142Y-71002380D01*
X104044285Y-71050000D01*
X103663333Y-71716666D02*
X103187142Y-71716666D01*
X103758571Y-72002380D02*
X103425238Y-71002380D01*
X103091904Y-72002380D01*
X102044285Y-71954761D02*
X101901428Y-72002380D01*
X101663333Y-72002380D01*
X101568095Y-71954761D01*
X101520476Y-71907142D01*
X101472857Y-71811904D01*
X101472857Y-71716666D01*
X101520476Y-71621428D01*
X101568095Y-71573809D01*
X101663333Y-71526190D01*
X101853809Y-71478571D01*
X101949047Y-71430952D01*
X101996666Y-71383333D01*
X102044285Y-71288095D01*
X102044285Y-71192857D01*
X101996666Y-71097619D01*
X101949047Y-71050000D01*
X101853809Y-71002380D01*
X101615714Y-71002380D01*
X101472857Y-71050000D01*
X100568095Y-72002380D02*
X101044285Y-72002380D01*
X101044285Y-71002380D01*
X100044285Y-71002380D02*
X99853809Y-71002380D01*
X99758571Y-71050000D01*
X99663333Y-71145238D01*
X99615714Y-71335714D01*
X99615714Y-71669047D01*
X99663333Y-71859523D01*
X99758571Y-71954761D01*
X99853809Y-72002380D01*
X100044285Y-72002380D01*
X100139523Y-71954761D01*
X100234761Y-71859523D01*
X100282380Y-71669047D01*
X100282380Y-71335714D01*
X100234761Y-71145238D01*
X100139523Y-71050000D01*
X100044285Y-71002380D01*
X99330000Y-71002380D02*
X98758571Y-71002380D01*
X99044285Y-72002380D02*
X99044285Y-71002380D01*
D11*
X177165000Y-94615000D02*
X177165000Y-89535000D01*
X197485000Y-94615000D02*
X177165000Y-94615000D01*
X177165000Y-89535000D02*
X197485000Y-89535000D01*
X197485000Y-89535000D02*
X197485000Y-94615000D01*
X177165000Y-71755000D02*
X197485000Y-71755000D01*
X197485000Y-71755000D02*
X197485000Y-76835000D01*
X197485000Y-76835000D02*
X177165000Y-76835000D01*
X177165000Y-76835000D02*
X177165000Y-71755000D01*
X174625000Y-74295000D02*
X200025000Y-74295000D01*
X200025000Y-74295000D02*
X200025000Y-79375000D01*
X200025000Y-79375000D02*
X174625000Y-79375000D01*
X174625000Y-79375000D02*
X174625000Y-74295000D01*
X158750000Y-72390000D02*
X158750000Y-74930000D01*
X156210000Y-72390000D02*
X158750000Y-72390000D01*
X166370000Y-72390000D02*
X166370000Y-74930000D01*
X163830000Y-72390000D02*
X166370000Y-72390000D01*
X163830000Y-64770000D02*
X163830000Y-74930000D01*
X156210000Y-74930000D02*
X156210000Y-64770000D01*
X171450000Y-74930000D02*
X156210000Y-74930000D01*
X171450000Y-64770000D02*
X171450000Y-74930000D01*
X156210000Y-64770000D02*
X171450000Y-64770000D01*
X174625000Y-86995000D02*
X200025000Y-86995000D01*
X200025000Y-86995000D02*
X200025000Y-92075000D01*
X200025000Y-92075000D02*
X174625000Y-92075000D01*
X174625000Y-92075000D02*
X174625000Y-86995000D01*
X174625000Y-102235000D02*
X200025000Y-102235000D01*
X200025000Y-102235000D02*
X200025000Y-107315000D01*
X200025000Y-107315000D02*
X174625000Y-107315000D01*
X174625000Y-107315000D02*
X174625000Y-102235000D01*
X150495000Y-107950000D02*
X131445000Y-107950000D01*
X131445000Y-107950000D02*
X131445000Y-102870000D01*
X131445000Y-102870000D02*
X150495000Y-102870000D01*
X150495000Y-102870000D02*
X150495000Y-107950000D01*
X100330000Y-100330000D02*
X125730000Y-100330000D01*
X125730000Y-100330000D02*
X125730000Y-105410000D01*
X125730000Y-105410000D02*
X100330000Y-105410000D01*
X100330000Y-105410000D02*
X100330000Y-100330000D01*
X100330000Y-91440000D02*
X100330000Y-86360000D01*
X125730000Y-91440000D02*
X100330000Y-91440000D01*
X125730000Y-86360000D02*
X125730000Y-91440000D01*
X100330000Y-86360000D02*
X125730000Y-86360000D01*
D15*
X201235000Y-64448571D02*
X202377857Y-64877142D01*
X201235000Y-65305714D01*
X200520714Y-64877142D02*
X199377857Y-64877142D01*
X196663571Y-65448571D02*
X197163571Y-64734285D01*
X197520714Y-65448571D02*
X197520714Y-63948571D01*
X196949285Y-63948571D01*
X196806428Y-64020000D01*
X196735000Y-64091428D01*
X196663571Y-64234285D01*
X196663571Y-64448571D01*
X196735000Y-64591428D01*
X196806428Y-64662857D01*
X196949285Y-64734285D01*
X197520714Y-64734285D01*
X196020714Y-64662857D02*
X195520714Y-64662857D01*
X195306428Y-65448571D02*
X196020714Y-65448571D01*
X196020714Y-63948571D01*
X195306428Y-63948571D01*
X194735000Y-65020000D02*
X194020714Y-65020000D01*
X194877857Y-65448571D02*
X194377857Y-63948571D01*
X193877857Y-65448571D01*
X192520714Y-65448571D02*
X193020714Y-64734285D01*
X193377857Y-65448571D02*
X193377857Y-63948571D01*
X192806428Y-63948571D01*
X192663571Y-64020000D01*
X192592142Y-64091428D01*
X192520714Y-64234285D01*
X192520714Y-64448571D01*
X192592142Y-64591428D01*
X192663571Y-64662857D01*
X192806428Y-64734285D01*
X193377857Y-64734285D01*
X201235000Y-115883571D02*
X202377857Y-116312142D01*
X201235000Y-116740714D01*
X200520714Y-116312142D02*
X199377857Y-116312142D01*
X196663571Y-116883571D02*
X197163571Y-116169285D01*
X197520714Y-116883571D02*
X197520714Y-115383571D01*
X196949285Y-115383571D01*
X196806428Y-115455000D01*
X196735000Y-115526428D01*
X196663571Y-115669285D01*
X196663571Y-115883571D01*
X196735000Y-116026428D01*
X196806428Y-116097857D01*
X196949285Y-116169285D01*
X197520714Y-116169285D01*
X196020714Y-116097857D02*
X195520714Y-116097857D01*
X195306428Y-116883571D02*
X196020714Y-116883571D01*
X196020714Y-115383571D01*
X195306428Y-115383571D01*
X194735000Y-116455000D02*
X194020714Y-116455000D01*
X194877857Y-116883571D02*
X194377857Y-115383571D01*
X193877857Y-116883571D01*
X192520714Y-116883571D02*
X193020714Y-116169285D01*
X193377857Y-116883571D02*
X193377857Y-115383571D01*
X192806428Y-115383571D01*
X192663571Y-115455000D01*
X192592142Y-115526428D01*
X192520714Y-115669285D01*
X192520714Y-115883571D01*
X192592142Y-116026428D01*
X192663571Y-116097857D01*
X192806428Y-116169285D01*
X193377857Y-116169285D01*
D11*
X172420000Y-105900000D02*
G75*
G03X171720000Y-106600000I0J-700000D01*
G01*
X173720000Y-106600000D02*
G75*
G03X173020000Y-105900000I-700000J0D01*
G01*
X173020000Y-110000000D02*
G75*
G03X173720000Y-109300000I0J700000D01*
G01*
X171720000Y-109300000D02*
G75*
G03X172420000Y-110000000I700000J0D01*
G01*
X171720000Y-106550000D02*
X171720000Y-109350000D01*
X172420000Y-110000000D02*
X173020000Y-110000000D01*
X173720000Y-109350000D02*
X173720000Y-106550000D01*
X173020000Y-105900000D02*
X172420000Y-105900000D01*
D12*
X141731904Y-93432380D02*
X141731904Y-94241904D01*
X141684285Y-94337142D01*
X141636666Y-94384761D01*
X141541428Y-94432380D01*
X141350952Y-94432380D01*
X141255714Y-94384761D01*
X141208095Y-94337142D01*
X141160476Y-94241904D01*
X141160476Y-93432380D01*
X140779523Y-93432380D02*
X140112857Y-93432380D01*
X140541428Y-94432380D01*
X168759047Y-76652380D02*
X169235238Y-76652380D01*
X169235238Y-75652380D01*
X168425714Y-76128571D02*
X168092380Y-76128571D01*
X167949523Y-76652380D02*
X168425714Y-76652380D01*
X168425714Y-75652380D01*
X167949523Y-75652380D01*
X167520952Y-76652380D02*
X167520952Y-75652380D01*
X167282857Y-75652380D01*
X167140000Y-75700000D01*
X167044761Y-75795238D01*
X166997142Y-75890476D01*
X166949523Y-76080952D01*
X166949523Y-76223809D01*
X166997142Y-76414285D01*
X167044761Y-76509523D01*
X167140000Y-76604761D01*
X167282857Y-76652380D01*
X167520952Y-76652380D01*
X165997142Y-76652380D02*
X166568571Y-76652380D01*
X166282857Y-76652380D02*
X166282857Y-75652380D01*
X166378095Y-75795238D01*
X166473333Y-75890476D01*
X166568571Y-75938095D01*
X141731904Y-81367380D02*
X141731904Y-82176904D01*
X141684285Y-82272142D01*
X141636666Y-82319761D01*
X141541428Y-82367380D01*
X141350952Y-82367380D01*
X141255714Y-82319761D01*
X141208095Y-82272142D01*
X141160476Y-82176904D01*
X141160476Y-81367380D01*
X140541428Y-81795952D02*
X140636666Y-81748333D01*
X140684285Y-81700714D01*
X140731904Y-81605476D01*
X140731904Y-81557857D01*
X140684285Y-81462619D01*
X140636666Y-81415000D01*
X140541428Y-81367380D01*
X140350952Y-81367380D01*
X140255714Y-81415000D01*
X140208095Y-81462619D01*
X140160476Y-81557857D01*
X140160476Y-81605476D01*
X140208095Y-81700714D01*
X140255714Y-81748333D01*
X140350952Y-81795952D01*
X140541428Y-81795952D01*
X140636666Y-81843571D01*
X140684285Y-81891190D01*
X140731904Y-81986428D01*
X140731904Y-82176904D01*
X140684285Y-82272142D01*
X140636666Y-82319761D01*
X140541428Y-82367380D01*
X140350952Y-82367380D01*
X140255714Y-82319761D01*
X140208095Y-82272142D01*
X140160476Y-82176904D01*
X140160476Y-81986428D01*
X140208095Y-81891190D01*
X140255714Y-81843571D01*
X140350952Y-81795952D01*
X188086904Y-104227380D02*
X188086904Y-105036904D01*
X188039285Y-105132142D01*
X187991666Y-105179761D01*
X187896428Y-105227380D01*
X187705952Y-105227380D01*
X187610714Y-105179761D01*
X187563095Y-105132142D01*
X187515476Y-105036904D01*
X187515476Y-104227380D01*
X186515476Y-105227380D02*
X187086904Y-105227380D01*
X186801190Y-105227380D02*
X186801190Y-104227380D01*
X186896428Y-104370238D01*
X186991666Y-104465476D01*
X187086904Y-104513095D01*
X173553333Y-102322380D02*
X173553333Y-103036666D01*
X173600952Y-103179523D01*
X173696190Y-103274761D01*
X173839047Y-103322380D01*
X173934285Y-103322380D01*
X173077142Y-103322380D02*
X173077142Y-102322380D01*
X172696190Y-102322380D01*
X172600952Y-102370000D01*
X172553333Y-102417619D01*
X172505714Y-102512857D01*
X172505714Y-102655714D01*
X172553333Y-102750952D01*
X172600952Y-102798571D01*
X172696190Y-102846190D01*
X173077142Y-102846190D01*
X171553333Y-103322380D02*
X172124761Y-103322380D01*
X171839047Y-103322380D02*
X171839047Y-102322380D01*
X171934285Y-102465238D01*
X172029523Y-102560476D01*
X172124761Y-102608095D01*
X172434285Y-105227380D02*
X173005714Y-105227380D01*
X172720000Y-105227380D02*
X172720000Y-104227380D01*
X172815238Y-104370238D01*
X172910476Y-104465476D01*
X173005714Y-104513095D01*
X173053333Y-110577380D02*
X172434285Y-110577380D01*
X172767619Y-110958333D01*
X172624761Y-110958333D01*
X172529523Y-111005952D01*
X172481904Y-111053571D01*
X172434285Y-111148809D01*
X172434285Y-111386904D01*
X172481904Y-111482142D01*
X172529523Y-111529761D01*
X172624761Y-111577380D01*
X172910476Y-111577380D01*
X173005714Y-111529761D01*
X173053333Y-111482142D01*
X141731904Y-104862380D02*
X141731904Y-105671904D01*
X141684285Y-105767142D01*
X141636666Y-105814761D01*
X141541428Y-105862380D01*
X141350952Y-105862380D01*
X141255714Y-105814761D01*
X141208095Y-105767142D01*
X141160476Y-105671904D01*
X141160476Y-104862380D01*
X140255714Y-104862380D02*
X140446190Y-104862380D01*
X140541428Y-104910000D01*
X140589047Y-104957619D01*
X140684285Y-105100476D01*
X140731904Y-105290952D01*
X140731904Y-105671904D01*
X140684285Y-105767142D01*
X140636666Y-105814761D01*
X140541428Y-105862380D01*
X140350952Y-105862380D01*
X140255714Y-105814761D01*
X140208095Y-105767142D01*
X140160476Y-105671904D01*
X140160476Y-105433809D01*
X140208095Y-105338571D01*
X140255714Y-105290952D01*
X140350952Y-105243333D01*
X140541428Y-105243333D01*
X140636666Y-105290952D01*
X140684285Y-105338571D01*
X140731904Y-105433809D01*
X161139047Y-76652380D02*
X161615238Y-76652380D01*
X161615238Y-75652380D01*
X160805714Y-76128571D02*
X160472380Y-76128571D01*
X160329523Y-76652380D02*
X160805714Y-76652380D01*
X160805714Y-75652380D01*
X160329523Y-75652380D01*
X159900952Y-76652380D02*
X159900952Y-75652380D01*
X159662857Y-75652380D01*
X159520000Y-75700000D01*
X159424761Y-75795238D01*
X159377142Y-75890476D01*
X159329523Y-76080952D01*
X159329523Y-76223809D01*
X159377142Y-76414285D01*
X159424761Y-76509523D01*
X159520000Y-76604761D01*
X159662857Y-76652380D01*
X159900952Y-76652380D01*
X158948571Y-75747619D02*
X158900952Y-75700000D01*
X158805714Y-75652380D01*
X158567619Y-75652380D01*
X158472380Y-75700000D01*
X158424761Y-75747619D01*
X158377142Y-75842857D01*
X158377142Y-75938095D01*
X158424761Y-76080952D01*
X158996190Y-76652380D01*
X158377142Y-76652380D01*
X196976904Y-90257380D02*
X196976904Y-91066904D01*
X196929285Y-91162142D01*
X196881666Y-91209761D01*
X196786428Y-91257380D01*
X196595952Y-91257380D01*
X196500714Y-91209761D01*
X196453095Y-91162142D01*
X196405476Y-91066904D01*
X196405476Y-90257380D01*
X195976904Y-90352619D02*
X195929285Y-90305000D01*
X195834047Y-90257380D01*
X195595952Y-90257380D01*
X195500714Y-90305000D01*
X195453095Y-90352619D01*
X195405476Y-90447857D01*
X195405476Y-90543095D01*
X195453095Y-90685952D01*
X196024523Y-91257380D01*
X195405476Y-91257380D01*
X199516904Y-87717380D02*
X199516904Y-88526904D01*
X199469285Y-88622142D01*
X199421666Y-88669761D01*
X199326428Y-88717380D01*
X199135952Y-88717380D01*
X199040714Y-88669761D01*
X198993095Y-88622142D01*
X198945476Y-88526904D01*
X198945476Y-87717380D01*
X198421666Y-88717380D02*
X198231190Y-88717380D01*
X198135952Y-88669761D01*
X198088333Y-88622142D01*
X197993095Y-88479285D01*
X197945476Y-88288809D01*
X197945476Y-87907857D01*
X197993095Y-87812619D01*
X198040714Y-87765000D01*
X198135952Y-87717380D01*
X198326428Y-87717380D01*
X198421666Y-87765000D01*
X198469285Y-87812619D01*
X198516904Y-87907857D01*
X198516904Y-88145952D01*
X198469285Y-88241190D01*
X198421666Y-88288809D01*
X198326428Y-88336428D01*
X198135952Y-88336428D01*
X198040714Y-88288809D01*
X197993095Y-88241190D01*
X197945476Y-88145952D01*
X196976904Y-75017380D02*
X196976904Y-75826904D01*
X196929285Y-75922142D01*
X196881666Y-75969761D01*
X196786428Y-76017380D01*
X196595952Y-76017380D01*
X196500714Y-75969761D01*
X196453095Y-75922142D01*
X196405476Y-75826904D01*
X196405476Y-75017380D01*
X196024523Y-75017380D02*
X195405476Y-75017380D01*
X195738809Y-75398333D01*
X195595952Y-75398333D01*
X195500714Y-75445952D01*
X195453095Y-75493571D01*
X195405476Y-75588809D01*
X195405476Y-75826904D01*
X195453095Y-75922142D01*
X195500714Y-75969761D01*
X195595952Y-76017380D01*
X195881666Y-76017380D01*
X195976904Y-75969761D01*
X196024523Y-75922142D01*
X199993095Y-77557380D02*
X199993095Y-78366904D01*
X199945476Y-78462142D01*
X199897857Y-78509761D01*
X199802619Y-78557380D01*
X199612142Y-78557380D01*
X199516904Y-78509761D01*
X199469285Y-78462142D01*
X199421666Y-78366904D01*
X199421666Y-77557380D01*
X198421666Y-78557380D02*
X198993095Y-78557380D01*
X198707380Y-78557380D02*
X198707380Y-77557380D01*
X198802619Y-77700238D01*
X198897857Y-77795476D01*
X198993095Y-77843095D01*
X197802619Y-77557380D02*
X197707380Y-77557380D01*
X197612142Y-77605000D01*
X197564523Y-77652619D01*
X197516904Y-77747857D01*
X197469285Y-77938333D01*
X197469285Y-78176428D01*
X197516904Y-78366904D01*
X197564523Y-78462142D01*
X197612142Y-78509761D01*
X197707380Y-78557380D01*
X197802619Y-78557380D01*
X197897857Y-78509761D01*
X197945476Y-78462142D01*
X197993095Y-78366904D01*
X198040714Y-78176428D01*
X198040714Y-77938333D01*
X197993095Y-77747857D01*
X197945476Y-77652619D01*
X197897857Y-77605000D01*
X197802619Y-77557380D01*
X113156904Y-88352380D02*
X113156904Y-89161904D01*
X113109285Y-89257142D01*
X113061666Y-89304761D01*
X112966428Y-89352380D01*
X112775952Y-89352380D01*
X112680714Y-89304761D01*
X112633095Y-89257142D01*
X112585476Y-89161904D01*
X112585476Y-88352380D01*
X111633095Y-88352380D02*
X112109285Y-88352380D01*
X112156904Y-88828571D01*
X112109285Y-88780952D01*
X112014047Y-88733333D01*
X111775952Y-88733333D01*
X111680714Y-88780952D01*
X111633095Y-88828571D01*
X111585476Y-88923809D01*
X111585476Y-89161904D01*
X111633095Y-89257142D01*
X111680714Y-89304761D01*
X111775952Y-89352380D01*
X112014047Y-89352380D01*
X112109285Y-89304761D01*
X112156904Y-89257142D01*
X113791904Y-102322380D02*
X113791904Y-103131904D01*
X113744285Y-103227142D01*
X113696666Y-103274761D01*
X113601428Y-103322380D01*
X113410952Y-103322380D01*
X113315714Y-103274761D01*
X113268095Y-103227142D01*
X113220476Y-103131904D01*
X113220476Y-102322380D01*
X112315714Y-102655714D02*
X112315714Y-103322380D01*
X112553809Y-102274761D02*
X112791904Y-102989047D01*
X112172857Y-102989047D01*
M02*
