M48
; DRILL file {KiCad (5.1.4)-1} date 7/04/2022 10:43:40 PM
; FORMAT={-:-/ absolute / metric / decimal}
; #@! TF.CreationDate,2022-04-07T22:43:40+09:30
; #@! TF.GenerationSoftware,Kicad,Pcbnew,(5.1.4)-1
FMAT,2
METRIC
T1C0.635
T2C0.800
T3C0.900
%
G90
G05
T1
X102.235Y-89.535
X102.235Y-100.965
X103.505Y-90.805
X105.41Y-94.615
X106.68Y-104.14
X109.855Y-104.775
X111.76Y-104.775
X113.665Y-89.535
X114.935Y-68.58
X115.57Y-90.17
X116.84Y-104.775
X117.475Y-90.17
X120.015Y-88.9
X121.285Y-90.17
X121.92Y-110.49
X123.19Y-90.17
X123.825Y-110.49
X124.46Y-95.885
X125.73Y-110.49
X126.365Y-104.14
X127.0Y-69.85
X127.0Y-101.6
X127.635Y-110.49
X135.89Y-83.185
X135.89Y-107.315
X140.97Y-83.185
X155.575Y-114.3
X156.845Y-75.565
X160.02Y-76.835
X162.56Y-75.565
X163.83Y-68.58
X165.735Y-113.03
X167.64Y-112.395
X169.545Y-111.76
X170.815Y-69.85
X173.355Y-100.965
X173.355Y-113.665
X174.625Y-89.535
X175.26Y-103.505
X175.26Y-106.68
X175.895Y-77.47
X177.165Y-114.3
X179.705Y-114.3
X182.245Y-99.695
X182.245Y-107.315
X184.785Y-107.315
X184.785Y-116.205
X187.325Y-76.835
X187.325Y-107.315
X195.58Y-112.395
X196.215Y-110.49
X198.755Y-104.775
T2
X101.6Y-66.04
X101.6Y-73.66
X104.14Y-66.04
X104.14Y-73.66
X106.68Y-66.04
X106.68Y-73.66
X109.22Y-66.04
X109.22Y-73.66
X111.76Y-66.04
X111.76Y-73.66
X133.35Y-78.74
X133.35Y-86.36
X135.89Y-78.74
X135.89Y-86.36
X138.43Y-78.74
X138.43Y-86.36
X140.97Y-78.74
X140.97Y-86.36
X143.51Y-78.74
X143.51Y-86.36
X146.05Y-78.74
X146.05Y-86.36
X148.59Y-78.74
X148.59Y-86.36
X130.175Y-101.6
X130.175Y-106.68
X178.435Y-70.485
X178.435Y-78.105
X180.975Y-70.485
X180.975Y-78.105
X183.515Y-70.485
X183.515Y-78.105
X186.055Y-70.485
X186.055Y-78.105
X188.595Y-70.485
X188.595Y-78.105
X191.135Y-70.485
X191.135Y-78.105
X193.675Y-70.485
X193.675Y-78.105
X196.215Y-70.485
X196.215Y-78.105
X165.1Y-85.725
X165.1Y-88.265
X165.1Y-90.805
X165.1Y-93.345
X165.1Y-95.885
X165.1Y-98.425
X165.1Y-100.965
X165.1Y-103.505
X133.35Y-101.6
X133.35Y-109.22
X135.89Y-101.6
X135.89Y-109.22
X138.43Y-101.6
X138.43Y-109.22
X140.97Y-101.6
X140.97Y-109.22
X143.51Y-101.6
X143.51Y-109.22
X146.05Y-101.6
X146.05Y-109.22
X148.59Y-101.6
X148.59Y-109.22
X196.215Y-83.185
X201.295Y-83.185
X139.7Y-71.12
X139.7Y-73.66
X178.435Y-88.265
X178.435Y-95.885
X180.975Y-88.265
X180.975Y-95.885
X183.515Y-88.265
X183.515Y-95.885
X186.055Y-88.265
X186.055Y-95.885
X188.595Y-88.265
X188.595Y-95.885
X191.135Y-88.265
X191.135Y-95.885
X193.675Y-88.265
X193.675Y-95.885
X196.215Y-88.265
X196.215Y-95.885
X133.35Y-90.17
X133.35Y-97.79
X135.89Y-90.17
X135.89Y-97.79
X138.43Y-90.17
X138.43Y-97.79
X140.97Y-90.17
X140.97Y-97.79
X143.51Y-90.17
X143.51Y-97.79
X146.05Y-90.17
X146.05Y-97.79
X148.59Y-90.17
X148.59Y-97.79
X101.6Y-85.09
X101.6Y-92.71
X104.14Y-85.09
X104.14Y-92.71
X106.68Y-85.09
X106.68Y-92.71
X109.22Y-85.09
X109.22Y-92.71
X111.76Y-85.09
X111.76Y-92.71
X114.3Y-85.09
X114.3Y-92.71
X116.84Y-85.09
X116.84Y-92.71
X119.38Y-85.09
X119.38Y-92.71
X121.92Y-85.09
X121.92Y-92.71
X124.46Y-85.09
X124.46Y-92.71
X156.21Y-85.725
X156.21Y-88.265
X156.21Y-90.805
X156.21Y-93.345
X156.21Y-95.885
X156.21Y-98.425
X156.21Y-100.965
X156.21Y-103.505
X165.1Y-66.04
X165.1Y-73.66
X166.37Y-68.58
X166.37Y-71.12
X167.64Y-66.04
X167.64Y-73.66
X168.91Y-68.58
X168.91Y-71.12
X170.18Y-66.04
X170.18Y-73.66
X130.175Y-90.17
X130.175Y-95.25
X175.895Y-85.725
X175.895Y-93.345
X178.435Y-85.725
X178.435Y-93.345
X180.975Y-85.725
X180.975Y-93.345
X183.515Y-85.725
X183.515Y-93.345
X186.055Y-85.725
X186.055Y-93.345
X188.595Y-85.725
X188.595Y-93.345
X191.135Y-85.725
X191.135Y-93.345
X193.675Y-85.725
X193.675Y-93.345
X196.215Y-85.725
X196.215Y-93.345
X198.755Y-85.725
X198.755Y-93.345
X101.6Y-96.52
X106.68Y-96.52
X151.13Y-71.12
X151.13Y-73.66
X201.295Y-102.87
X201.295Y-107.95
X157.48Y-66.04
X157.48Y-73.66
X158.75Y-68.58
X158.75Y-71.12
X160.02Y-66.04
X160.02Y-73.66
X161.29Y-68.58
X161.29Y-71.12
X162.56Y-66.04
X162.56Y-73.66
X115.57Y-78.105
X118.11Y-78.105
X120.65Y-78.105
X123.19Y-78.105
X125.73Y-78.105
X128.27Y-78.105
X160.655Y-85.725
X160.655Y-88.265
X160.655Y-90.805
X160.655Y-93.345
X160.655Y-95.885
X160.655Y-98.425
X160.655Y-100.965
X160.655Y-103.505
X130.175Y-81.28
X130.175Y-86.36
X175.895Y-67.945
X186.055Y-67.945
X116.84Y-66.04
X116.84Y-73.66
X119.38Y-66.04
X119.38Y-73.66
X121.92Y-66.04
X121.92Y-73.66
X124.46Y-66.04
X124.46Y-73.66
X127.0Y-66.04
X127.0Y-73.66
X175.895Y-100.965
X175.895Y-108.585
X178.435Y-100.965
X178.435Y-108.585
X180.975Y-100.965
X180.975Y-108.585
X183.515Y-100.965
X183.515Y-108.585
X186.055Y-100.965
X186.055Y-108.585
X188.595Y-100.965
X188.595Y-108.585
X191.135Y-100.965
X191.135Y-108.585
X193.675Y-100.965
X193.675Y-108.585
X196.215Y-100.965
X196.215Y-108.585
X198.755Y-100.965
X198.755Y-108.585
X101.6Y-82.55
X106.68Y-82.55
X175.895Y-73.025
X175.895Y-80.645
X178.435Y-73.025
X178.435Y-80.645
X180.975Y-73.025
X180.975Y-80.645
X183.515Y-73.025
X183.515Y-80.645
X186.055Y-73.025
X186.055Y-80.645
X188.595Y-73.025
X188.595Y-80.645
X191.135Y-73.025
X191.135Y-80.645
X193.675Y-73.025
X193.675Y-80.645
X196.215Y-73.025
X196.215Y-80.645
X198.755Y-73.025
X198.755Y-80.645
X145.415Y-71.12
X145.415Y-73.66
X196.215Y-98.425
X201.295Y-98.425
X133.985Y-71.12
X133.985Y-73.66
X100.33Y-78.105
X102.87Y-78.105
X105.41Y-78.105
X107.95Y-78.105
X110.49Y-78.105
X113.03Y-78.105
X169.545Y-85.725
X169.545Y-88.265
X169.545Y-90.805
X169.545Y-93.345
X169.545Y-95.885
X169.545Y-98.425
X169.545Y-100.965
X169.545Y-103.505
X99.06Y-114.3
X104.14Y-114.3
X101.6Y-99.06
X101.6Y-106.68
X104.14Y-99.06
X104.14Y-106.68
X106.68Y-99.06
X106.68Y-106.68
X109.22Y-99.06
X109.22Y-106.68
X111.76Y-99.06
X111.76Y-106.68
X114.3Y-99.06
X114.3Y-106.68
X116.84Y-99.06
X116.84Y-106.68
X119.38Y-99.06
X119.38Y-106.68
X121.92Y-99.06
X121.92Y-106.68
X124.46Y-99.06
X124.46Y-106.68
T3
X145.415Y-66.04
X145.415Y-68.58
X133.985Y-66.04
X133.985Y-68.58
X151.13Y-66.04
X151.13Y-68.58
X139.7Y-66.04
X139.7Y-68.58
T0
M30
