G04 #@! TF.GenerationSoftware,KiCad,Pcbnew,(5.1.4)-1*
G04 #@! TF.CreationDate,2022-04-07T22:43:35+09:30*
G04 #@! TF.ProjectId,ISA_POST_Card_v5.1,4953415f-504f-4535-945f-436172645f76,1*
G04 #@! TF.SameCoordinates,Original*
G04 #@! TF.FileFunction,Legend,Top*
G04 #@! TF.FilePolarity,Positive*
%FSLAX46Y46*%
G04 Gerber Fmt 4.6, Leading zero omitted, Abs format (unit mm)*
G04 Created by KiCad (PCBNEW (5.1.4)-1) date 2022-04-07 22:43:35*
%MOMM*%
%LPD*%
G04 APERTURE LIST*
%ADD10C,0.200000*%
%ADD11C,0.150000*%
%ADD12C,0.120000*%
%ADD13C,0.300000*%
%ADD14C,0.100000*%
G04 APERTURE END LIST*
D10*
X123921190Y-117165380D02*
X123921190Y-116165380D01*
X124302142Y-116165380D01*
X124397380Y-116213000D01*
X124445000Y-116260619D01*
X124492619Y-116355857D01*
X124492619Y-116498714D01*
X124445000Y-116593952D01*
X124397380Y-116641571D01*
X124302142Y-116689190D01*
X123921190Y-116689190D01*
X125111666Y-116165380D02*
X125302142Y-116165380D01*
X125397380Y-116213000D01*
X125492619Y-116308238D01*
X125540238Y-116498714D01*
X125540238Y-116832047D01*
X125492619Y-117022523D01*
X125397380Y-117117761D01*
X125302142Y-117165380D01*
X125111666Y-117165380D01*
X125016428Y-117117761D01*
X124921190Y-117022523D01*
X124873571Y-116832047D01*
X124873571Y-116498714D01*
X124921190Y-116308238D01*
X125016428Y-116213000D01*
X125111666Y-116165380D01*
X125968809Y-117165380D02*
X125968809Y-116165380D01*
X126349761Y-116165380D01*
X126445000Y-116213000D01*
X126492619Y-116260619D01*
X126540238Y-116355857D01*
X126540238Y-116498714D01*
X126492619Y-116593952D01*
X126445000Y-116641571D01*
X126349761Y-116689190D01*
X125968809Y-116689190D01*
X126968809Y-116165380D02*
X126968809Y-116974904D01*
X127016428Y-117070142D01*
X127064047Y-117117761D01*
X127159285Y-117165380D01*
X127349761Y-117165380D01*
X127445000Y-117117761D01*
X127492619Y-117070142D01*
X127540238Y-116974904D01*
X127540238Y-116165380D01*
X128492619Y-117165380D02*
X128016428Y-117165380D01*
X128016428Y-116165380D01*
X128778333Y-116879666D02*
X129254523Y-116879666D01*
X128683095Y-117165380D02*
X129016428Y-116165380D01*
X129349761Y-117165380D01*
X129540238Y-116165380D02*
X130111666Y-116165380D01*
X129825952Y-117165380D02*
X129825952Y-116165380D01*
X130445000Y-116641571D02*
X130778333Y-116641571D01*
X130921190Y-117165380D02*
X130445000Y-117165380D01*
X130445000Y-116165380D01*
X130921190Y-116165380D01*
X131968809Y-116165380D02*
X132540238Y-116165380D01*
X132254523Y-117165380D02*
X132254523Y-116165380D01*
X132873571Y-117165380D02*
X132873571Y-116165380D01*
X132873571Y-116641571D02*
X133445000Y-116641571D01*
X133445000Y-117165380D02*
X133445000Y-116165380D01*
X133921190Y-117165380D02*
X133921190Y-116165380D01*
X134349761Y-117117761D02*
X134492619Y-117165380D01*
X134730714Y-117165380D01*
X134825952Y-117117761D01*
X134873571Y-117070142D01*
X134921190Y-116974904D01*
X134921190Y-116879666D01*
X134873571Y-116784428D01*
X134825952Y-116736809D01*
X134730714Y-116689190D01*
X134540238Y-116641571D01*
X134445000Y-116593952D01*
X134397380Y-116546333D01*
X134349761Y-116451095D01*
X134349761Y-116355857D01*
X134397380Y-116260619D01*
X134445000Y-116213000D01*
X134540238Y-116165380D01*
X134778333Y-116165380D01*
X134921190Y-116213000D01*
X136064047Y-117117761D02*
X136206904Y-117165380D01*
X136445000Y-117165380D01*
X136540238Y-117117761D01*
X136587857Y-117070142D01*
X136635476Y-116974904D01*
X136635476Y-116879666D01*
X136587857Y-116784428D01*
X136540238Y-116736809D01*
X136445000Y-116689190D01*
X136254523Y-116641571D01*
X136159285Y-116593952D01*
X136111666Y-116546333D01*
X136064047Y-116451095D01*
X136064047Y-116355857D01*
X136111666Y-116260619D01*
X136159285Y-116213000D01*
X136254523Y-116165380D01*
X136492619Y-116165380D01*
X136635476Y-116213000D01*
X137064047Y-117165380D02*
X137064047Y-116165380D01*
X137540238Y-117165380D02*
X137540238Y-116165380D01*
X137778333Y-116165380D01*
X137921190Y-116213000D01*
X138016428Y-116308238D01*
X138064047Y-116403476D01*
X138111666Y-116593952D01*
X138111666Y-116736809D01*
X138064047Y-116927285D01*
X138016428Y-117022523D01*
X137921190Y-117117761D01*
X137778333Y-117165380D01*
X137540238Y-117165380D01*
X138540238Y-116641571D02*
X138873571Y-116641571D01*
X139016428Y-117165380D02*
X138540238Y-117165380D01*
X138540238Y-116165380D01*
X139016428Y-116165380D01*
D11*
X114826071Y-94067380D02*
X115016547Y-94067380D01*
X115111785Y-94115000D01*
X115207023Y-94210238D01*
X115254642Y-94400714D01*
X115254642Y-94734047D01*
X115207023Y-94924523D01*
X115111785Y-95019761D01*
X115016547Y-95067380D01*
X114826071Y-95067380D01*
X114730833Y-95019761D01*
X114635595Y-94924523D01*
X114587976Y-94734047D01*
X114587976Y-94400714D01*
X114635595Y-94210238D01*
X114730833Y-94115000D01*
X114826071Y-94067380D01*
X116254642Y-95067380D02*
X115921309Y-94591190D01*
X115683214Y-95067380D02*
X115683214Y-94067380D01*
X116064166Y-94067380D01*
X116159404Y-94115000D01*
X116207023Y-94162619D01*
X116254642Y-94257857D01*
X116254642Y-94400714D01*
X116207023Y-94495952D01*
X116159404Y-94543571D01*
X116064166Y-94591190D01*
X115683214Y-94591190D01*
X117349880Y-94067380D02*
X118016547Y-94067380D01*
X117587976Y-95067380D01*
X118826071Y-94400714D02*
X118826071Y-95067380D01*
X118587976Y-94019761D02*
X118349880Y-94734047D01*
X118968928Y-94734047D01*
X119349880Y-95067380D02*
X119349880Y-94067380D01*
X119349880Y-94543571D02*
X119921309Y-94543571D01*
X119921309Y-95067380D02*
X119921309Y-94067380D01*
X120968928Y-94972142D02*
X120921309Y-95019761D01*
X120778452Y-95067380D01*
X120683214Y-95067380D01*
X120540357Y-95019761D01*
X120445119Y-94924523D01*
X120397500Y-94829285D01*
X120349880Y-94638809D01*
X120349880Y-94495952D01*
X120397500Y-94305476D01*
X120445119Y-94210238D01*
X120540357Y-94115000D01*
X120683214Y-94067380D01*
X120778452Y-94067380D01*
X120921309Y-94115000D01*
X120968928Y-94162619D01*
X121254642Y-94067380D02*
X121826071Y-94067380D01*
X121540357Y-95067380D02*
X121540357Y-94067380D01*
X122587976Y-94067380D02*
X122397500Y-94067380D01*
X122302261Y-94115000D01*
X122254642Y-94162619D01*
X122159404Y-94305476D01*
X122111785Y-94495952D01*
X122111785Y-94876904D01*
X122159404Y-94972142D01*
X122207023Y-95019761D01*
X122302261Y-95067380D01*
X122492738Y-95067380D01*
X122587976Y-95019761D01*
X122635595Y-94972142D01*
X122683214Y-94876904D01*
X122683214Y-94638809D01*
X122635595Y-94543571D01*
X122587976Y-94495952D01*
X122492738Y-94448333D01*
X122302261Y-94448333D01*
X122207023Y-94495952D01*
X122159404Y-94543571D01*
X122111785Y-94638809D01*
X123254642Y-94495952D02*
X123159404Y-94448333D01*
X123111785Y-94400714D01*
X123064166Y-94305476D01*
X123064166Y-94257857D01*
X123111785Y-94162619D01*
X123159404Y-94115000D01*
X123254642Y-94067380D01*
X123445119Y-94067380D01*
X123540357Y-94115000D01*
X123587976Y-94162619D01*
X123635595Y-94257857D01*
X123635595Y-94305476D01*
X123587976Y-94400714D01*
X123540357Y-94448333D01*
X123445119Y-94495952D01*
X123254642Y-94495952D01*
X123159404Y-94543571D01*
X123111785Y-94591190D01*
X123064166Y-94686428D01*
X123064166Y-94876904D01*
X123111785Y-94972142D01*
X123159404Y-95019761D01*
X123254642Y-95067380D01*
X123445119Y-95067380D01*
X123540357Y-95019761D01*
X123587976Y-94972142D01*
X123635595Y-94876904D01*
X123635595Y-94686428D01*
X123587976Y-94591190D01*
X123540357Y-94543571D01*
X123445119Y-94495952D01*
X124207023Y-94495952D02*
X124111785Y-94448333D01*
X124064166Y-94400714D01*
X124016547Y-94305476D01*
X124016547Y-94257857D01*
X124064166Y-94162619D01*
X124111785Y-94115000D01*
X124207023Y-94067380D01*
X124397500Y-94067380D01*
X124492738Y-94115000D01*
X124540357Y-94162619D01*
X124587976Y-94257857D01*
X124587976Y-94305476D01*
X124540357Y-94400714D01*
X124492738Y-94448333D01*
X124397500Y-94495952D01*
X124207023Y-94495952D01*
X124111785Y-94543571D01*
X124064166Y-94591190D01*
X124016547Y-94686428D01*
X124016547Y-94876904D01*
X124064166Y-94972142D01*
X124111785Y-95019761D01*
X124207023Y-95067380D01*
X124397500Y-95067380D01*
X124492738Y-95019761D01*
X124540357Y-94972142D01*
X124587976Y-94876904D01*
X124587976Y-94686428D01*
X124540357Y-94591190D01*
X124492738Y-94543571D01*
X124397500Y-94495952D01*
X114826071Y-108037380D02*
X115016547Y-108037380D01*
X115111785Y-108085000D01*
X115207023Y-108180238D01*
X115254642Y-108370714D01*
X115254642Y-108704047D01*
X115207023Y-108894523D01*
X115111785Y-108989761D01*
X115016547Y-109037380D01*
X114826071Y-109037380D01*
X114730833Y-108989761D01*
X114635595Y-108894523D01*
X114587976Y-108704047D01*
X114587976Y-108370714D01*
X114635595Y-108180238D01*
X114730833Y-108085000D01*
X114826071Y-108037380D01*
X116254642Y-109037380D02*
X115921309Y-108561190D01*
X115683214Y-109037380D02*
X115683214Y-108037380D01*
X116064166Y-108037380D01*
X116159404Y-108085000D01*
X116207023Y-108132619D01*
X116254642Y-108227857D01*
X116254642Y-108370714D01*
X116207023Y-108465952D01*
X116159404Y-108513571D01*
X116064166Y-108561190D01*
X115683214Y-108561190D01*
X117349880Y-108037380D02*
X118016547Y-108037380D01*
X117587976Y-109037380D01*
X118826071Y-108370714D02*
X118826071Y-109037380D01*
X118587976Y-107989761D02*
X118349880Y-108704047D01*
X118968928Y-108704047D01*
X119349880Y-109037380D02*
X119349880Y-108037380D01*
X119349880Y-108513571D02*
X119921309Y-108513571D01*
X119921309Y-109037380D02*
X119921309Y-108037380D01*
X120968928Y-108942142D02*
X120921309Y-108989761D01*
X120778452Y-109037380D01*
X120683214Y-109037380D01*
X120540357Y-108989761D01*
X120445119Y-108894523D01*
X120397500Y-108799285D01*
X120349880Y-108608809D01*
X120349880Y-108465952D01*
X120397500Y-108275476D01*
X120445119Y-108180238D01*
X120540357Y-108085000D01*
X120683214Y-108037380D01*
X120778452Y-108037380D01*
X120921309Y-108085000D01*
X120968928Y-108132619D01*
X121254642Y-108037380D02*
X121826071Y-108037380D01*
X121540357Y-109037380D02*
X121540357Y-108037380D01*
X122587976Y-108037380D02*
X122397500Y-108037380D01*
X122302261Y-108085000D01*
X122254642Y-108132619D01*
X122159404Y-108275476D01*
X122111785Y-108465952D01*
X122111785Y-108846904D01*
X122159404Y-108942142D01*
X122207023Y-108989761D01*
X122302261Y-109037380D01*
X122492738Y-109037380D01*
X122587976Y-108989761D01*
X122635595Y-108942142D01*
X122683214Y-108846904D01*
X122683214Y-108608809D01*
X122635595Y-108513571D01*
X122587976Y-108465952D01*
X122492738Y-108418333D01*
X122302261Y-108418333D01*
X122207023Y-108465952D01*
X122159404Y-108513571D01*
X122111785Y-108608809D01*
X123254642Y-108465952D02*
X123159404Y-108418333D01*
X123111785Y-108370714D01*
X123064166Y-108275476D01*
X123064166Y-108227857D01*
X123111785Y-108132619D01*
X123159404Y-108085000D01*
X123254642Y-108037380D01*
X123445119Y-108037380D01*
X123540357Y-108085000D01*
X123587976Y-108132619D01*
X123635595Y-108227857D01*
X123635595Y-108275476D01*
X123587976Y-108370714D01*
X123540357Y-108418333D01*
X123445119Y-108465952D01*
X123254642Y-108465952D01*
X123159404Y-108513571D01*
X123111785Y-108561190D01*
X123064166Y-108656428D01*
X123064166Y-108846904D01*
X123111785Y-108942142D01*
X123159404Y-108989761D01*
X123254642Y-109037380D01*
X123445119Y-109037380D01*
X123540357Y-108989761D01*
X123587976Y-108942142D01*
X123635595Y-108846904D01*
X123635595Y-108656428D01*
X123587976Y-108561190D01*
X123540357Y-108513571D01*
X123445119Y-108465952D01*
X124207023Y-108465952D02*
X124111785Y-108418333D01*
X124064166Y-108370714D01*
X124016547Y-108275476D01*
X124016547Y-108227857D01*
X124064166Y-108132619D01*
X124111785Y-108085000D01*
X124207023Y-108037380D01*
X124397500Y-108037380D01*
X124492738Y-108085000D01*
X124540357Y-108132619D01*
X124587976Y-108227857D01*
X124587976Y-108275476D01*
X124540357Y-108370714D01*
X124492738Y-108418333D01*
X124397500Y-108465952D01*
X124207023Y-108465952D01*
X124111785Y-108513571D01*
X124064166Y-108561190D01*
X124016547Y-108656428D01*
X124016547Y-108846904D01*
X124064166Y-108942142D01*
X124111785Y-108989761D01*
X124207023Y-109037380D01*
X124397500Y-109037380D01*
X124492738Y-108989761D01*
X124540357Y-108942142D01*
X124587976Y-108846904D01*
X124587976Y-108656428D01*
X124540357Y-108561190D01*
X124492738Y-108513571D01*
X124397500Y-108465952D01*
X180231071Y-111212380D02*
X180421547Y-111212380D01*
X180516785Y-111260000D01*
X180612023Y-111355238D01*
X180659642Y-111545714D01*
X180659642Y-111879047D01*
X180612023Y-112069523D01*
X180516785Y-112164761D01*
X180421547Y-112212380D01*
X180231071Y-112212380D01*
X180135833Y-112164761D01*
X180040595Y-112069523D01*
X179992976Y-111879047D01*
X179992976Y-111545714D01*
X180040595Y-111355238D01*
X180135833Y-111260000D01*
X180231071Y-111212380D01*
X181659642Y-112212380D02*
X181326309Y-111736190D01*
X181088214Y-112212380D02*
X181088214Y-111212380D01*
X181469166Y-111212380D01*
X181564404Y-111260000D01*
X181612023Y-111307619D01*
X181659642Y-111402857D01*
X181659642Y-111545714D01*
X181612023Y-111640952D01*
X181564404Y-111688571D01*
X181469166Y-111736190D01*
X181088214Y-111736190D01*
X182754880Y-111212380D02*
X183421547Y-111212380D01*
X182992976Y-112212380D01*
X184231071Y-111545714D02*
X184231071Y-112212380D01*
X183992976Y-111164761D02*
X183754880Y-111879047D01*
X184373928Y-111879047D01*
X185231071Y-112212380D02*
X184754880Y-112212380D01*
X184754880Y-111212380D01*
X185516785Y-112164761D02*
X185659642Y-112212380D01*
X185897738Y-112212380D01*
X185992976Y-112164761D01*
X186040595Y-112117142D01*
X186088214Y-112021904D01*
X186088214Y-111926666D01*
X186040595Y-111831428D01*
X185992976Y-111783809D01*
X185897738Y-111736190D01*
X185707261Y-111688571D01*
X185612023Y-111640952D01*
X185564404Y-111593333D01*
X185516785Y-111498095D01*
X185516785Y-111402857D01*
X185564404Y-111307619D01*
X185612023Y-111260000D01*
X185707261Y-111212380D01*
X185945357Y-111212380D01*
X186088214Y-111260000D01*
X186421547Y-111212380D02*
X187040595Y-111212380D01*
X186707261Y-111593333D01*
X186850119Y-111593333D01*
X186945357Y-111640952D01*
X186992976Y-111688571D01*
X187040595Y-111783809D01*
X187040595Y-112021904D01*
X186992976Y-112117142D01*
X186945357Y-112164761D01*
X186850119Y-112212380D01*
X186564404Y-112212380D01*
X186469166Y-112164761D01*
X186421547Y-112117142D01*
X187373928Y-111212380D02*
X188040595Y-111212380D01*
X187612023Y-112212380D01*
X188850119Y-111545714D02*
X188850119Y-112212380D01*
X188612023Y-111164761D02*
X188373928Y-111879047D01*
X188992976Y-111879047D01*
X190421547Y-112593333D02*
X190373928Y-112545714D01*
X190278690Y-112402857D01*
X190231071Y-112307619D01*
X190183452Y-112164761D01*
X190135833Y-111926666D01*
X190135833Y-111736190D01*
X190183452Y-111498095D01*
X190231071Y-111355238D01*
X190278690Y-111260000D01*
X190373928Y-111117142D01*
X190421547Y-111069523D01*
X190754880Y-112164761D02*
X190897738Y-112212380D01*
X191135833Y-112212380D01*
X191231071Y-112164761D01*
X191278690Y-112117142D01*
X191326309Y-112021904D01*
X191326309Y-111926666D01*
X191278690Y-111831428D01*
X191231071Y-111783809D01*
X191135833Y-111736190D01*
X190945357Y-111688571D01*
X190850119Y-111640952D01*
X190802500Y-111593333D01*
X190754880Y-111498095D01*
X190754880Y-111402857D01*
X190802500Y-111307619D01*
X190850119Y-111260000D01*
X190945357Y-111212380D01*
X191183452Y-111212380D01*
X191326309Y-111260000D01*
X191754880Y-111688571D02*
X192088214Y-111688571D01*
X192231071Y-112212380D02*
X191754880Y-112212380D01*
X191754880Y-111212380D01*
X192231071Y-111212380D01*
X192659642Y-111688571D02*
X192992976Y-111688571D01*
X193135833Y-112212380D02*
X192659642Y-112212380D01*
X192659642Y-111212380D01*
X193135833Y-111212380D01*
X194612023Y-111212380D02*
X194612023Y-111926666D01*
X194564404Y-112069523D01*
X194469166Y-112164761D01*
X194326309Y-112212380D01*
X194231071Y-112212380D01*
X195088214Y-112212380D02*
X195088214Y-111212380D01*
X195469166Y-111212380D01*
X195564404Y-111260000D01*
X195612023Y-111307619D01*
X195659642Y-111402857D01*
X195659642Y-111545714D01*
X195612023Y-111640952D01*
X195564404Y-111688571D01*
X195469166Y-111736190D01*
X195088214Y-111736190D01*
X196612023Y-112212380D02*
X196040595Y-112212380D01*
X196326309Y-112212380D02*
X196326309Y-111212380D01*
X196231071Y-111355238D01*
X196135833Y-111450476D01*
X196040595Y-111498095D01*
X196945357Y-112593333D02*
X196992976Y-112545714D01*
X197088214Y-112402857D01*
X197135833Y-112307619D01*
X197183452Y-112164761D01*
X197231071Y-111926666D01*
X197231071Y-111736190D01*
X197183452Y-111498095D01*
X197135833Y-111355238D01*
X197088214Y-111260000D01*
X196992976Y-111117142D01*
X196945357Y-111069523D01*
D10*
X153307857Y-112687380D02*
X153545952Y-113687380D01*
X153736428Y-112973095D01*
X153926904Y-113687380D01*
X154165000Y-112687380D01*
X154450714Y-112687380D02*
X154688809Y-113687380D01*
X154879285Y-112973095D01*
X155069761Y-113687380D01*
X155307857Y-112687380D01*
X155593571Y-112687380D02*
X155831666Y-113687380D01*
X156022142Y-112973095D01*
X156212619Y-113687380D01*
X156450714Y-112687380D01*
X156831666Y-113592142D02*
X156879285Y-113639761D01*
X156831666Y-113687380D01*
X156784047Y-113639761D01*
X156831666Y-113592142D01*
X156831666Y-113687380D01*
X157260238Y-113401666D02*
X157736428Y-113401666D01*
X157165000Y-113687380D02*
X157498333Y-112687380D01*
X157831666Y-113687380D01*
X158165000Y-113687380D02*
X158165000Y-112687380D01*
X158736428Y-113687380D01*
X158736428Y-112687380D01*
X159212619Y-113687380D02*
X159212619Y-112687380D01*
X159450714Y-112687380D01*
X159593571Y-112735000D01*
X159688809Y-112830238D01*
X159736428Y-112925476D01*
X159784047Y-113115952D01*
X159784047Y-113258809D01*
X159736428Y-113449285D01*
X159688809Y-113544523D01*
X159593571Y-113639761D01*
X159450714Y-113687380D01*
X159212619Y-113687380D01*
X160165000Y-113401666D02*
X160641190Y-113401666D01*
X160069761Y-113687380D02*
X160403095Y-112687380D01*
X160736428Y-113687380D01*
X160926904Y-112687380D02*
X161260238Y-113687380D01*
X161593571Y-112687380D01*
X161926904Y-113687380D02*
X161926904Y-112687380D01*
X162498333Y-113687380D01*
X162498333Y-112687380D01*
X163165000Y-112687380D02*
X163355476Y-112687380D01*
X163450714Y-112735000D01*
X163545952Y-112830238D01*
X163593571Y-113020714D01*
X163593571Y-113354047D01*
X163545952Y-113544523D01*
X163450714Y-113639761D01*
X163355476Y-113687380D01*
X163165000Y-113687380D01*
X163069761Y-113639761D01*
X162974523Y-113544523D01*
X162926904Y-113354047D01*
X162926904Y-113020714D01*
X162974523Y-112830238D01*
X163069761Y-112735000D01*
X163165000Y-112687380D01*
X164022142Y-113592142D02*
X164069761Y-113639761D01*
X164022142Y-113687380D01*
X163974523Y-113639761D01*
X164022142Y-113592142D01*
X164022142Y-113687380D01*
X165069761Y-113592142D02*
X165022142Y-113639761D01*
X164879285Y-113687380D01*
X164784047Y-113687380D01*
X164641190Y-113639761D01*
X164545952Y-113544523D01*
X164498333Y-113449285D01*
X164450714Y-113258809D01*
X164450714Y-113115952D01*
X164498333Y-112925476D01*
X164545952Y-112830238D01*
X164641190Y-112735000D01*
X164784047Y-112687380D01*
X164879285Y-112687380D01*
X165022142Y-112735000D01*
X165069761Y-112782619D01*
X165688809Y-112687380D02*
X165879285Y-112687380D01*
X165974523Y-112735000D01*
X166069761Y-112830238D01*
X166117380Y-113020714D01*
X166117380Y-113354047D01*
X166069761Y-113544523D01*
X165974523Y-113639761D01*
X165879285Y-113687380D01*
X165688809Y-113687380D01*
X165593571Y-113639761D01*
X165498333Y-113544523D01*
X165450714Y-113354047D01*
X165450714Y-113020714D01*
X165498333Y-112830238D01*
X165593571Y-112735000D01*
X165688809Y-112687380D01*
X166545952Y-113687380D02*
X166545952Y-112687380D01*
X166879285Y-113401666D01*
X167212619Y-112687380D01*
X167212619Y-113687380D01*
X153307857Y-114387380D02*
X153545952Y-115387380D01*
X153736428Y-114673095D01*
X153926904Y-115387380D01*
X154165000Y-114387380D01*
X154450714Y-114387380D02*
X154688809Y-115387380D01*
X154879285Y-114673095D01*
X155069761Y-115387380D01*
X155307857Y-114387380D01*
X155593571Y-114387380D02*
X155831666Y-115387380D01*
X156022142Y-114673095D01*
X156212619Y-115387380D01*
X156450714Y-114387380D01*
X156831666Y-115292142D02*
X156879285Y-115339761D01*
X156831666Y-115387380D01*
X156784047Y-115339761D01*
X156831666Y-115292142D01*
X156831666Y-115387380D01*
X157831666Y-114435000D02*
X157736428Y-114387380D01*
X157593571Y-114387380D01*
X157450714Y-114435000D01*
X157355476Y-114530238D01*
X157307857Y-114625476D01*
X157260238Y-114815952D01*
X157260238Y-114958809D01*
X157307857Y-115149285D01*
X157355476Y-115244523D01*
X157450714Y-115339761D01*
X157593571Y-115387380D01*
X157688809Y-115387380D01*
X157831666Y-115339761D01*
X157879285Y-115292142D01*
X157879285Y-114958809D01*
X157688809Y-114958809D01*
X158307857Y-115387380D02*
X158307857Y-114387380D01*
X158641190Y-114387380D02*
X159212619Y-114387380D01*
X158926904Y-115387380D02*
X158926904Y-114387380D01*
X159545952Y-115387380D02*
X159545952Y-114387380D01*
X159545952Y-114863571D02*
X160117380Y-114863571D01*
X160117380Y-115387380D02*
X160117380Y-114387380D01*
X160593571Y-114387380D02*
X160593571Y-115196904D01*
X160641190Y-115292142D01*
X160688809Y-115339761D01*
X160784047Y-115387380D01*
X160974523Y-115387380D01*
X161069761Y-115339761D01*
X161117380Y-115292142D01*
X161165000Y-115196904D01*
X161165000Y-114387380D01*
X161974523Y-114863571D02*
X162117380Y-114911190D01*
X162165000Y-114958809D01*
X162212619Y-115054047D01*
X162212619Y-115196904D01*
X162165000Y-115292142D01*
X162117380Y-115339761D01*
X162022142Y-115387380D01*
X161641190Y-115387380D01*
X161641190Y-114387380D01*
X161974523Y-114387380D01*
X162069761Y-114435000D01*
X162117380Y-114482619D01*
X162165000Y-114577857D01*
X162165000Y-114673095D01*
X162117380Y-114768333D01*
X162069761Y-114815952D01*
X161974523Y-114863571D01*
X161641190Y-114863571D01*
X162641190Y-115292142D02*
X162688809Y-115339761D01*
X162641190Y-115387380D01*
X162593571Y-115339761D01*
X162641190Y-115292142D01*
X162641190Y-115387380D01*
X163688809Y-115292142D02*
X163641190Y-115339761D01*
X163498333Y-115387380D01*
X163403095Y-115387380D01*
X163260238Y-115339761D01*
X163165000Y-115244523D01*
X163117380Y-115149285D01*
X163069761Y-114958809D01*
X163069761Y-114815952D01*
X163117380Y-114625476D01*
X163165000Y-114530238D01*
X163260238Y-114435000D01*
X163403095Y-114387380D01*
X163498333Y-114387380D01*
X163641190Y-114435000D01*
X163688809Y-114482619D01*
X164307857Y-114387380D02*
X164498333Y-114387380D01*
X164593571Y-114435000D01*
X164688809Y-114530238D01*
X164736428Y-114720714D01*
X164736428Y-115054047D01*
X164688809Y-115244523D01*
X164593571Y-115339761D01*
X164498333Y-115387380D01*
X164307857Y-115387380D01*
X164212619Y-115339761D01*
X164117380Y-115244523D01*
X164069761Y-115054047D01*
X164069761Y-114720714D01*
X164117380Y-114530238D01*
X164212619Y-114435000D01*
X164307857Y-114387380D01*
X165165000Y-115387380D02*
X165165000Y-114387380D01*
X165498333Y-115101666D01*
X165831666Y-114387380D01*
X165831666Y-115387380D01*
X167022142Y-114339761D02*
X166165000Y-115625476D01*
X167307857Y-115101666D02*
X167784047Y-115101666D01*
X167212619Y-115387380D02*
X167545952Y-114387380D01*
X167879285Y-115387380D01*
X168212619Y-114387380D02*
X168212619Y-115196904D01*
X168260238Y-115292142D01*
X168307857Y-115339761D01*
X168403095Y-115387380D01*
X168593571Y-115387380D01*
X168688809Y-115339761D01*
X168736428Y-115292142D01*
X168784047Y-115196904D01*
X168784047Y-114387380D01*
X169212619Y-115339761D02*
X169355476Y-115387380D01*
X169593571Y-115387380D01*
X169688809Y-115339761D01*
X169736428Y-115292142D01*
X169784047Y-115196904D01*
X169784047Y-115101666D01*
X169736428Y-115006428D01*
X169688809Y-114958809D01*
X169593571Y-114911190D01*
X169403095Y-114863571D01*
X169307857Y-114815952D01*
X169260238Y-114768333D01*
X169212619Y-114673095D01*
X169212619Y-114577857D01*
X169260238Y-114482619D01*
X169307857Y-114435000D01*
X169403095Y-114387380D01*
X169641190Y-114387380D01*
X169784047Y-114435000D01*
X170165000Y-115101666D02*
X170641190Y-115101666D01*
X170069761Y-115387380D02*
X170403095Y-114387380D01*
X170736428Y-115387380D01*
X171069761Y-115387380D02*
X171069761Y-114387380D01*
X171641190Y-115387380D01*
X171641190Y-114387380D01*
X172117380Y-115387380D02*
X172117380Y-114387380D01*
X172355476Y-114387380D01*
X172498333Y-114435000D01*
X172593571Y-114530238D01*
X172641190Y-114625476D01*
X172688809Y-114815952D01*
X172688809Y-114958809D01*
X172641190Y-115149285D01*
X172593571Y-115244523D01*
X172498333Y-115339761D01*
X172355476Y-115387380D01*
X172117380Y-115387380D01*
X173069761Y-115101666D02*
X173545952Y-115101666D01*
X172974523Y-115387380D02*
X173307857Y-114387380D01*
X173641190Y-115387380D01*
X173831666Y-114387380D02*
X174165000Y-115387380D01*
X174498333Y-114387380D01*
X174831666Y-115387380D02*
X174831666Y-114387380D01*
X175403095Y-115387380D01*
X175403095Y-114387380D01*
X176069761Y-114387380D02*
X176260238Y-114387380D01*
X176355476Y-114435000D01*
X176450714Y-114530238D01*
X176498333Y-114720714D01*
X176498333Y-115054047D01*
X176450714Y-115244523D01*
X176355476Y-115339761D01*
X176260238Y-115387380D01*
X176069761Y-115387380D01*
X175974523Y-115339761D01*
X175879285Y-115244523D01*
X175831666Y-115054047D01*
X175831666Y-114720714D01*
X175879285Y-114530238D01*
X175974523Y-114435000D01*
X176069761Y-114387380D01*
D11*
X125476190Y-64650833D02*
X125428571Y-64603214D01*
X125333333Y-64460357D01*
X125285714Y-64365119D01*
X125238095Y-64222261D01*
X125190476Y-63984166D01*
X125190476Y-63793690D01*
X125238095Y-63555595D01*
X125285714Y-63412738D01*
X125333333Y-63317500D01*
X125428571Y-63174642D01*
X125476190Y-63127023D01*
X126333333Y-64269880D02*
X125857142Y-64269880D01*
X125857142Y-63269880D01*
X126619047Y-64222261D02*
X126761904Y-64269880D01*
X127000000Y-64269880D01*
X127095238Y-64222261D01*
X127142857Y-64174642D01*
X127190476Y-64079404D01*
X127190476Y-63984166D01*
X127142857Y-63888928D01*
X127095238Y-63841309D01*
X127000000Y-63793690D01*
X126809523Y-63746071D01*
X126714285Y-63698452D01*
X126666666Y-63650833D01*
X126619047Y-63555595D01*
X126619047Y-63460357D01*
X126666666Y-63365119D01*
X126714285Y-63317500D01*
X126809523Y-63269880D01*
X127047619Y-63269880D01*
X127190476Y-63317500D01*
X127952380Y-63746071D02*
X128095238Y-63793690D01*
X128142857Y-63841309D01*
X128190476Y-63936547D01*
X128190476Y-64079404D01*
X128142857Y-64174642D01*
X128095238Y-64222261D01*
X128000000Y-64269880D01*
X127619047Y-64269880D01*
X127619047Y-63269880D01*
X127952380Y-63269880D01*
X128047619Y-63317500D01*
X128095238Y-63365119D01*
X128142857Y-63460357D01*
X128142857Y-63555595D01*
X128095238Y-63650833D01*
X128047619Y-63698452D01*
X127952380Y-63746071D01*
X127619047Y-63746071D01*
X128523809Y-64650833D02*
X128571428Y-64603214D01*
X128666666Y-64460357D01*
X128714285Y-64365119D01*
X128761904Y-64222261D01*
X128809523Y-63984166D01*
X128809523Y-63793690D01*
X128761904Y-63555595D01*
X128714285Y-63412738D01*
X128666666Y-63317500D01*
X128571428Y-63174642D01*
X128523809Y-63127023D01*
X99909523Y-64650833D02*
X99861904Y-64603214D01*
X99766666Y-64460357D01*
X99719047Y-64365119D01*
X99671428Y-64222261D01*
X99623809Y-63984166D01*
X99623809Y-63793690D01*
X99671428Y-63555595D01*
X99719047Y-63412738D01*
X99766666Y-63317500D01*
X99861904Y-63174642D01*
X99909523Y-63127023D01*
X100290476Y-64269880D02*
X100290476Y-63269880D01*
X100623809Y-63984166D01*
X100957142Y-63269880D01*
X100957142Y-64269880D01*
X101385714Y-64222261D02*
X101528571Y-64269880D01*
X101766666Y-64269880D01*
X101861904Y-64222261D01*
X101909523Y-64174642D01*
X101957142Y-64079404D01*
X101957142Y-63984166D01*
X101909523Y-63888928D01*
X101861904Y-63841309D01*
X101766666Y-63793690D01*
X101576190Y-63746071D01*
X101480952Y-63698452D01*
X101433333Y-63650833D01*
X101385714Y-63555595D01*
X101385714Y-63460357D01*
X101433333Y-63365119D01*
X101480952Y-63317500D01*
X101576190Y-63269880D01*
X101814285Y-63269880D01*
X101957142Y-63317500D01*
X102719047Y-63746071D02*
X102861904Y-63793690D01*
X102909523Y-63841309D01*
X102957142Y-63936547D01*
X102957142Y-64079404D01*
X102909523Y-64174642D01*
X102861904Y-64222261D01*
X102766666Y-64269880D01*
X102385714Y-64269880D01*
X102385714Y-63269880D01*
X102719047Y-63269880D01*
X102814285Y-63317500D01*
X102861904Y-63365119D01*
X102909523Y-63460357D01*
X102909523Y-63555595D01*
X102861904Y-63650833D01*
X102814285Y-63698452D01*
X102719047Y-63746071D01*
X102385714Y-63746071D01*
X103290476Y-64650833D02*
X103338095Y-64603214D01*
X103433333Y-64460357D01*
X103480952Y-64365119D01*
X103528571Y-64222261D01*
X103576190Y-63984166D01*
X103576190Y-63793690D01*
X103528571Y-63555595D01*
X103480952Y-63412738D01*
X103433333Y-63317500D01*
X103338095Y-63174642D01*
X103290476Y-63127023D01*
D10*
X108889523Y-113592142D02*
X108841904Y-113639761D01*
X108699047Y-113687380D01*
X108603809Y-113687380D01*
X108460952Y-113639761D01*
X108365714Y-113544523D01*
X108318095Y-113449285D01*
X108270476Y-113258809D01*
X108270476Y-113115952D01*
X108318095Y-112925476D01*
X108365714Y-112830238D01*
X108460952Y-112735000D01*
X108603809Y-112687380D01*
X108699047Y-112687380D01*
X108841904Y-112735000D01*
X108889523Y-112782619D01*
X109508571Y-112687380D02*
X109699047Y-112687380D01*
X109794285Y-112735000D01*
X109889523Y-112830238D01*
X109937142Y-113020714D01*
X109937142Y-113354047D01*
X109889523Y-113544523D01*
X109794285Y-113639761D01*
X109699047Y-113687380D01*
X109508571Y-113687380D01*
X109413333Y-113639761D01*
X109318095Y-113544523D01*
X109270476Y-113354047D01*
X109270476Y-113020714D01*
X109318095Y-112830238D01*
X109413333Y-112735000D01*
X109508571Y-112687380D01*
X110365714Y-113687380D02*
X110365714Y-112687380D01*
X110746666Y-112687380D01*
X110841904Y-112735000D01*
X110889523Y-112782619D01*
X110937142Y-112877857D01*
X110937142Y-113020714D01*
X110889523Y-113115952D01*
X110841904Y-113163571D01*
X110746666Y-113211190D01*
X110365714Y-113211190D01*
X111556190Y-113211190D02*
X111556190Y-113687380D01*
X111222857Y-112687380D02*
X111556190Y-113211190D01*
X111889523Y-112687380D01*
X112794285Y-113687380D02*
X112460952Y-113211190D01*
X112222857Y-113687380D02*
X112222857Y-112687380D01*
X112603809Y-112687380D01*
X112699047Y-112735000D01*
X112746666Y-112782619D01*
X112794285Y-112877857D01*
X112794285Y-113020714D01*
X112746666Y-113115952D01*
X112699047Y-113163571D01*
X112603809Y-113211190D01*
X112222857Y-113211190D01*
X113222857Y-113687380D02*
X113222857Y-112687380D01*
X114222857Y-112735000D02*
X114127619Y-112687380D01*
X113984761Y-112687380D01*
X113841904Y-112735000D01*
X113746666Y-112830238D01*
X113699047Y-112925476D01*
X113651428Y-113115952D01*
X113651428Y-113258809D01*
X113699047Y-113449285D01*
X113746666Y-113544523D01*
X113841904Y-113639761D01*
X113984761Y-113687380D01*
X114080000Y-113687380D01*
X114222857Y-113639761D01*
X114270476Y-113592142D01*
X114270476Y-113258809D01*
X114080000Y-113258809D01*
X114699047Y-113687380D02*
X114699047Y-112687380D01*
X114699047Y-113163571D02*
X115270476Y-113163571D01*
X115270476Y-113687380D02*
X115270476Y-112687380D01*
X115603809Y-112687380D02*
X116175238Y-112687380D01*
X115889523Y-113687380D02*
X115889523Y-112687380D01*
X118080000Y-112925476D02*
X117984761Y-112877857D01*
X117794285Y-112877857D01*
X117699047Y-112925476D01*
X117603809Y-113020714D01*
X117556190Y-113115952D01*
X117556190Y-113306428D01*
X117603809Y-113401666D01*
X117699047Y-113496904D01*
X117794285Y-113544523D01*
X117984761Y-113544523D01*
X118080000Y-113496904D01*
X117889523Y-112544523D02*
X117651428Y-112592142D01*
X117413333Y-112735000D01*
X117270476Y-112973095D01*
X117222857Y-113211190D01*
X117270476Y-113449285D01*
X117413333Y-113687380D01*
X117651428Y-113830238D01*
X117889523Y-113877857D01*
X118127619Y-113830238D01*
X118365714Y-113687380D01*
X118508571Y-113449285D01*
X118556190Y-113211190D01*
X118508571Y-112973095D01*
X118365714Y-112735000D01*
X118127619Y-112592142D01*
X117889523Y-112544523D01*
X119699047Y-112687380D02*
X119699047Y-112877857D01*
X120080000Y-112687380D02*
X120080000Y-112877857D01*
X120460952Y-113401666D02*
X120937142Y-113401666D01*
X120365714Y-113687380D02*
X120699047Y-112687380D01*
X121032380Y-113687380D01*
X121365714Y-113687380D02*
X121365714Y-112687380D01*
X121937142Y-113687380D01*
X121937142Y-112687380D01*
X122413333Y-113687380D02*
X122413333Y-112687380D01*
X122651428Y-112687380D01*
X122794285Y-112735000D01*
X122889523Y-112830238D01*
X122937142Y-112925476D01*
X122984761Y-113115952D01*
X122984761Y-113258809D01*
X122937142Y-113449285D01*
X122889523Y-113544523D01*
X122794285Y-113639761D01*
X122651428Y-113687380D01*
X122413333Y-113687380D01*
X123365714Y-113401666D02*
X123841904Y-113401666D01*
X123270476Y-113687380D02*
X123603809Y-112687380D01*
X123937142Y-113687380D01*
X124127619Y-112687380D02*
X124460952Y-113687380D01*
X124794285Y-112687380D01*
X125127619Y-113687380D02*
X125127619Y-112687380D01*
X125699047Y-113687380D01*
X125699047Y-112687380D01*
X126365714Y-112687380D02*
X126556190Y-112687380D01*
X126651428Y-112735000D01*
X126746666Y-112830238D01*
X126794285Y-113020714D01*
X126794285Y-113354047D01*
X126746666Y-113544523D01*
X126651428Y-113639761D01*
X126556190Y-113687380D01*
X126365714Y-113687380D01*
X126270476Y-113639761D01*
X126175238Y-113544523D01*
X126127619Y-113354047D01*
X126127619Y-113020714D01*
X126175238Y-112830238D01*
X126270476Y-112735000D01*
X126365714Y-112687380D01*
X127175238Y-112687380D02*
X127175238Y-112877857D01*
X127556190Y-112687380D02*
X127556190Y-112877857D01*
X128699047Y-112782619D02*
X128746666Y-112735000D01*
X128841904Y-112687380D01*
X129080000Y-112687380D01*
X129175238Y-112735000D01*
X129222857Y-112782619D01*
X129270476Y-112877857D01*
X129270476Y-112973095D01*
X129222857Y-113115952D01*
X128651428Y-113687380D01*
X129270476Y-113687380D01*
X129889523Y-112687380D02*
X129984761Y-112687380D01*
X130080000Y-112735000D01*
X130127619Y-112782619D01*
X130175238Y-112877857D01*
X130222857Y-113068333D01*
X130222857Y-113306428D01*
X130175238Y-113496904D01*
X130127619Y-113592142D01*
X130080000Y-113639761D01*
X129984761Y-113687380D01*
X129889523Y-113687380D01*
X129794285Y-113639761D01*
X129746666Y-113592142D01*
X129699047Y-113496904D01*
X129651428Y-113306428D01*
X129651428Y-113068333D01*
X129699047Y-112877857D01*
X129746666Y-112782619D01*
X129794285Y-112735000D01*
X129889523Y-112687380D01*
X130603809Y-112782619D02*
X130651428Y-112735000D01*
X130746666Y-112687380D01*
X130984761Y-112687380D01*
X131080000Y-112735000D01*
X131127619Y-112782619D01*
X131175238Y-112877857D01*
X131175238Y-112973095D01*
X131127619Y-113115952D01*
X130556190Y-113687380D01*
X131175238Y-113687380D01*
X131556190Y-112782619D02*
X131603809Y-112735000D01*
X131699047Y-112687380D01*
X131937142Y-112687380D01*
X132032380Y-112735000D01*
X132080000Y-112782619D01*
X132127619Y-112877857D01*
X132127619Y-112973095D01*
X132080000Y-113115952D01*
X131508571Y-113687380D01*
X132127619Y-113687380D01*
X108508571Y-114387380D02*
X108699047Y-114387380D01*
X108794285Y-114435000D01*
X108889523Y-114530238D01*
X108937142Y-114720714D01*
X108937142Y-115054047D01*
X108889523Y-115244523D01*
X108794285Y-115339761D01*
X108699047Y-115387380D01*
X108508571Y-115387380D01*
X108413333Y-115339761D01*
X108318095Y-115244523D01*
X108270476Y-115054047D01*
X108270476Y-114720714D01*
X108318095Y-114530238D01*
X108413333Y-114435000D01*
X108508571Y-114387380D01*
X109365714Y-115387380D02*
X109365714Y-114387380D01*
X109746666Y-114387380D01*
X109841904Y-114435000D01*
X109889523Y-114482619D01*
X109937142Y-114577857D01*
X109937142Y-114720714D01*
X109889523Y-114815952D01*
X109841904Y-114863571D01*
X109746666Y-114911190D01*
X109365714Y-114911190D01*
X110365714Y-114863571D02*
X110699047Y-114863571D01*
X110841904Y-115387380D02*
X110365714Y-115387380D01*
X110365714Y-114387380D01*
X110841904Y-114387380D01*
X111270476Y-115387380D02*
X111270476Y-114387380D01*
X111841904Y-115387380D01*
X111841904Y-114387380D01*
X113080000Y-115387380D02*
X113080000Y-114387380D01*
X113080000Y-114863571D02*
X113651428Y-114863571D01*
X113651428Y-115387380D02*
X113651428Y-114387380D01*
X114080000Y-115101666D02*
X114556190Y-115101666D01*
X113984761Y-115387380D02*
X114318095Y-114387380D01*
X114651428Y-115387380D01*
X115556190Y-115387380D02*
X115222857Y-114911190D01*
X114984761Y-115387380D02*
X114984761Y-114387380D01*
X115365714Y-114387380D01*
X115460952Y-114435000D01*
X115508571Y-114482619D01*
X115556190Y-114577857D01*
X115556190Y-114720714D01*
X115508571Y-114815952D01*
X115460952Y-114863571D01*
X115365714Y-114911190D01*
X114984761Y-114911190D01*
X115984761Y-115387380D02*
X115984761Y-114387380D01*
X116222857Y-114387380D01*
X116365714Y-114435000D01*
X116460952Y-114530238D01*
X116508571Y-114625476D01*
X116556190Y-114815952D01*
X116556190Y-114958809D01*
X116508571Y-115149285D01*
X116460952Y-115244523D01*
X116365714Y-115339761D01*
X116222857Y-115387380D01*
X115984761Y-115387380D01*
X116889523Y-114387380D02*
X117127619Y-115387380D01*
X117318095Y-114673095D01*
X117508571Y-115387380D01*
X117746666Y-114387380D01*
X118080000Y-115101666D02*
X118556190Y-115101666D01*
X117984761Y-115387380D02*
X118318095Y-114387380D01*
X118651428Y-115387380D01*
X119556190Y-115387380D02*
X119222857Y-114911190D01*
X118984761Y-115387380D02*
X118984761Y-114387380D01*
X119365714Y-114387380D01*
X119460952Y-114435000D01*
X119508571Y-114482619D01*
X119556190Y-114577857D01*
X119556190Y-114720714D01*
X119508571Y-114815952D01*
X119460952Y-114863571D01*
X119365714Y-114911190D01*
X118984761Y-114911190D01*
X119984761Y-114863571D02*
X120318095Y-114863571D01*
X120460952Y-115387380D02*
X119984761Y-115387380D01*
X119984761Y-114387380D01*
X120460952Y-114387380D01*
X122127619Y-115387380D02*
X121651428Y-115387380D01*
X121651428Y-114387380D01*
X122460952Y-115387380D02*
X122460952Y-114387380D01*
X123508571Y-115292142D02*
X123460952Y-115339761D01*
X123318095Y-115387380D01*
X123222857Y-115387380D01*
X123080000Y-115339761D01*
X122984761Y-115244523D01*
X122937142Y-115149285D01*
X122889523Y-114958809D01*
X122889523Y-114815952D01*
X122937142Y-114625476D01*
X122984761Y-114530238D01*
X123080000Y-114435000D01*
X123222857Y-114387380D01*
X123318095Y-114387380D01*
X123460952Y-114435000D01*
X123508571Y-114482619D01*
X123937142Y-114863571D02*
X124270476Y-114863571D01*
X124413333Y-115387380D02*
X123937142Y-115387380D01*
X123937142Y-114387380D01*
X124413333Y-114387380D01*
X124841904Y-115387380D02*
X124841904Y-114387380D01*
X125413333Y-115387380D01*
X125413333Y-114387380D01*
X125841904Y-115339761D02*
X125984761Y-115387380D01*
X126222857Y-115387380D01*
X126318095Y-115339761D01*
X126365714Y-115292142D01*
X126413333Y-115196904D01*
X126413333Y-115101666D01*
X126365714Y-115006428D01*
X126318095Y-114958809D01*
X126222857Y-114911190D01*
X126032380Y-114863571D01*
X125937142Y-114815952D01*
X125889523Y-114768333D01*
X125841904Y-114673095D01*
X125841904Y-114577857D01*
X125889523Y-114482619D01*
X125937142Y-114435000D01*
X126032380Y-114387380D01*
X126270476Y-114387380D01*
X126413333Y-114435000D01*
X126841904Y-114863571D02*
X127175238Y-114863571D01*
X127318095Y-115387380D02*
X126841904Y-115387380D01*
X126841904Y-114387380D01*
X127318095Y-114387380D01*
X127746666Y-115387380D02*
X127746666Y-114387380D01*
X127984761Y-114387380D01*
X128127619Y-114435000D01*
X128222857Y-114530238D01*
X128270476Y-114625476D01*
X128318095Y-114815952D01*
X128318095Y-114958809D01*
X128270476Y-115149285D01*
X128222857Y-115244523D01*
X128127619Y-115339761D01*
X127984761Y-115387380D01*
X127746666Y-115387380D01*
X129508571Y-114387380D02*
X129508571Y-115196904D01*
X129556190Y-115292142D01*
X129603809Y-115339761D01*
X129699047Y-115387380D01*
X129889523Y-115387380D01*
X129984761Y-115339761D01*
X130032380Y-115292142D01*
X130080000Y-115196904D01*
X130080000Y-114387380D01*
X130556190Y-115387380D02*
X130556190Y-114387380D01*
X131127619Y-115387380D01*
X131127619Y-114387380D01*
X131603809Y-115387380D02*
X131603809Y-114387380D01*
X131841904Y-114387380D01*
X131984761Y-114435000D01*
X132080000Y-114530238D01*
X132127619Y-114625476D01*
X132175238Y-114815952D01*
X132175238Y-114958809D01*
X132127619Y-115149285D01*
X132080000Y-115244523D01*
X131984761Y-115339761D01*
X131841904Y-115387380D01*
X131603809Y-115387380D01*
X132603809Y-114863571D02*
X132937142Y-114863571D01*
X133080000Y-115387380D02*
X132603809Y-115387380D01*
X132603809Y-114387380D01*
X133080000Y-114387380D01*
X134080000Y-115387380D02*
X133746666Y-114911190D01*
X133508571Y-115387380D02*
X133508571Y-114387380D01*
X133889523Y-114387380D01*
X133984761Y-114435000D01*
X134032380Y-114482619D01*
X134080000Y-114577857D01*
X134080000Y-114720714D01*
X134032380Y-114815952D01*
X133984761Y-114863571D01*
X133889523Y-114911190D01*
X133508571Y-114911190D01*
X135841904Y-115292142D02*
X135794285Y-115339761D01*
X135651428Y-115387380D01*
X135556190Y-115387380D01*
X135413333Y-115339761D01*
X135318095Y-115244523D01*
X135270476Y-115149285D01*
X135222857Y-114958809D01*
X135222857Y-114815952D01*
X135270476Y-114625476D01*
X135318095Y-114530238D01*
X135413333Y-114435000D01*
X135556190Y-114387380D01*
X135651428Y-114387380D01*
X135794285Y-114435000D01*
X135841904Y-114482619D01*
X136270476Y-114863571D02*
X136603809Y-114863571D01*
X136746666Y-115387380D02*
X136270476Y-115387380D01*
X136270476Y-114387380D01*
X136746666Y-114387380D01*
X137746666Y-115387380D02*
X137413333Y-114911190D01*
X137175238Y-115387380D02*
X137175238Y-114387380D01*
X137556190Y-114387380D01*
X137651428Y-114435000D01*
X137699047Y-114482619D01*
X137746666Y-114577857D01*
X137746666Y-114720714D01*
X137699047Y-114815952D01*
X137651428Y-114863571D01*
X137556190Y-114911190D01*
X137175238Y-114911190D01*
X138175238Y-115387380D02*
X138175238Y-114387380D01*
X138746666Y-115387380D01*
X138746666Y-114387380D01*
X139222857Y-115006428D02*
X139984761Y-115006428D01*
X140651428Y-114387380D02*
X140841904Y-114387380D01*
X140937142Y-114435000D01*
X141032380Y-114530238D01*
X141080000Y-114720714D01*
X141080000Y-115054047D01*
X141032380Y-115244523D01*
X140937142Y-115339761D01*
X140841904Y-115387380D01*
X140651428Y-115387380D01*
X140556190Y-115339761D01*
X140460952Y-115244523D01*
X140413333Y-115054047D01*
X140413333Y-114720714D01*
X140460952Y-114530238D01*
X140556190Y-114435000D01*
X140651428Y-114387380D01*
X141508571Y-115387380D02*
X141508571Y-114387380D01*
X141508571Y-114863571D02*
X142080000Y-114863571D01*
X142080000Y-115387380D02*
X142080000Y-114387380D01*
X143032380Y-115387380D02*
X142556190Y-115387380D01*
X142556190Y-114387380D01*
X143365714Y-115006428D02*
X144127619Y-115006428D01*
X144603809Y-115387380D02*
X144603809Y-114387380D01*
X144984761Y-114387380D01*
X145080000Y-114435000D01*
X145127619Y-114482619D01*
X145175238Y-114577857D01*
X145175238Y-114720714D01*
X145127619Y-114815952D01*
X145080000Y-114863571D01*
X144984761Y-114911190D01*
X144603809Y-114911190D01*
X146270476Y-114720714D02*
X146508571Y-115387380D01*
X146746666Y-114720714D01*
X147080000Y-114482619D02*
X147127619Y-114435000D01*
X147222857Y-114387380D01*
X147460952Y-114387380D01*
X147556190Y-114435000D01*
X147603809Y-114482619D01*
X147651428Y-114577857D01*
X147651428Y-114673095D01*
X147603809Y-114815952D01*
X147032380Y-115387380D01*
X147651428Y-115387380D01*
D11*
X187358976Y-117641666D02*
X187835166Y-117641666D01*
X187263738Y-117927380D02*
X187597071Y-116927380D01*
X187930404Y-117927380D01*
X188454214Y-116927380D02*
X188549452Y-116927380D01*
X188644690Y-116975000D01*
X188692309Y-117022619D01*
X188739928Y-117117857D01*
X188787547Y-117308333D01*
X188787547Y-117546428D01*
X188739928Y-117736904D01*
X188692309Y-117832142D01*
X188644690Y-117879761D01*
X188549452Y-117927380D01*
X188454214Y-117927380D01*
X188358976Y-117879761D01*
X188311357Y-117832142D01*
X188263738Y-117736904D01*
X188216119Y-117546428D01*
X188216119Y-117308333D01*
X188263738Y-117117857D01*
X188311357Y-117022619D01*
X188358976Y-116975000D01*
X188454214Y-116927380D01*
X189739928Y-117927380D02*
X189168500Y-117927380D01*
X189454214Y-117927380D02*
X189454214Y-116927380D01*
X189358976Y-117070238D01*
X189263738Y-117165476D01*
X189168500Y-117213095D01*
X111158976Y-117641666D02*
X111635166Y-117641666D01*
X111063738Y-117927380D02*
X111397071Y-116927380D01*
X111730404Y-117927380D01*
X111968500Y-116927380D02*
X112587547Y-116927380D01*
X112254214Y-117308333D01*
X112397071Y-117308333D01*
X112492309Y-117355952D01*
X112539928Y-117403571D01*
X112587547Y-117498809D01*
X112587547Y-117736904D01*
X112539928Y-117832142D01*
X112492309Y-117879761D01*
X112397071Y-117927380D01*
X112111357Y-117927380D01*
X112016119Y-117879761D01*
X111968500Y-117832142D01*
X113539928Y-117927380D02*
X112968500Y-117927380D01*
X113254214Y-117927380D02*
X113254214Y-116927380D01*
X113158976Y-117070238D01*
X113063738Y-117165476D01*
X112968500Y-117213095D01*
D12*
X177165000Y-76835000D02*
X177800000Y-76835000D01*
X177165000Y-76835000D02*
X177165000Y-83185000D01*
X177165000Y-83185000D02*
X179070000Y-83185000D01*
D13*
X193449285Y-116883571D02*
X192949285Y-116169285D01*
X192592142Y-116883571D02*
X192592142Y-115383571D01*
X193163571Y-115383571D01*
X193306428Y-115455000D01*
X193377857Y-115526428D01*
X193449285Y-115669285D01*
X193449285Y-115883571D01*
X193377857Y-116026428D01*
X193306428Y-116097857D01*
X193163571Y-116169285D01*
X192592142Y-116169285D01*
X194092142Y-116097857D02*
X194592142Y-116097857D01*
X194806428Y-116883571D02*
X194092142Y-116883571D01*
X194092142Y-115383571D01*
X194806428Y-115383571D01*
X195377857Y-116455000D02*
X196092142Y-116455000D01*
X195235000Y-116883571D02*
X195735000Y-115383571D01*
X196235000Y-116883571D01*
X197592142Y-116883571D02*
X197092142Y-116169285D01*
X196735000Y-116883571D02*
X196735000Y-115383571D01*
X197306428Y-115383571D01*
X197449285Y-115455000D01*
X197520714Y-115526428D01*
X197592142Y-115669285D01*
X197592142Y-115883571D01*
X197520714Y-116026428D01*
X197449285Y-116097857D01*
X197306428Y-116169285D01*
X196735000Y-116169285D01*
X199377857Y-116312142D02*
X200520714Y-116312142D01*
X201235000Y-115883571D02*
X202377857Y-116312142D01*
X201235000Y-116740714D01*
D12*
X121412000Y-82550000D02*
X120904000Y-82550000D01*
X120904000Y-82042000D02*
X121412000Y-82042000D01*
X120904000Y-81026000D02*
X121412000Y-81026000D01*
X120904000Y-82550000D02*
X120904000Y-81026000D01*
X123444000Y-82550000D02*
X122936000Y-82550000D01*
X122936000Y-82042000D02*
X123444000Y-82042000D01*
X122936000Y-81026000D02*
X123444000Y-81026000D01*
X122936000Y-82550000D02*
X122936000Y-81026000D01*
X122428000Y-81026000D02*
X122428000Y-82550000D01*
X122428000Y-82550000D02*
X121920000Y-82550000D01*
X121920000Y-82042000D02*
X122428000Y-82042000D01*
X121920000Y-81026000D02*
X122428000Y-81026000D01*
X121920000Y-82550000D02*
X121920000Y-81026000D01*
X121412000Y-81026000D02*
X121412000Y-82550000D01*
X124460000Y-81026000D02*
X124460000Y-82550000D01*
X124460000Y-82550000D02*
X123952000Y-82550000D01*
X123952000Y-82042000D02*
X124460000Y-82042000D01*
X123952000Y-81026000D02*
X124460000Y-81026000D01*
X123952000Y-82550000D02*
X123952000Y-81026000D01*
X123444000Y-81026000D02*
X123444000Y-82550000D01*
X120396000Y-81026000D02*
X120396000Y-82550000D01*
X120396000Y-82550000D02*
X119888000Y-82550000D01*
X119888000Y-82042000D02*
X120396000Y-82042000D01*
X119888000Y-81026000D02*
X120396000Y-81026000D01*
X119888000Y-82550000D02*
X119888000Y-81026000D01*
X118872000Y-81026000D02*
X118872000Y-82550000D01*
X118872000Y-82550000D02*
X118364000Y-82550000D01*
X118364000Y-82042000D02*
X118872000Y-82042000D01*
X118364000Y-81026000D02*
X118872000Y-81026000D01*
X118364000Y-82550000D02*
X118364000Y-81026000D01*
X117856000Y-81026000D02*
X117856000Y-82550000D01*
X117856000Y-82550000D02*
X117348000Y-82550000D01*
X117348000Y-82042000D02*
X117856000Y-82042000D01*
X117348000Y-81026000D02*
X117856000Y-81026000D01*
X117348000Y-82550000D02*
X117348000Y-81026000D01*
X116332000Y-82550000D02*
X116332000Y-81026000D01*
X116332000Y-81026000D02*
X116840000Y-81026000D01*
X116840000Y-81534000D02*
X116332000Y-81534000D01*
X116840000Y-82550000D02*
X116332000Y-82550000D01*
X116840000Y-81026000D02*
X116840000Y-82550000D01*
X115824000Y-81026000D02*
X115824000Y-82550000D01*
X115824000Y-82550000D02*
X115316000Y-82550000D01*
X115316000Y-82042000D02*
X115824000Y-82042000D01*
X115316000Y-81026000D02*
X115824000Y-81026000D01*
X115316000Y-82550000D02*
X115316000Y-81026000D01*
X177165000Y-98425000D02*
X179070000Y-98425000D01*
X177165000Y-94615000D02*
X177165000Y-98425000D01*
X177165000Y-94615000D02*
X177800000Y-94615000D01*
D11*
X97559880Y-72707142D02*
X97559880Y-72516666D01*
X97607500Y-72421428D01*
X97702738Y-72326190D01*
X97893214Y-72278571D01*
X98226547Y-72278571D01*
X98417023Y-72326190D01*
X98512261Y-72421428D01*
X98559880Y-72516666D01*
X98559880Y-72707142D01*
X98512261Y-72802380D01*
X98417023Y-72897619D01*
X98226547Y-72945238D01*
X97893214Y-72945238D01*
X97702738Y-72897619D01*
X97607500Y-72802380D01*
X97559880Y-72707142D01*
X98559880Y-71850000D02*
X97559880Y-71850000D01*
X98559880Y-71278571D01*
X97559880Y-71278571D01*
X98178928Y-70040476D02*
X98178928Y-69278571D01*
X98178928Y-68802380D02*
X98178928Y-68040476D01*
X97893214Y-67564285D02*
X98178928Y-66802380D01*
X98464642Y-67564285D01*
X113355380Y-83097523D02*
X112355380Y-83097523D01*
X113069666Y-82764190D01*
X112355380Y-82430857D01*
X113355380Y-82430857D01*
X113307761Y-82002285D02*
X113355380Y-81859428D01*
X113355380Y-81621333D01*
X113307761Y-81526095D01*
X113260142Y-81478476D01*
X113164904Y-81430857D01*
X113069666Y-81430857D01*
X112974428Y-81478476D01*
X112926809Y-81526095D01*
X112879190Y-81621333D01*
X112831571Y-81811809D01*
X112783952Y-81907047D01*
X112736333Y-81954666D01*
X112641095Y-82002285D01*
X112545857Y-82002285D01*
X112450619Y-81954666D01*
X112403000Y-81907047D01*
X112355380Y-81811809D01*
X112355380Y-81573714D01*
X112403000Y-81430857D01*
X112831571Y-80668952D02*
X112879190Y-80526095D01*
X112926809Y-80478476D01*
X113022047Y-80430857D01*
X113164904Y-80430857D01*
X113260142Y-80478476D01*
X113307761Y-80526095D01*
X113355380Y-80621333D01*
X113355380Y-81002285D01*
X112355380Y-81002285D01*
X112355380Y-80668952D01*
X112403000Y-80573714D01*
X112450619Y-80526095D01*
X112545857Y-80478476D01*
X112641095Y-80478476D01*
X112736333Y-80526095D01*
X112783952Y-80573714D01*
X112831571Y-80668952D01*
X112831571Y-81002285D01*
X126436380Y-82454666D02*
X126436380Y-82930857D01*
X125436380Y-82930857D01*
X126388761Y-82168952D02*
X126436380Y-82026095D01*
X126436380Y-81788000D01*
X126388761Y-81692761D01*
X126341142Y-81645142D01*
X126245904Y-81597523D01*
X126150666Y-81597523D01*
X126055428Y-81645142D01*
X126007809Y-81692761D01*
X125960190Y-81788000D01*
X125912571Y-81978476D01*
X125864952Y-82073714D01*
X125817333Y-82121333D01*
X125722095Y-82168952D01*
X125626857Y-82168952D01*
X125531619Y-82121333D01*
X125484000Y-82073714D01*
X125436380Y-81978476D01*
X125436380Y-81740380D01*
X125484000Y-81597523D01*
X125912571Y-80835619D02*
X125960190Y-80692761D01*
X126007809Y-80645142D01*
X126103047Y-80597523D01*
X126245904Y-80597523D01*
X126341142Y-80645142D01*
X126388761Y-80692761D01*
X126436380Y-80788000D01*
X126436380Y-81168952D01*
X125436380Y-81168952D01*
X125436380Y-80835619D01*
X125484000Y-80740380D01*
X125531619Y-80692761D01*
X125626857Y-80645142D01*
X125722095Y-80645142D01*
X125817333Y-80692761D01*
X125864952Y-80740380D01*
X125912571Y-80835619D01*
X125912571Y-81168952D01*
D10*
X193233476Y-66222619D02*
X193281095Y-66175000D01*
X193376333Y-66127380D01*
X193614428Y-66127380D01*
X193709666Y-66175000D01*
X193757285Y-66222619D01*
X193804904Y-66317857D01*
X193804904Y-66413095D01*
X193757285Y-66555952D01*
X193185857Y-67127380D01*
X193804904Y-67127380D01*
X194423952Y-66127380D02*
X194519190Y-66127380D01*
X194614428Y-66175000D01*
X194662047Y-66222619D01*
X194709666Y-66317857D01*
X194757285Y-66508333D01*
X194757285Y-66746428D01*
X194709666Y-66936904D01*
X194662047Y-67032142D01*
X194614428Y-67079761D01*
X194519190Y-67127380D01*
X194423952Y-67127380D01*
X194328714Y-67079761D01*
X194281095Y-67032142D01*
X194233476Y-66936904D01*
X194185857Y-66746428D01*
X194185857Y-66508333D01*
X194233476Y-66317857D01*
X194281095Y-66222619D01*
X194328714Y-66175000D01*
X194423952Y-66127380D01*
X195138238Y-66222619D02*
X195185857Y-66175000D01*
X195281095Y-66127380D01*
X195519190Y-66127380D01*
X195614428Y-66175000D01*
X195662047Y-66222619D01*
X195709666Y-66317857D01*
X195709666Y-66413095D01*
X195662047Y-66555952D01*
X195090619Y-67127380D01*
X195709666Y-67127380D01*
X196090619Y-66222619D02*
X196138238Y-66175000D01*
X196233476Y-66127380D01*
X196471571Y-66127380D01*
X196566809Y-66175000D01*
X196614428Y-66222619D01*
X196662047Y-66317857D01*
X196662047Y-66413095D01*
X196614428Y-66555952D01*
X196043000Y-67127380D01*
X196662047Y-67127380D01*
X197090619Y-66746428D02*
X197852523Y-66746428D01*
X198519190Y-66127380D02*
X198614428Y-66127380D01*
X198709666Y-66175000D01*
X198757285Y-66222619D01*
X198804904Y-66317857D01*
X198852523Y-66508333D01*
X198852523Y-66746428D01*
X198804904Y-66936904D01*
X198757285Y-67032142D01*
X198709666Y-67079761D01*
X198614428Y-67127380D01*
X198519190Y-67127380D01*
X198423952Y-67079761D01*
X198376333Y-67032142D01*
X198328714Y-66936904D01*
X198281095Y-66746428D01*
X198281095Y-66508333D01*
X198328714Y-66317857D01*
X198376333Y-66222619D01*
X198423952Y-66175000D01*
X198519190Y-66127380D01*
X199185857Y-66127380D02*
X199804904Y-66127380D01*
X199471571Y-66508333D01*
X199614428Y-66508333D01*
X199709666Y-66555952D01*
X199757285Y-66603571D01*
X199804904Y-66698809D01*
X199804904Y-66936904D01*
X199757285Y-67032142D01*
X199709666Y-67079761D01*
X199614428Y-67127380D01*
X199328714Y-67127380D01*
X199233476Y-67079761D01*
X199185857Y-67032142D01*
X200233476Y-66746428D02*
X200995380Y-66746428D01*
X201662047Y-66127380D02*
X201757285Y-66127380D01*
X201852523Y-66175000D01*
X201900142Y-66222619D01*
X201947761Y-66317857D01*
X201995380Y-66508333D01*
X201995380Y-66746428D01*
X201947761Y-66936904D01*
X201900142Y-67032142D01*
X201852523Y-67079761D01*
X201757285Y-67127380D01*
X201662047Y-67127380D01*
X201566809Y-67079761D01*
X201519190Y-67032142D01*
X201471571Y-66936904D01*
X201423952Y-66746428D01*
X201423952Y-66508333D01*
X201471571Y-66317857D01*
X201519190Y-66222619D01*
X201566809Y-66175000D01*
X201662047Y-66127380D01*
X202328714Y-66127380D02*
X202947761Y-66127380D01*
X202614428Y-66508333D01*
X202757285Y-66508333D01*
X202852523Y-66555952D01*
X202900142Y-66603571D01*
X202947761Y-66698809D01*
X202947761Y-66936904D01*
X202900142Y-67032142D01*
X202852523Y-67079761D01*
X202757285Y-67127380D01*
X202471571Y-67127380D01*
X202376333Y-67079761D01*
X202328714Y-67032142D01*
D11*
X130913142Y-73302380D02*
X130960761Y-73350000D01*
X131008380Y-73492857D01*
X131008380Y-73588095D01*
X130960761Y-73730952D01*
X130865523Y-73826190D01*
X130770285Y-73873809D01*
X130579809Y-73921428D01*
X130436952Y-73921428D01*
X130246476Y-73873809D01*
X130151238Y-73826190D01*
X130056000Y-73730952D01*
X130008380Y-73588095D01*
X130008380Y-73492857D01*
X130056000Y-73350000D01*
X130103619Y-73302380D01*
X130008380Y-73016666D02*
X130008380Y-72445238D01*
X131008380Y-72730952D02*
X130008380Y-72730952D01*
X130960761Y-72159523D02*
X131008380Y-72016666D01*
X131008380Y-71778571D01*
X130960761Y-71683333D01*
X130913142Y-71635714D01*
X130817904Y-71588095D01*
X130722666Y-71588095D01*
X130627428Y-71635714D01*
X130579809Y-71683333D01*
X130532190Y-71778571D01*
X130484571Y-71969047D01*
X130436952Y-72064285D01*
X130389333Y-72111904D01*
X130294095Y-72159523D01*
X130198857Y-72159523D01*
X130103619Y-72111904D01*
X130056000Y-72064285D01*
X130008380Y-71969047D01*
X130008380Y-71730952D01*
X130056000Y-71588095D01*
X130103619Y-70445238D02*
X130056000Y-70397619D01*
X130008380Y-70302380D01*
X130008380Y-70064285D01*
X130056000Y-69969047D01*
X130103619Y-69921428D01*
X130198857Y-69873809D01*
X130294095Y-69873809D01*
X130436952Y-69921428D01*
X131008380Y-70492857D01*
X131008380Y-69873809D01*
X130008380Y-69254761D02*
X130008380Y-69159523D01*
X130056000Y-69064285D01*
X130103619Y-69016666D01*
X130198857Y-68969047D01*
X130389333Y-68921428D01*
X130627428Y-68921428D01*
X130817904Y-68969047D01*
X130913142Y-69016666D01*
X130960761Y-69064285D01*
X131008380Y-69159523D01*
X131008380Y-69254761D01*
X130960761Y-69350000D01*
X130913142Y-69397619D01*
X130817904Y-69445238D01*
X130627428Y-69492857D01*
X130389333Y-69492857D01*
X130198857Y-69445238D01*
X130103619Y-69397619D01*
X130056000Y-69350000D01*
X130008380Y-69254761D01*
X130008380Y-68064285D02*
X130008380Y-68254761D01*
X130056000Y-68350000D01*
X130103619Y-68397619D01*
X130246476Y-68492857D01*
X130436952Y-68540476D01*
X130817904Y-68540476D01*
X130913142Y-68492857D01*
X130960761Y-68445238D01*
X131008380Y-68350000D01*
X131008380Y-68159523D01*
X130960761Y-68064285D01*
X130913142Y-68016666D01*
X130817904Y-67969047D01*
X130579809Y-67969047D01*
X130484571Y-68016666D01*
X130436952Y-68064285D01*
X130389333Y-68159523D01*
X130389333Y-68350000D01*
X130436952Y-68445238D01*
X130484571Y-68492857D01*
X130579809Y-68540476D01*
X130627428Y-67540476D02*
X130627428Y-66778571D01*
X130008380Y-65826190D02*
X130008380Y-66302380D01*
X130484571Y-66350000D01*
X130436952Y-66302380D01*
X130389333Y-66207142D01*
X130389333Y-65969047D01*
X130436952Y-65873809D01*
X130484571Y-65826190D01*
X130579809Y-65778571D01*
X130817904Y-65778571D01*
X130913142Y-65826190D01*
X130960761Y-65873809D01*
X131008380Y-65969047D01*
X131008380Y-66207142D01*
X130960761Y-66302380D01*
X130913142Y-66350000D01*
D12*
X119380000Y-80518000D02*
X119380000Y-83058000D01*
X113792000Y-83058000D02*
X124968000Y-83058000D01*
X113792000Y-83058000D02*
X113792000Y-80518000D01*
X114300000Y-82550000D02*
X114300000Y-81026000D01*
X114300000Y-81026000D02*
X114808000Y-81026000D01*
X114300000Y-82042000D02*
X114808000Y-82042000D01*
X114808000Y-82550000D02*
X114300000Y-82550000D01*
X114808000Y-81026000D02*
X114808000Y-82550000D01*
X113792000Y-80518000D02*
X124968000Y-80518000D01*
X124968000Y-80518000D02*
X124968000Y-83058000D01*
D11*
X108450238Y-81240380D02*
X108545476Y-81240380D01*
X108640714Y-81288000D01*
X108688333Y-81335619D01*
X108735952Y-81430857D01*
X108783571Y-81621333D01*
X108783571Y-81859428D01*
X108735952Y-82049904D01*
X108688333Y-82145142D01*
X108640714Y-82192761D01*
X108545476Y-82240380D01*
X108450238Y-82240380D01*
X108355000Y-82192761D01*
X108307380Y-82145142D01*
X108259761Y-82049904D01*
X108212142Y-81859428D01*
X108212142Y-81621333D01*
X108259761Y-81430857D01*
X108307380Y-81335619D01*
X108355000Y-81288000D01*
X108450238Y-81240380D01*
X109116904Y-82240380D02*
X109640714Y-81573714D01*
X109116904Y-81573714D02*
X109640714Y-82240380D01*
X110164523Y-81668952D02*
X110069285Y-81621333D01*
X110021666Y-81573714D01*
X109974047Y-81478476D01*
X109974047Y-81430857D01*
X110021666Y-81335619D01*
X110069285Y-81288000D01*
X110164523Y-81240380D01*
X110355000Y-81240380D01*
X110450238Y-81288000D01*
X110497857Y-81335619D01*
X110545476Y-81430857D01*
X110545476Y-81478476D01*
X110497857Y-81573714D01*
X110450238Y-81621333D01*
X110355000Y-81668952D01*
X110164523Y-81668952D01*
X110069285Y-81716571D01*
X110021666Y-81764190D01*
X109974047Y-81859428D01*
X109974047Y-82049904D01*
X110021666Y-82145142D01*
X110069285Y-82192761D01*
X110164523Y-82240380D01*
X110355000Y-82240380D01*
X110450238Y-82192761D01*
X110497857Y-82145142D01*
X110545476Y-82049904D01*
X110545476Y-81859428D01*
X110497857Y-81764190D01*
X110450238Y-81716571D01*
X110355000Y-81668952D01*
X111164523Y-81240380D02*
X111259761Y-81240380D01*
X111355000Y-81288000D01*
X111402619Y-81335619D01*
X111450238Y-81430857D01*
X111497857Y-81621333D01*
X111497857Y-81859428D01*
X111450238Y-82049904D01*
X111402619Y-82145142D01*
X111355000Y-82192761D01*
X111259761Y-82240380D01*
X111164523Y-82240380D01*
X111069285Y-82192761D01*
X111021666Y-82145142D01*
X110974047Y-82049904D01*
X110926428Y-81859428D01*
X110926428Y-81621333D01*
X110974047Y-81430857D01*
X111021666Y-81335619D01*
X111069285Y-81288000D01*
X111164523Y-81240380D01*
D10*
X149844285Y-63825428D02*
X150606190Y-63825428D01*
X151558571Y-63206380D02*
X151082380Y-63206380D01*
X151034761Y-63682571D01*
X151082380Y-63634952D01*
X151177619Y-63587333D01*
X151415714Y-63587333D01*
X151510952Y-63634952D01*
X151558571Y-63682571D01*
X151606190Y-63777809D01*
X151606190Y-64015904D01*
X151558571Y-64111142D01*
X151510952Y-64158761D01*
X151415714Y-64206380D01*
X151177619Y-64206380D01*
X151082380Y-64158761D01*
X151034761Y-64111142D01*
X151891904Y-63206380D02*
X152225238Y-64206380D01*
X152558571Y-63206380D01*
X143653095Y-63825428D02*
X144415000Y-63825428D01*
X145415000Y-64206380D02*
X144843571Y-64206380D01*
X145129285Y-64206380D02*
X145129285Y-63206380D01*
X145034047Y-63349238D01*
X144938809Y-63444476D01*
X144843571Y-63492095D01*
X145795952Y-63301619D02*
X145843571Y-63254000D01*
X145938809Y-63206380D01*
X146176904Y-63206380D01*
X146272142Y-63254000D01*
X146319761Y-63301619D01*
X146367380Y-63396857D01*
X146367380Y-63492095D01*
X146319761Y-63634952D01*
X145748333Y-64206380D01*
X146367380Y-64206380D01*
X146653095Y-63206380D02*
X146986428Y-64206380D01*
X147319761Y-63206380D01*
X137938095Y-63825428D02*
X138700000Y-63825428D01*
X138319047Y-64206380D02*
X138319047Y-63444476D01*
X139700000Y-64206380D02*
X139128571Y-64206380D01*
X139414285Y-64206380D02*
X139414285Y-63206380D01*
X139319047Y-63349238D01*
X139223809Y-63444476D01*
X139128571Y-63492095D01*
X140080952Y-63301619D02*
X140128571Y-63254000D01*
X140223809Y-63206380D01*
X140461904Y-63206380D01*
X140557142Y-63254000D01*
X140604761Y-63301619D01*
X140652380Y-63396857D01*
X140652380Y-63492095D01*
X140604761Y-63634952D01*
X140033333Y-64206380D01*
X140652380Y-64206380D01*
X140938095Y-63206380D02*
X141271428Y-64206380D01*
X141604761Y-63206380D01*
X132699285Y-63825428D02*
X133461190Y-63825428D01*
X133080238Y-64206380D02*
X133080238Y-63444476D01*
X134413571Y-63206380D02*
X133937380Y-63206380D01*
X133889761Y-63682571D01*
X133937380Y-63634952D01*
X134032619Y-63587333D01*
X134270714Y-63587333D01*
X134365952Y-63634952D01*
X134413571Y-63682571D01*
X134461190Y-63777809D01*
X134461190Y-64015904D01*
X134413571Y-64111142D01*
X134365952Y-64158761D01*
X134270714Y-64206380D01*
X134032619Y-64206380D01*
X133937380Y-64158761D01*
X133889761Y-64111142D01*
X134746904Y-63206380D02*
X135080238Y-64206380D01*
X135413571Y-63206380D01*
D13*
X180500142Y-65067571D02*
X180500142Y-63567571D01*
X181143000Y-64996142D02*
X181357285Y-65067571D01*
X181714428Y-65067571D01*
X181857285Y-64996142D01*
X181928714Y-64924714D01*
X182000142Y-64781857D01*
X182000142Y-64639000D01*
X181928714Y-64496142D01*
X181857285Y-64424714D01*
X181714428Y-64353285D01*
X181428714Y-64281857D01*
X181285857Y-64210428D01*
X181214428Y-64139000D01*
X181143000Y-63996142D01*
X181143000Y-63853285D01*
X181214428Y-63710428D01*
X181285857Y-63639000D01*
X181428714Y-63567571D01*
X181785857Y-63567571D01*
X182000142Y-63639000D01*
X182571571Y-64639000D02*
X183285857Y-64639000D01*
X182428714Y-65067571D02*
X182928714Y-63567571D01*
X183428714Y-65067571D01*
X185071571Y-65067571D02*
X185071571Y-63567571D01*
X185643000Y-63567571D01*
X185785857Y-63639000D01*
X185857285Y-63710428D01*
X185928714Y-63853285D01*
X185928714Y-64067571D01*
X185857285Y-64210428D01*
X185785857Y-64281857D01*
X185643000Y-64353285D01*
X185071571Y-64353285D01*
X186857285Y-63567571D02*
X187143000Y-63567571D01*
X187285857Y-63639000D01*
X187428714Y-63781857D01*
X187500142Y-64067571D01*
X187500142Y-64567571D01*
X187428714Y-64853285D01*
X187285857Y-64996142D01*
X187143000Y-65067571D01*
X186857285Y-65067571D01*
X186714428Y-64996142D01*
X186571571Y-64853285D01*
X186500142Y-64567571D01*
X186500142Y-64067571D01*
X186571571Y-63781857D01*
X186714428Y-63639000D01*
X186857285Y-63567571D01*
X188071571Y-64996142D02*
X188285857Y-65067571D01*
X188643000Y-65067571D01*
X188785857Y-64996142D01*
X188857285Y-64924714D01*
X188928714Y-64781857D01*
X188928714Y-64639000D01*
X188857285Y-64496142D01*
X188785857Y-64424714D01*
X188643000Y-64353285D01*
X188357285Y-64281857D01*
X188214428Y-64210428D01*
X188143000Y-64139000D01*
X188071571Y-63996142D01*
X188071571Y-63853285D01*
X188143000Y-63710428D01*
X188214428Y-63639000D01*
X188357285Y-63567571D01*
X188714428Y-63567571D01*
X188928714Y-63639000D01*
X189357285Y-63567571D02*
X190214428Y-63567571D01*
X189785857Y-65067571D02*
X189785857Y-63567571D01*
X192714428Y-64924714D02*
X192643000Y-64996142D01*
X192428714Y-65067571D01*
X192285857Y-65067571D01*
X192071571Y-64996142D01*
X191928714Y-64853285D01*
X191857285Y-64710428D01*
X191785857Y-64424714D01*
X191785857Y-64210428D01*
X191857285Y-63924714D01*
X191928714Y-63781857D01*
X192071571Y-63639000D01*
X192285857Y-63567571D01*
X192428714Y-63567571D01*
X192643000Y-63639000D01*
X192714428Y-63710428D01*
X193285857Y-64639000D02*
X194000142Y-64639000D01*
X193143000Y-65067571D02*
X193643000Y-63567571D01*
X194143000Y-65067571D01*
X195500142Y-65067571D02*
X195000142Y-64353285D01*
X194643000Y-65067571D02*
X194643000Y-63567571D01*
X195214428Y-63567571D01*
X195357285Y-63639000D01*
X195428714Y-63710428D01*
X195500142Y-63853285D01*
X195500142Y-64067571D01*
X195428714Y-64210428D01*
X195357285Y-64281857D01*
X195214428Y-64353285D01*
X194643000Y-64353285D01*
X196143000Y-65067571D02*
X196143000Y-63567571D01*
X196500142Y-63567571D01*
X196714428Y-63639000D01*
X196857285Y-63781857D01*
X196928714Y-63924714D01*
X197000142Y-64210428D01*
X197000142Y-64424714D01*
X196928714Y-64710428D01*
X196857285Y-64853285D01*
X196714428Y-64996142D01*
X196500142Y-65067571D01*
X196143000Y-65067571D01*
X198643000Y-64067571D02*
X199000142Y-65067571D01*
X199357285Y-64067571D01*
X200643000Y-63567571D02*
X199928714Y-63567571D01*
X199857285Y-64281857D01*
X199928714Y-64210428D01*
X200071571Y-64139000D01*
X200428714Y-64139000D01*
X200571571Y-64210428D01*
X200643000Y-64281857D01*
X200714428Y-64424714D01*
X200714428Y-64781857D01*
X200643000Y-64924714D01*
X200571571Y-64996142D01*
X200428714Y-65067571D01*
X200071571Y-65067571D01*
X199928714Y-64996142D01*
X199857285Y-64924714D01*
X201357285Y-64924714D02*
X201428714Y-64996142D01*
X201357285Y-65067571D01*
X201285857Y-64996142D01*
X201357285Y-64924714D01*
X201357285Y-65067571D01*
X202857285Y-65067571D02*
X202000142Y-65067571D01*
X202428714Y-65067571D02*
X202428714Y-63567571D01*
X202285857Y-63781857D01*
X202143000Y-63924714D01*
X202000142Y-63996142D01*
D12*
X131445000Y-91440000D02*
X131445000Y-96520000D01*
X150495000Y-91440000D02*
X131445000Y-91440000D01*
X150495000Y-96520000D02*
X150495000Y-91440000D01*
X131445000Y-96520000D02*
X150495000Y-96520000D01*
X131445000Y-92980000D02*
G75*
G02X131445000Y-94980000I0J-1000000D01*
G01*
X103378000Y-113538000D02*
X99822000Y-113538000D01*
X103378000Y-115062000D02*
X99822000Y-115062000D01*
X129413000Y-82042000D02*
X129413000Y-85598000D01*
X130937000Y-82042000D02*
X130937000Y-85598000D01*
X166370000Y-72390000D02*
X166370000Y-74930000D01*
X163830000Y-72390000D02*
X166370000Y-72390000D01*
D11*
X171450000Y-74930000D02*
X171450000Y-64770000D01*
X163830000Y-74930000D02*
X171450000Y-74930000D01*
X163830000Y-64770000D02*
X163830000Y-74930000D01*
X171450000Y-64770000D02*
X163830000Y-64770000D01*
D12*
X131445000Y-80010000D02*
X131445000Y-85090000D01*
X150495000Y-80010000D02*
X131445000Y-80010000D01*
X150495000Y-85090000D02*
X150495000Y-80010000D01*
X131445000Y-85090000D02*
X150495000Y-85090000D01*
X131445000Y-81550000D02*
G75*
G02X131445000Y-83550000I0J-1000000D01*
G01*
X174565000Y-102125000D02*
X174565000Y-103775000D01*
X200085000Y-102125000D02*
X174565000Y-102125000D01*
X200085000Y-107425000D02*
X200085000Y-102125000D01*
X174565000Y-107425000D02*
X200085000Y-107425000D01*
X174565000Y-105775000D02*
X174565000Y-107425000D01*
X174565000Y-103775000D02*
G75*
G02X174565000Y-105775000I0J-1000000D01*
G01*
X131445000Y-102870000D02*
X131445000Y-107950000D01*
X150495000Y-102870000D02*
X131445000Y-102870000D01*
X150495000Y-107950000D02*
X150495000Y-102870000D01*
X131445000Y-107950000D02*
X150495000Y-107950000D01*
X131445000Y-104410000D02*
G75*
G02X131445000Y-106410000I0J-1000000D01*
G01*
X163830000Y-104775000D02*
X166370000Y-104775000D01*
X166370000Y-104775000D02*
X166370000Y-84455000D01*
X166370000Y-84455000D02*
X163830000Y-84455000D01*
X163830000Y-84455000D02*
X163830000Y-104775000D01*
X163830000Y-102235000D02*
X166370000Y-102235000D01*
X145415000Y-72290000D02*
X145415000Y-72220000D01*
X146785000Y-73660000D02*
G75*
G03X146785000Y-73660000I-1370000J0D01*
G01*
X151130000Y-72290000D02*
X151130000Y-72220000D01*
X152500000Y-73660000D02*
G75*
G03X152500000Y-73660000I-1370000J0D01*
G01*
X139700000Y-72290000D02*
X139700000Y-72220000D01*
X141070000Y-73660000D02*
G75*
G03X141070000Y-73660000I-1370000J0D01*
G01*
X133985000Y-72290000D02*
X133985000Y-72220000D01*
X135355000Y-73660000D02*
G75*
G03X135355000Y-73660000I-1370000J0D01*
G01*
X158750000Y-72390000D02*
X158750000Y-74930000D01*
X156210000Y-72390000D02*
X158750000Y-72390000D01*
D11*
X163830000Y-74930000D02*
X163830000Y-64770000D01*
X156210000Y-74930000D02*
X163830000Y-74930000D01*
X156210000Y-64770000D02*
X156210000Y-74930000D01*
X163830000Y-64770000D02*
X156210000Y-64770000D01*
D12*
X177800000Y-94615000D02*
X196850000Y-94615000D01*
X177800000Y-89535000D02*
X177800000Y-94615000D01*
X196850000Y-89535000D02*
X177800000Y-89535000D01*
X196850000Y-94615000D02*
X196850000Y-89535000D01*
X196850000Y-93075000D02*
G75*
G02X196850000Y-91075000I0J1000000D01*
G01*
X168275000Y-104775000D02*
X170815000Y-104775000D01*
X170815000Y-104775000D02*
X170815000Y-84455000D01*
X170815000Y-84455000D02*
X168275000Y-84455000D01*
X168275000Y-84455000D02*
X168275000Y-104775000D01*
X168275000Y-102235000D02*
X170815000Y-102235000D01*
X159385000Y-104775000D02*
X161925000Y-104775000D01*
X161925000Y-104775000D02*
X161925000Y-84455000D01*
X161925000Y-84455000D02*
X159385000Y-84455000D01*
X159385000Y-84455000D02*
X159385000Y-104775000D01*
X159385000Y-102235000D02*
X161925000Y-102235000D01*
X154940000Y-104775000D02*
X157480000Y-104775000D01*
X157480000Y-104775000D02*
X157480000Y-84455000D01*
X157480000Y-84455000D02*
X154940000Y-84455000D01*
X154940000Y-84455000D02*
X154940000Y-104775000D01*
X154940000Y-102235000D02*
X157480000Y-102235000D01*
X111125000Y-70526667D02*
X112395000Y-70526667D01*
X112325000Y-71880000D02*
X112325000Y-70526667D01*
X112205000Y-71880000D02*
X112205000Y-70526667D01*
X112085000Y-71880000D02*
X112085000Y-70526667D01*
X111965000Y-71880000D02*
X111965000Y-70526667D01*
X111845000Y-71880000D02*
X111845000Y-70526667D01*
X111725000Y-71880000D02*
X111725000Y-70526667D01*
X111605000Y-71880000D02*
X111605000Y-70526667D01*
X111485000Y-71880000D02*
X111485000Y-70526667D01*
X111365000Y-71880000D02*
X111365000Y-70526667D01*
X111245000Y-71880000D02*
X111245000Y-70526667D01*
X111125000Y-67820000D02*
X111125000Y-71880000D01*
X112395000Y-67820000D02*
X111125000Y-67820000D01*
X112395000Y-71880000D02*
X112395000Y-67820000D01*
X111125000Y-71880000D02*
X112395000Y-71880000D01*
X108585000Y-70526667D02*
X109855000Y-70526667D01*
X109785000Y-71880000D02*
X109785000Y-70526667D01*
X109665000Y-71880000D02*
X109665000Y-70526667D01*
X109545000Y-71880000D02*
X109545000Y-70526667D01*
X109425000Y-71880000D02*
X109425000Y-70526667D01*
X109305000Y-71880000D02*
X109305000Y-70526667D01*
X109185000Y-71880000D02*
X109185000Y-70526667D01*
X109065000Y-71880000D02*
X109065000Y-70526667D01*
X108945000Y-71880000D02*
X108945000Y-70526667D01*
X108825000Y-71880000D02*
X108825000Y-70526667D01*
X108705000Y-71880000D02*
X108705000Y-70526667D01*
X108585000Y-67820000D02*
X108585000Y-71880000D01*
X109855000Y-67820000D02*
X108585000Y-67820000D01*
X109855000Y-71880000D02*
X109855000Y-67820000D01*
X108585000Y-71880000D02*
X109855000Y-71880000D01*
X106045000Y-70526667D02*
X107315000Y-70526667D01*
X107245000Y-71880000D02*
X107245000Y-70526667D01*
X107125000Y-71880000D02*
X107125000Y-70526667D01*
X107005000Y-71880000D02*
X107005000Y-70526667D01*
X106885000Y-71880000D02*
X106885000Y-70526667D01*
X106765000Y-71880000D02*
X106765000Y-70526667D01*
X106645000Y-71880000D02*
X106645000Y-70526667D01*
X106525000Y-71880000D02*
X106525000Y-70526667D01*
X106405000Y-71880000D02*
X106405000Y-70526667D01*
X106285000Y-71880000D02*
X106285000Y-70526667D01*
X106165000Y-71880000D02*
X106165000Y-70526667D01*
X106045000Y-67820000D02*
X106045000Y-71880000D01*
X107315000Y-67820000D02*
X106045000Y-67820000D01*
X107315000Y-71880000D02*
X107315000Y-67820000D01*
X106045000Y-71880000D02*
X107315000Y-71880000D01*
X103505000Y-70526667D02*
X104775000Y-70526667D01*
X104705000Y-71880000D02*
X104705000Y-70526667D01*
X104585000Y-71880000D02*
X104585000Y-70526667D01*
X104465000Y-71880000D02*
X104465000Y-70526667D01*
X104345000Y-71880000D02*
X104345000Y-70526667D01*
X104225000Y-71880000D02*
X104225000Y-70526667D01*
X104105000Y-71880000D02*
X104105000Y-70526667D01*
X103985000Y-71880000D02*
X103985000Y-70526667D01*
X103865000Y-71880000D02*
X103865000Y-70526667D01*
X103745000Y-71880000D02*
X103745000Y-70526667D01*
X103625000Y-71880000D02*
X103625000Y-70526667D01*
X103505000Y-67820000D02*
X103505000Y-71880000D01*
X104775000Y-67820000D02*
X103505000Y-67820000D01*
X104775000Y-71880000D02*
X104775000Y-67820000D01*
X103505000Y-71880000D02*
X104775000Y-71880000D01*
X100965000Y-70526667D02*
X102235000Y-70526667D01*
X102165000Y-71880000D02*
X102165000Y-70526667D01*
X102045000Y-71880000D02*
X102045000Y-70526667D01*
X101925000Y-71880000D02*
X101925000Y-70526667D01*
X101805000Y-71880000D02*
X101805000Y-70526667D01*
X101685000Y-71880000D02*
X101685000Y-70526667D01*
X101565000Y-71880000D02*
X101565000Y-70526667D01*
X101445000Y-71880000D02*
X101445000Y-70526667D01*
X101325000Y-71880000D02*
X101325000Y-70526667D01*
X101205000Y-71880000D02*
X101205000Y-70526667D01*
X101085000Y-71880000D02*
X101085000Y-70526667D01*
X100965000Y-67820000D02*
X100965000Y-71880000D01*
X102235000Y-67820000D02*
X100965000Y-67820000D01*
X102235000Y-71880000D02*
X102235000Y-67820000D01*
X100965000Y-71880000D02*
X102235000Y-71880000D01*
X100330000Y-74800000D02*
X99180000Y-73660000D01*
X99180000Y-64900000D02*
X114180000Y-64900000D01*
X99180000Y-74800000D02*
X114180000Y-74800000D01*
X114180000Y-74800000D02*
X114180000Y-64900000D01*
X99180000Y-74800000D02*
X99180000Y-64900000D01*
X126365000Y-70526667D02*
X127635000Y-70526667D01*
X127565000Y-71880000D02*
X127565000Y-70526667D01*
X127445000Y-71880000D02*
X127445000Y-70526667D01*
X127325000Y-71880000D02*
X127325000Y-70526667D01*
X127205000Y-71880000D02*
X127205000Y-70526667D01*
X127085000Y-71880000D02*
X127085000Y-70526667D01*
X126965000Y-71880000D02*
X126965000Y-70526667D01*
X126845000Y-71880000D02*
X126845000Y-70526667D01*
X126725000Y-71880000D02*
X126725000Y-70526667D01*
X126605000Y-71880000D02*
X126605000Y-70526667D01*
X126485000Y-71880000D02*
X126485000Y-70526667D01*
X126365000Y-67820000D02*
X126365000Y-71880000D01*
X127635000Y-67820000D02*
X126365000Y-67820000D01*
X127635000Y-71880000D02*
X127635000Y-67820000D01*
X126365000Y-71880000D02*
X127635000Y-71880000D01*
X123825000Y-70526667D02*
X125095000Y-70526667D01*
X125025000Y-71880000D02*
X125025000Y-70526667D01*
X124905000Y-71880000D02*
X124905000Y-70526667D01*
X124785000Y-71880000D02*
X124785000Y-70526667D01*
X124665000Y-71880000D02*
X124665000Y-70526667D01*
X124545000Y-71880000D02*
X124545000Y-70526667D01*
X124425000Y-71880000D02*
X124425000Y-70526667D01*
X124305000Y-71880000D02*
X124305000Y-70526667D01*
X124185000Y-71880000D02*
X124185000Y-70526667D01*
X124065000Y-71880000D02*
X124065000Y-70526667D01*
X123945000Y-71880000D02*
X123945000Y-70526667D01*
X123825000Y-67820000D02*
X123825000Y-71880000D01*
X125095000Y-67820000D02*
X123825000Y-67820000D01*
X125095000Y-71880000D02*
X125095000Y-67820000D01*
X123825000Y-71880000D02*
X125095000Y-71880000D01*
X121285000Y-70526667D02*
X122555000Y-70526667D01*
X122485000Y-71880000D02*
X122485000Y-70526667D01*
X122365000Y-71880000D02*
X122365000Y-70526667D01*
X122245000Y-71880000D02*
X122245000Y-70526667D01*
X122125000Y-71880000D02*
X122125000Y-70526667D01*
X122005000Y-71880000D02*
X122005000Y-70526667D01*
X121885000Y-71880000D02*
X121885000Y-70526667D01*
X121765000Y-71880000D02*
X121765000Y-70526667D01*
X121645000Y-71880000D02*
X121645000Y-70526667D01*
X121525000Y-71880000D02*
X121525000Y-70526667D01*
X121405000Y-71880000D02*
X121405000Y-70526667D01*
X121285000Y-67820000D02*
X121285000Y-71880000D01*
X122555000Y-67820000D02*
X121285000Y-67820000D01*
X122555000Y-71880000D02*
X122555000Y-67820000D01*
X121285000Y-71880000D02*
X122555000Y-71880000D01*
X118745000Y-70526667D02*
X120015000Y-70526667D01*
X119945000Y-71880000D02*
X119945000Y-70526667D01*
X119825000Y-71880000D02*
X119825000Y-70526667D01*
X119705000Y-71880000D02*
X119705000Y-70526667D01*
X119585000Y-71880000D02*
X119585000Y-70526667D01*
X119465000Y-71880000D02*
X119465000Y-70526667D01*
X119345000Y-71880000D02*
X119345000Y-70526667D01*
X119225000Y-71880000D02*
X119225000Y-70526667D01*
X119105000Y-71880000D02*
X119105000Y-70526667D01*
X118985000Y-71880000D02*
X118985000Y-70526667D01*
X118865000Y-71880000D02*
X118865000Y-70526667D01*
X118745000Y-67820000D02*
X118745000Y-71880000D01*
X120015000Y-67820000D02*
X118745000Y-67820000D01*
X120015000Y-71880000D02*
X120015000Y-67820000D01*
X118745000Y-71880000D02*
X120015000Y-71880000D01*
X116205000Y-70526667D02*
X117475000Y-70526667D01*
X117405000Y-71880000D02*
X117405000Y-70526667D01*
X117285000Y-71880000D02*
X117285000Y-70526667D01*
X117165000Y-71880000D02*
X117165000Y-70526667D01*
X117045000Y-71880000D02*
X117045000Y-70526667D01*
X116925000Y-71880000D02*
X116925000Y-70526667D01*
X116805000Y-71880000D02*
X116805000Y-70526667D01*
X116685000Y-71880000D02*
X116685000Y-70526667D01*
X116565000Y-71880000D02*
X116565000Y-70526667D01*
X116445000Y-71880000D02*
X116445000Y-70526667D01*
X116325000Y-71880000D02*
X116325000Y-70526667D01*
X116205000Y-67820000D02*
X116205000Y-71880000D01*
X117475000Y-67820000D02*
X116205000Y-67820000D01*
X117475000Y-71880000D02*
X117475000Y-67820000D01*
X116205000Y-71880000D02*
X117475000Y-71880000D01*
X115570000Y-74800000D02*
X114420000Y-73660000D01*
X114420000Y-64900000D02*
X129420000Y-64900000D01*
X114420000Y-74800000D02*
X129420000Y-74800000D01*
X129420000Y-74800000D02*
X129420000Y-64900000D01*
X114420000Y-74800000D02*
X114420000Y-64900000D01*
X200085000Y-92185000D02*
X200085000Y-90535000D01*
X174565000Y-92185000D02*
X200085000Y-92185000D01*
X174565000Y-86885000D02*
X174565000Y-92185000D01*
X200085000Y-86885000D02*
X174565000Y-86885000D01*
X200085000Y-88535000D02*
X200085000Y-86885000D01*
X200085000Y-90535000D02*
G75*
G02X200085000Y-88535000I0J1000000D01*
G01*
X177800000Y-76835000D02*
X196850000Y-76835000D01*
X177800000Y-71755000D02*
X177800000Y-76835000D01*
X196850000Y-71755000D02*
X177800000Y-71755000D01*
X196850000Y-76835000D02*
X196850000Y-71755000D01*
X196850000Y-75295000D02*
G75*
G02X196850000Y-73295000I0J1000000D01*
G01*
X200085000Y-79485000D02*
X200085000Y-77835000D01*
X174565000Y-79485000D02*
X200085000Y-79485000D01*
X174565000Y-74185000D02*
X174565000Y-79485000D01*
X200085000Y-74185000D02*
X174565000Y-74185000D01*
X200085000Y-75835000D02*
X200085000Y-74185000D01*
X200085000Y-77835000D02*
G75*
G02X200085000Y-75835000I0J1000000D01*
G01*
X152209500Y-68389500D02*
X152781000Y-68389500D01*
X149479000Y-68389500D02*
X150050500Y-68389500D01*
X152209837Y-66268870D02*
G75*
G02X152210000Y-68350961I-1079837J-1041130D01*
G01*
X150050163Y-66268870D02*
G75*
G03X150050000Y-68350961I1079837J-1041130D01*
G01*
X152199174Y-65652294D02*
G75*
G02X152781000Y-68389500I-1069174J-1657706D01*
G01*
X150060827Y-65652293D02*
G75*
G03X149479000Y-68389500I1069173J-1657707D01*
G01*
X146494500Y-68389500D02*
X147066000Y-68389500D01*
X143764000Y-68389500D02*
X144335500Y-68389500D01*
X146494837Y-66268870D02*
G75*
G02X146495000Y-68350961I-1079837J-1041130D01*
G01*
X144335163Y-66268870D02*
G75*
G03X144335000Y-68350961I1079837J-1041130D01*
G01*
X146484174Y-65652294D02*
G75*
G02X147066000Y-68389500I-1069174J-1657706D01*
G01*
X144345827Y-65652293D02*
G75*
G03X143764000Y-68389500I1069173J-1657707D01*
G01*
X138620500Y-66230500D02*
X138049000Y-66230500D01*
X141351000Y-66230500D02*
X140779500Y-66230500D01*
X138620163Y-68351130D02*
G75*
G02X138620000Y-66269039I1079837J1041130D01*
G01*
X140779837Y-68351130D02*
G75*
G03X140780000Y-66269039I-1079837J1041130D01*
G01*
X138630826Y-68967706D02*
G75*
G02X138049000Y-66230500I1069174J1657706D01*
G01*
X140769173Y-68967707D02*
G75*
G03X141351000Y-66230500I-1069173J1657707D01*
G01*
X132905500Y-66230500D02*
X132334000Y-66230500D01*
X135636000Y-66230500D02*
X135064500Y-66230500D01*
X132905163Y-68351130D02*
G75*
G02X132905000Y-66269039I1079837J1041130D01*
G01*
X135064837Y-68351130D02*
G75*
G03X135065000Y-66269039I-1079837J1041130D01*
G01*
X132915826Y-68967706D02*
G75*
G02X132334000Y-66230500I1069174J1657706D01*
G01*
X135054173Y-68967707D02*
G75*
G03X135636000Y-66230500I-1069173J1657707D01*
G01*
X101600000Y-76835000D02*
X101600000Y-79375000D01*
X114300000Y-76835000D02*
X99060000Y-76835000D01*
X114300000Y-79375000D02*
X114300000Y-76835000D01*
X99060000Y-79375000D02*
X114300000Y-79375000D01*
X99060000Y-76835000D02*
X99060000Y-79375000D01*
X116840000Y-76835000D02*
X116840000Y-79375000D01*
X129540000Y-76835000D02*
X114300000Y-76835000D01*
X129540000Y-79375000D02*
X129540000Y-76835000D01*
X114300000Y-79375000D02*
X129540000Y-79375000D01*
X114300000Y-76835000D02*
X114300000Y-79375000D01*
X100270000Y-86250000D02*
X100270000Y-87900000D01*
X125790000Y-86250000D02*
X100270000Y-86250000D01*
X125790000Y-91550000D02*
X125790000Y-86250000D01*
X100270000Y-91550000D02*
X125790000Y-91550000D01*
X100270000Y-89900000D02*
X100270000Y-91550000D01*
X100270000Y-87900000D02*
G75*
G02X100270000Y-89900000I0J-1000000D01*
G01*
X100270000Y-100220000D02*
X100270000Y-101870000D01*
X125790000Y-100220000D02*
X100270000Y-100220000D01*
X125790000Y-105520000D02*
X125790000Y-100220000D01*
X100270000Y-105520000D02*
X125790000Y-105520000D01*
X100270000Y-103870000D02*
X100270000Y-105520000D01*
X100270000Y-101870000D02*
G75*
G02X100270000Y-103870000I0J-1000000D01*
G01*
X176935000Y-67945000D02*
X177705000Y-67945000D01*
X185015000Y-67945000D02*
X184245000Y-67945000D01*
X177705000Y-69215000D02*
X184245000Y-69215000D01*
X177705000Y-66675000D02*
X177705000Y-69215000D01*
X184245000Y-66675000D02*
X177705000Y-66675000D01*
X184245000Y-69215000D02*
X184245000Y-66675000D01*
X129413000Y-90932000D02*
X129413000Y-94488000D01*
X130937000Y-90932000D02*
X130937000Y-94488000D01*
X130937000Y-102362000D02*
X130937000Y-105918000D01*
X129413000Y-102362000D02*
X129413000Y-105918000D01*
X105918000Y-83312000D02*
X102362000Y-83312000D01*
X105918000Y-81788000D02*
X102362000Y-81788000D01*
X105918000Y-95758000D02*
X102362000Y-95758000D01*
X105918000Y-97282000D02*
X102362000Y-97282000D01*
X196977000Y-82423000D02*
X200533000Y-82423000D01*
X196977000Y-83947000D02*
X200533000Y-83947000D01*
X196977000Y-99187000D02*
X200533000Y-99187000D01*
X196977000Y-97663000D02*
X200533000Y-97663000D01*
X200533000Y-103632000D02*
X200533000Y-107188000D01*
X202057000Y-103632000D02*
X202057000Y-107188000D01*
D11*
X180641666Y-116927380D02*
X180641666Y-117641666D01*
X180594047Y-117784523D01*
X180498809Y-117879761D01*
X180355952Y-117927380D01*
X180260714Y-117927380D01*
X181070238Y-117022619D02*
X181117857Y-116975000D01*
X181213095Y-116927380D01*
X181451190Y-116927380D01*
X181546428Y-116975000D01*
X181594047Y-117022619D01*
X181641666Y-117117857D01*
X181641666Y-117213095D01*
X181594047Y-117355952D01*
X181022619Y-117927380D01*
X181641666Y-117927380D01*
X132588095Y-99147380D02*
X132588095Y-99956904D01*
X132635714Y-100052142D01*
X132683333Y-100099761D01*
X132778571Y-100147380D01*
X132969047Y-100147380D01*
X133064285Y-100099761D01*
X133111904Y-100052142D01*
X133159523Y-99956904D01*
X133159523Y-99147380D01*
X133540476Y-99147380D02*
X134207142Y-99147380D01*
X133778571Y-100147380D01*
X136692142Y-99147380D02*
X137358809Y-99147380D01*
X136930238Y-100147380D01*
X138168333Y-99480714D02*
X138168333Y-100147380D01*
X137930238Y-99099761D02*
X137692142Y-99814047D01*
X138311190Y-99814047D01*
X138692142Y-100147380D02*
X138692142Y-99147380D01*
X138692142Y-99623571D02*
X139263571Y-99623571D01*
X139263571Y-100147380D02*
X139263571Y-99147380D01*
X140311190Y-100052142D02*
X140263571Y-100099761D01*
X140120714Y-100147380D01*
X140025476Y-100147380D01*
X139882619Y-100099761D01*
X139787380Y-100004523D01*
X139739761Y-99909285D01*
X139692142Y-99718809D01*
X139692142Y-99575952D01*
X139739761Y-99385476D01*
X139787380Y-99290238D01*
X139882619Y-99195000D01*
X140025476Y-99147380D01*
X140120714Y-99147380D01*
X140263571Y-99195000D01*
X140311190Y-99242619D01*
X140596904Y-99147380D02*
X141168333Y-99147380D01*
X140882619Y-100147380D02*
X140882619Y-99147380D01*
X142025476Y-100147380D02*
X141454047Y-100147380D01*
X141739761Y-100147380D02*
X141739761Y-99147380D01*
X141644523Y-99290238D01*
X141549285Y-99385476D01*
X141454047Y-99433095D01*
X142358809Y-99147380D02*
X142977857Y-99147380D01*
X142644523Y-99528333D01*
X142787380Y-99528333D01*
X142882619Y-99575952D01*
X142930238Y-99623571D01*
X142977857Y-99718809D01*
X142977857Y-99956904D01*
X142930238Y-100052142D01*
X142882619Y-100099761D01*
X142787380Y-100147380D01*
X142501666Y-100147380D01*
X142406428Y-100099761D01*
X142358809Y-100052142D01*
X143358809Y-99242619D02*
X143406428Y-99195000D01*
X143501666Y-99147380D01*
X143739761Y-99147380D01*
X143835000Y-99195000D01*
X143882619Y-99242619D01*
X143930238Y-99337857D01*
X143930238Y-99433095D01*
X143882619Y-99575952D01*
X143311190Y-100147380D01*
X143930238Y-100147380D01*
X98893333Y-116562142D02*
X98845714Y-116609761D01*
X98702857Y-116657380D01*
X98607619Y-116657380D01*
X98464761Y-116609761D01*
X98369523Y-116514523D01*
X98321904Y-116419285D01*
X98274285Y-116228809D01*
X98274285Y-116085952D01*
X98321904Y-115895476D01*
X98369523Y-115800238D01*
X98464761Y-115705000D01*
X98607619Y-115657380D01*
X98702857Y-115657380D01*
X98845714Y-115705000D01*
X98893333Y-115752619D01*
X99369523Y-116657380D02*
X99560000Y-116657380D01*
X99655238Y-116609761D01*
X99702857Y-116562142D01*
X99798095Y-116419285D01*
X99845714Y-116228809D01*
X99845714Y-115847857D01*
X99798095Y-115752619D01*
X99750476Y-115705000D01*
X99655238Y-115657380D01*
X99464761Y-115657380D01*
X99369523Y-115705000D01*
X99321904Y-115752619D01*
X99274285Y-115847857D01*
X99274285Y-116085952D01*
X99321904Y-116181190D01*
X99369523Y-116228809D01*
X99464761Y-116276428D01*
X99655238Y-116276428D01*
X99750476Y-116228809D01*
X99798095Y-116181190D01*
X99845714Y-116085952D01*
X102433571Y-116657380D02*
X101862142Y-116657380D01*
X102147857Y-116657380D02*
X102147857Y-115657380D01*
X102052619Y-115800238D01*
X101957380Y-115895476D01*
X101862142Y-115943095D01*
X103052619Y-115657380D02*
X103147857Y-115657380D01*
X103243095Y-115705000D01*
X103290714Y-115752619D01*
X103338333Y-115847857D01*
X103385952Y-116038333D01*
X103385952Y-116276428D01*
X103338333Y-116466904D01*
X103290714Y-116562142D01*
X103243095Y-116609761D01*
X103147857Y-116657380D01*
X103052619Y-116657380D01*
X102957380Y-116609761D01*
X102909761Y-116562142D01*
X102862142Y-116466904D01*
X102814523Y-116276428D01*
X102814523Y-116038333D01*
X102862142Y-115847857D01*
X102909761Y-115752619D01*
X102957380Y-115705000D01*
X103052619Y-115657380D01*
X104243095Y-115990714D02*
X104243095Y-116657380D01*
X103814523Y-115990714D02*
X103814523Y-116514523D01*
X103862142Y-116609761D01*
X103957380Y-116657380D01*
X104100238Y-116657380D01*
X104195476Y-116609761D01*
X104243095Y-116562142D01*
X105052619Y-116133571D02*
X104719285Y-116133571D01*
X104719285Y-116657380D02*
X104719285Y-115657380D01*
X105195476Y-115657380D01*
X128627142Y-86526666D02*
X128674761Y-86574285D01*
X128722380Y-86717142D01*
X128722380Y-86812380D01*
X128674761Y-86955238D01*
X128579523Y-87050476D01*
X128484285Y-87098095D01*
X128293809Y-87145714D01*
X128150952Y-87145714D01*
X127960476Y-87098095D01*
X127865238Y-87050476D01*
X127770000Y-86955238D01*
X127722380Y-86812380D01*
X127722380Y-86717142D01*
X127770000Y-86574285D01*
X127817619Y-86526666D01*
X128150952Y-85955238D02*
X128103333Y-86050476D01*
X128055714Y-86098095D01*
X127960476Y-86145714D01*
X127912857Y-86145714D01*
X127817619Y-86098095D01*
X127770000Y-86050476D01*
X127722380Y-85955238D01*
X127722380Y-85764761D01*
X127770000Y-85669523D01*
X127817619Y-85621904D01*
X127912857Y-85574285D01*
X127960476Y-85574285D01*
X128055714Y-85621904D01*
X128103333Y-85669523D01*
X128150952Y-85764761D01*
X128150952Y-85955238D01*
X128198571Y-86050476D01*
X128246190Y-86098095D01*
X128341428Y-86145714D01*
X128531904Y-86145714D01*
X128627142Y-86098095D01*
X128674761Y-86050476D01*
X128722380Y-85955238D01*
X128722380Y-85764761D01*
X128674761Y-85669523D01*
X128627142Y-85621904D01*
X128531904Y-85574285D01*
X128341428Y-85574285D01*
X128246190Y-85621904D01*
X128198571Y-85669523D01*
X128150952Y-85764761D01*
X127722380Y-84192857D02*
X127722380Y-84097619D01*
X127770000Y-84002380D01*
X127817619Y-83954761D01*
X127912857Y-83907142D01*
X128103333Y-83859523D01*
X128341428Y-83859523D01*
X128531904Y-83907142D01*
X128627142Y-83954761D01*
X128674761Y-84002380D01*
X128722380Y-84097619D01*
X128722380Y-84192857D01*
X128674761Y-84288095D01*
X128627142Y-84335714D01*
X128531904Y-84383333D01*
X128341428Y-84430952D01*
X128103333Y-84430952D01*
X127912857Y-84383333D01*
X127817619Y-84335714D01*
X127770000Y-84288095D01*
X127722380Y-84192857D01*
X128627142Y-83430952D02*
X128674761Y-83383333D01*
X128722380Y-83430952D01*
X128674761Y-83478571D01*
X128627142Y-83430952D01*
X128722380Y-83430952D01*
X128722380Y-82430952D02*
X128722380Y-83002380D01*
X128722380Y-82716666D02*
X127722380Y-82716666D01*
X127865238Y-82811904D01*
X127960476Y-82907142D01*
X128008095Y-83002380D01*
X128055714Y-81573809D02*
X128722380Y-81573809D01*
X128055714Y-82002380D02*
X128579523Y-82002380D01*
X128674761Y-81954761D01*
X128722380Y-81859523D01*
X128722380Y-81716666D01*
X128674761Y-81621428D01*
X128627142Y-81573809D01*
X128198571Y-80764285D02*
X128198571Y-81097619D01*
X128722380Y-81097619D02*
X127722380Y-81097619D01*
X127722380Y-80621428D01*
X166520952Y-64333380D02*
X166044761Y-64333380D01*
X166044761Y-63333380D01*
X166854285Y-63809571D02*
X167187619Y-63809571D01*
X167330476Y-64333380D02*
X166854285Y-64333380D01*
X166854285Y-63333380D01*
X167330476Y-63333380D01*
X167759047Y-64333380D02*
X167759047Y-63333380D01*
X167997142Y-63333380D01*
X168140000Y-63381000D01*
X168235238Y-63476238D01*
X168282857Y-63571476D01*
X168330476Y-63761952D01*
X168330476Y-63904809D01*
X168282857Y-64095285D01*
X168235238Y-64190523D01*
X168140000Y-64285761D01*
X167997142Y-64333380D01*
X167759047Y-64333380D01*
X169282857Y-64333380D02*
X168711428Y-64333380D01*
X168997142Y-64333380D02*
X168997142Y-63333380D01*
X168901904Y-63476238D01*
X168806666Y-63571476D01*
X168711428Y-63619095D01*
X173172380Y-73850000D02*
X173172380Y-74326190D01*
X172172380Y-74326190D01*
X172172380Y-73659523D02*
X172172380Y-73088095D01*
X173172380Y-73373809D02*
X172172380Y-73373809D01*
X173124761Y-72802380D02*
X173172380Y-72659523D01*
X173172380Y-72421428D01*
X173124761Y-72326190D01*
X173077142Y-72278571D01*
X172981904Y-72230952D01*
X172886666Y-72230952D01*
X172791428Y-72278571D01*
X172743809Y-72326190D01*
X172696190Y-72421428D01*
X172648571Y-72611904D01*
X172600952Y-72707142D01*
X172553333Y-72754761D01*
X172458095Y-72802380D01*
X172362857Y-72802380D01*
X172267619Y-72754761D01*
X172220000Y-72707142D01*
X172172380Y-72611904D01*
X172172380Y-72373809D01*
X172220000Y-72230952D01*
X172791428Y-71802380D02*
X172791428Y-71040476D01*
X172267619Y-70611904D02*
X172220000Y-70564285D01*
X172172380Y-70469047D01*
X172172380Y-70230952D01*
X172220000Y-70135714D01*
X172267619Y-70088095D01*
X172362857Y-70040476D01*
X172458095Y-70040476D01*
X172600952Y-70088095D01*
X173172380Y-70659523D01*
X173172380Y-70040476D01*
X172600952Y-69469047D02*
X172553333Y-69564285D01*
X172505714Y-69611904D01*
X172410476Y-69659523D01*
X172362857Y-69659523D01*
X172267619Y-69611904D01*
X172220000Y-69564285D01*
X172172380Y-69469047D01*
X172172380Y-69278571D01*
X172220000Y-69183333D01*
X172267619Y-69135714D01*
X172362857Y-69088095D01*
X172410476Y-69088095D01*
X172505714Y-69135714D01*
X172553333Y-69183333D01*
X172600952Y-69278571D01*
X172600952Y-69469047D01*
X172648571Y-69564285D01*
X172696190Y-69611904D01*
X172791428Y-69659523D01*
X172981904Y-69659523D01*
X173077142Y-69611904D01*
X173124761Y-69564285D01*
X173172380Y-69469047D01*
X173172380Y-69278571D01*
X173124761Y-69183333D01*
X173077142Y-69135714D01*
X172981904Y-69088095D01*
X172791428Y-69088095D01*
X172696190Y-69135714D01*
X172648571Y-69183333D01*
X172600952Y-69278571D01*
X172172380Y-68469047D02*
X172172380Y-68373809D01*
X172220000Y-68278571D01*
X172267619Y-68230952D01*
X172362857Y-68183333D01*
X172553333Y-68135714D01*
X172791428Y-68135714D01*
X172981904Y-68183333D01*
X173077142Y-68230952D01*
X173124761Y-68278571D01*
X173172380Y-68373809D01*
X173172380Y-68469047D01*
X173124761Y-68564285D01*
X173077142Y-68611904D01*
X172981904Y-68659523D01*
X172791428Y-68707142D01*
X172553333Y-68707142D01*
X172362857Y-68659523D01*
X172267619Y-68611904D01*
X172220000Y-68564285D01*
X172172380Y-68469047D01*
X173172380Y-67183333D02*
X173172380Y-67754761D01*
X173172380Y-67469047D02*
X172172380Y-67469047D01*
X172315238Y-67564285D01*
X172410476Y-67659523D01*
X172458095Y-67754761D01*
X172886666Y-66802380D02*
X172886666Y-66326190D01*
X173172380Y-66897619D02*
X172172380Y-66564285D01*
X173172380Y-66230952D01*
X172220000Y-65373809D02*
X172172380Y-65469047D01*
X172172380Y-65611904D01*
X172220000Y-65754761D01*
X172315238Y-65850000D01*
X172410476Y-65897619D01*
X172600952Y-65945238D01*
X172743809Y-65945238D01*
X172934285Y-65897619D01*
X173029523Y-65850000D01*
X173124761Y-65754761D01*
X173172380Y-65611904D01*
X173172380Y-65516666D01*
X173124761Y-65373809D01*
X173077142Y-65326190D01*
X172743809Y-65326190D01*
X172743809Y-65516666D01*
X132588095Y-87717380D02*
X132588095Y-88526904D01*
X132635714Y-88622142D01*
X132683333Y-88669761D01*
X132778571Y-88717380D01*
X132969047Y-88717380D01*
X133064285Y-88669761D01*
X133111904Y-88622142D01*
X133159523Y-88526904D01*
X133159523Y-87717380D01*
X133778571Y-88145952D02*
X133683333Y-88098333D01*
X133635714Y-88050714D01*
X133588095Y-87955476D01*
X133588095Y-87907857D01*
X133635714Y-87812619D01*
X133683333Y-87765000D01*
X133778571Y-87717380D01*
X133969047Y-87717380D01*
X134064285Y-87765000D01*
X134111904Y-87812619D01*
X134159523Y-87907857D01*
X134159523Y-87955476D01*
X134111904Y-88050714D01*
X134064285Y-88098333D01*
X133969047Y-88145952D01*
X133778571Y-88145952D01*
X133683333Y-88193571D01*
X133635714Y-88241190D01*
X133588095Y-88336428D01*
X133588095Y-88526904D01*
X133635714Y-88622142D01*
X133683333Y-88669761D01*
X133778571Y-88717380D01*
X133969047Y-88717380D01*
X134064285Y-88669761D01*
X134111904Y-88622142D01*
X134159523Y-88526904D01*
X134159523Y-88336428D01*
X134111904Y-88241190D01*
X134064285Y-88193571D01*
X133969047Y-88145952D01*
X137692142Y-87717380D02*
X138358809Y-87717380D01*
X137930238Y-88717380D01*
X139168333Y-88050714D02*
X139168333Y-88717380D01*
X138930238Y-87669761D02*
X138692142Y-88384047D01*
X139311190Y-88384047D01*
X140168333Y-88717380D02*
X139692142Y-88717380D01*
X139692142Y-87717380D01*
X140454047Y-88669761D02*
X140596904Y-88717380D01*
X140835000Y-88717380D01*
X140930238Y-88669761D01*
X140977857Y-88622142D01*
X141025476Y-88526904D01*
X141025476Y-88431666D01*
X140977857Y-88336428D01*
X140930238Y-88288809D01*
X140835000Y-88241190D01*
X140644523Y-88193571D01*
X140549285Y-88145952D01*
X140501666Y-88098333D01*
X140454047Y-88003095D01*
X140454047Y-87907857D01*
X140501666Y-87812619D01*
X140549285Y-87765000D01*
X140644523Y-87717380D01*
X140882619Y-87717380D01*
X141025476Y-87765000D01*
X141358809Y-87717380D02*
X142025476Y-87717380D01*
X141596904Y-88717380D01*
X142835000Y-88050714D02*
X142835000Y-88717380D01*
X142596904Y-87669761D02*
X142358809Y-88384047D01*
X142977857Y-88384047D01*
X175260095Y-109942380D02*
X175260095Y-110751904D01*
X175307714Y-110847142D01*
X175355333Y-110894761D01*
X175450571Y-110942380D01*
X175641047Y-110942380D01*
X175736285Y-110894761D01*
X175783904Y-110847142D01*
X175831523Y-110751904D01*
X175831523Y-109942380D01*
X176831523Y-110942380D02*
X176260095Y-110942380D01*
X176545809Y-110942380D02*
X176545809Y-109942380D01*
X176450571Y-110085238D01*
X176355333Y-110180476D01*
X176260095Y-110228095D01*
X179945357Y-109942380D02*
X180612023Y-109942380D01*
X180183452Y-110942380D01*
X181421547Y-110275714D02*
X181421547Y-110942380D01*
X181183452Y-109894761D02*
X180945357Y-110609047D01*
X181564404Y-110609047D01*
X181897738Y-110656666D02*
X182373928Y-110656666D01*
X181802500Y-110942380D02*
X182135833Y-109942380D01*
X182469166Y-110942380D01*
X183278690Y-110942380D02*
X182802500Y-110942380D01*
X182802500Y-109942380D01*
X183564404Y-110894761D02*
X183707261Y-110942380D01*
X183945357Y-110942380D01*
X184040595Y-110894761D01*
X184088214Y-110847142D01*
X184135833Y-110751904D01*
X184135833Y-110656666D01*
X184088214Y-110561428D01*
X184040595Y-110513809D01*
X183945357Y-110466190D01*
X183754880Y-110418571D01*
X183659642Y-110370952D01*
X183612023Y-110323333D01*
X183564404Y-110228095D01*
X183564404Y-110132857D01*
X183612023Y-110037619D01*
X183659642Y-109990000D01*
X183754880Y-109942380D01*
X183992976Y-109942380D01*
X184135833Y-109990000D01*
X184516785Y-110037619D02*
X184564404Y-109990000D01*
X184659642Y-109942380D01*
X184897738Y-109942380D01*
X184992976Y-109990000D01*
X185040595Y-110037619D01*
X185088214Y-110132857D01*
X185088214Y-110228095D01*
X185040595Y-110370952D01*
X184469166Y-110942380D01*
X185088214Y-110942380D01*
X185421547Y-109942380D02*
X186088214Y-109942380D01*
X185659642Y-110942380D01*
X186373928Y-109942380D02*
X186992976Y-109942380D01*
X186659642Y-110323333D01*
X186802500Y-110323333D01*
X186897738Y-110370952D01*
X186945357Y-110418571D01*
X186992976Y-110513809D01*
X186992976Y-110751904D01*
X186945357Y-110847142D01*
X186897738Y-110894761D01*
X186802500Y-110942380D01*
X186516785Y-110942380D01*
X186421547Y-110894761D01*
X186373928Y-110847142D01*
X132588095Y-110577380D02*
X132588095Y-111386904D01*
X132635714Y-111482142D01*
X132683333Y-111529761D01*
X132778571Y-111577380D01*
X132969047Y-111577380D01*
X133064285Y-111529761D01*
X133111904Y-111482142D01*
X133159523Y-111386904D01*
X133159523Y-110577380D01*
X134064285Y-110577380D02*
X133873809Y-110577380D01*
X133778571Y-110625000D01*
X133730952Y-110672619D01*
X133635714Y-110815476D01*
X133588095Y-111005952D01*
X133588095Y-111386904D01*
X133635714Y-111482142D01*
X133683333Y-111529761D01*
X133778571Y-111577380D01*
X133969047Y-111577380D01*
X134064285Y-111529761D01*
X134111904Y-111482142D01*
X134159523Y-111386904D01*
X134159523Y-111148809D01*
X134111904Y-111053571D01*
X134064285Y-111005952D01*
X133969047Y-110958333D01*
X133778571Y-110958333D01*
X133683333Y-111005952D01*
X133635714Y-111053571D01*
X133588095Y-111148809D01*
X136692142Y-110577380D02*
X137358809Y-110577380D01*
X136930238Y-111577380D01*
X138168333Y-110910714D02*
X138168333Y-111577380D01*
X137930238Y-110529761D02*
X137692142Y-111244047D01*
X138311190Y-111244047D01*
X138692142Y-111577380D02*
X138692142Y-110577380D01*
X138692142Y-111053571D02*
X139263571Y-111053571D01*
X139263571Y-111577380D02*
X139263571Y-110577380D01*
X140311190Y-111482142D02*
X140263571Y-111529761D01*
X140120714Y-111577380D01*
X140025476Y-111577380D01*
X139882619Y-111529761D01*
X139787380Y-111434523D01*
X139739761Y-111339285D01*
X139692142Y-111148809D01*
X139692142Y-111005952D01*
X139739761Y-110815476D01*
X139787380Y-110720238D01*
X139882619Y-110625000D01*
X140025476Y-110577380D01*
X140120714Y-110577380D01*
X140263571Y-110625000D01*
X140311190Y-110672619D01*
X140596904Y-110577380D02*
X141168333Y-110577380D01*
X140882619Y-111577380D02*
X140882619Y-110577380D01*
X142025476Y-111577380D02*
X141454047Y-111577380D01*
X141739761Y-111577380D02*
X141739761Y-110577380D01*
X141644523Y-110720238D01*
X141549285Y-110815476D01*
X141454047Y-110863095D01*
X142358809Y-110577380D02*
X142977857Y-110577380D01*
X142644523Y-110958333D01*
X142787380Y-110958333D01*
X142882619Y-111005952D01*
X142930238Y-111053571D01*
X142977857Y-111148809D01*
X142977857Y-111386904D01*
X142930238Y-111482142D01*
X142882619Y-111529761D01*
X142787380Y-111577380D01*
X142501666Y-111577380D01*
X142406428Y-111529761D01*
X142358809Y-111482142D01*
X143358809Y-110672619D02*
X143406428Y-110625000D01*
X143501666Y-110577380D01*
X143739761Y-110577380D01*
X143835000Y-110625000D01*
X143882619Y-110672619D01*
X143930238Y-110767857D01*
X143930238Y-110863095D01*
X143882619Y-111005952D01*
X143311190Y-111577380D01*
X143930238Y-111577380D01*
X164409523Y-106497380D02*
X164076190Y-106021190D01*
X163838095Y-106497380D02*
X163838095Y-105497380D01*
X164219047Y-105497380D01*
X164314285Y-105545000D01*
X164361904Y-105592619D01*
X164409523Y-105687857D01*
X164409523Y-105830714D01*
X164361904Y-105925952D01*
X164314285Y-105973571D01*
X164219047Y-106021190D01*
X163838095Y-106021190D01*
X164838095Y-106497380D02*
X164838095Y-105497380D01*
X165409523Y-106497380D01*
X165409523Y-105497380D01*
X166361904Y-105497380D02*
X165885714Y-105497380D01*
X165838095Y-105973571D01*
X165885714Y-105925952D01*
X165980952Y-105878333D01*
X166219047Y-105878333D01*
X166314285Y-105925952D01*
X166361904Y-105973571D01*
X166409523Y-106068809D01*
X166409523Y-106306904D01*
X166361904Y-106402142D01*
X166314285Y-106449761D01*
X166219047Y-106497380D01*
X165980952Y-106497380D01*
X165885714Y-106449761D01*
X165838095Y-106402142D01*
X164980952Y-107767380D02*
X164409523Y-107767380D01*
X164695238Y-107767380D02*
X164695238Y-106767380D01*
X164600000Y-106910238D01*
X164504761Y-107005476D01*
X164409523Y-107053095D01*
X165409523Y-107767380D02*
X165409523Y-106767380D01*
X165504761Y-107386428D02*
X165790476Y-107767380D01*
X165790476Y-107100714D02*
X165409523Y-107481666D01*
X148407380Y-74302857D02*
X147931190Y-74636190D01*
X148407380Y-74874285D02*
X147407380Y-74874285D01*
X147407380Y-74493333D01*
X147455000Y-74398095D01*
X147502619Y-74350476D01*
X147597857Y-74302857D01*
X147740714Y-74302857D01*
X147835952Y-74350476D01*
X147883571Y-74398095D01*
X147931190Y-74493333D01*
X147931190Y-74874285D01*
X148407380Y-73350476D02*
X148407380Y-73921904D01*
X148407380Y-73636190D02*
X147407380Y-73636190D01*
X147550238Y-73731428D01*
X147645476Y-73826666D01*
X147693095Y-73921904D01*
X147740714Y-72493333D02*
X148407380Y-72493333D01*
X147359761Y-72731428D02*
X148074047Y-72969523D01*
X148074047Y-72350476D01*
X147502619Y-71254761D02*
X147455000Y-71207142D01*
X147407380Y-71111904D01*
X147407380Y-70873809D01*
X147455000Y-70778571D01*
X147502619Y-70730952D01*
X147597857Y-70683333D01*
X147693095Y-70683333D01*
X147835952Y-70730952D01*
X148407380Y-71302380D01*
X148407380Y-70683333D01*
X148312142Y-70254761D02*
X148359761Y-70207142D01*
X148407380Y-70254761D01*
X148359761Y-70302380D01*
X148312142Y-70254761D01*
X148407380Y-70254761D01*
X147740714Y-69350000D02*
X148407380Y-69350000D01*
X147359761Y-69588095D02*
X148074047Y-69826190D01*
X148074047Y-69207142D01*
X148407380Y-68826190D02*
X147407380Y-68826190D01*
X148026428Y-68730952D02*
X148407380Y-68445238D01*
X147740714Y-68445238D02*
X148121666Y-68826190D01*
X154122380Y-74302857D02*
X153646190Y-74636190D01*
X154122380Y-74874285D02*
X153122380Y-74874285D01*
X153122380Y-74493333D01*
X153170000Y-74398095D01*
X153217619Y-74350476D01*
X153312857Y-74302857D01*
X153455714Y-74302857D01*
X153550952Y-74350476D01*
X153598571Y-74398095D01*
X153646190Y-74493333D01*
X153646190Y-74874285D01*
X154122380Y-73350476D02*
X154122380Y-73921904D01*
X154122380Y-73636190D02*
X153122380Y-73636190D01*
X153265238Y-73731428D01*
X153360476Y-73826666D01*
X153408095Y-73921904D01*
X153122380Y-73017142D02*
X153122380Y-72398095D01*
X153503333Y-72731428D01*
X153503333Y-72588571D01*
X153550952Y-72493333D01*
X153598571Y-72445714D01*
X153693809Y-72398095D01*
X153931904Y-72398095D01*
X154027142Y-72445714D01*
X154074761Y-72493333D01*
X154122380Y-72588571D01*
X154122380Y-72874285D01*
X154074761Y-72969523D01*
X154027142Y-73017142D01*
X154122380Y-70604047D02*
X154122380Y-71175476D01*
X154122380Y-70889761D02*
X153122380Y-70889761D01*
X153265238Y-70985000D01*
X153360476Y-71080238D01*
X153408095Y-71175476D01*
X154122380Y-70175476D02*
X153122380Y-70175476D01*
X153741428Y-70080238D02*
X154122380Y-69794523D01*
X153455714Y-69794523D02*
X153836666Y-70175476D01*
X142692380Y-74302857D02*
X142216190Y-74636190D01*
X142692380Y-74874285D02*
X141692380Y-74874285D01*
X141692380Y-74493333D01*
X141740000Y-74398095D01*
X141787619Y-74350476D01*
X141882857Y-74302857D01*
X142025714Y-74302857D01*
X142120952Y-74350476D01*
X142168571Y-74398095D01*
X142216190Y-74493333D01*
X142216190Y-74874285D01*
X142692380Y-73350476D02*
X142692380Y-73921904D01*
X142692380Y-73636190D02*
X141692380Y-73636190D01*
X141835238Y-73731428D01*
X141930476Y-73826666D01*
X141978095Y-73921904D01*
X141692380Y-72731428D02*
X141692380Y-72636190D01*
X141740000Y-72540952D01*
X141787619Y-72493333D01*
X141882857Y-72445714D01*
X142073333Y-72398095D01*
X142311428Y-72398095D01*
X142501904Y-72445714D01*
X142597142Y-72493333D01*
X142644761Y-72540952D01*
X142692380Y-72636190D01*
X142692380Y-72731428D01*
X142644761Y-72826666D01*
X142597142Y-72874285D01*
X142501904Y-72921904D01*
X142311428Y-72969523D01*
X142073333Y-72969523D01*
X141882857Y-72921904D01*
X141787619Y-72874285D01*
X141740000Y-72826666D01*
X141692380Y-72731428D01*
X141787619Y-71254761D02*
X141740000Y-71207142D01*
X141692380Y-71111904D01*
X141692380Y-70873809D01*
X141740000Y-70778571D01*
X141787619Y-70730952D01*
X141882857Y-70683333D01*
X141978095Y-70683333D01*
X142120952Y-70730952D01*
X142692380Y-71302380D01*
X142692380Y-70683333D01*
X142597142Y-70254761D02*
X142644761Y-70207142D01*
X142692380Y-70254761D01*
X142644761Y-70302380D01*
X142597142Y-70254761D01*
X142692380Y-70254761D01*
X142025714Y-69350000D02*
X142692380Y-69350000D01*
X141644761Y-69588095D02*
X142359047Y-69826190D01*
X142359047Y-69207142D01*
X142692380Y-68826190D02*
X141692380Y-68826190D01*
X142311428Y-68730952D02*
X142692380Y-68445238D01*
X142025714Y-68445238D02*
X142406666Y-68826190D01*
X136977380Y-73826666D02*
X136501190Y-74160000D01*
X136977380Y-74398095D02*
X135977380Y-74398095D01*
X135977380Y-74017142D01*
X136025000Y-73921904D01*
X136072619Y-73874285D01*
X136167857Y-73826666D01*
X136310714Y-73826666D01*
X136405952Y-73874285D01*
X136453571Y-73921904D01*
X136501190Y-74017142D01*
X136501190Y-74398095D01*
X136977380Y-73350476D02*
X136977380Y-73160000D01*
X136929761Y-73064761D01*
X136882142Y-73017142D01*
X136739285Y-72921904D01*
X136548809Y-72874285D01*
X136167857Y-72874285D01*
X136072619Y-72921904D01*
X136025000Y-72969523D01*
X135977380Y-73064761D01*
X135977380Y-73255238D01*
X136025000Y-73350476D01*
X136072619Y-73398095D01*
X136167857Y-73445714D01*
X136405952Y-73445714D01*
X136501190Y-73398095D01*
X136548809Y-73350476D01*
X136596428Y-73255238D01*
X136596428Y-73064761D01*
X136548809Y-72969523D01*
X136501190Y-72921904D01*
X136405952Y-72874285D01*
X136977380Y-70604047D02*
X136977380Y-71175476D01*
X136977380Y-70889761D02*
X135977380Y-70889761D01*
X136120238Y-70985000D01*
X136215476Y-71080238D01*
X136263095Y-71175476D01*
X136977380Y-70175476D02*
X135977380Y-70175476D01*
X136596428Y-70080238D02*
X136977380Y-69794523D01*
X136310714Y-69794523D02*
X136691666Y-70175476D01*
X158900952Y-64333380D02*
X158424761Y-64333380D01*
X158424761Y-63333380D01*
X159234285Y-63809571D02*
X159567619Y-63809571D01*
X159710476Y-64333380D02*
X159234285Y-64333380D01*
X159234285Y-63333380D01*
X159710476Y-63333380D01*
X160139047Y-64333380D02*
X160139047Y-63333380D01*
X160377142Y-63333380D01*
X160520000Y-63381000D01*
X160615238Y-63476238D01*
X160662857Y-63571476D01*
X160710476Y-63761952D01*
X160710476Y-63904809D01*
X160662857Y-64095285D01*
X160615238Y-64190523D01*
X160520000Y-64285761D01*
X160377142Y-64333380D01*
X160139047Y-64333380D01*
X161091428Y-63428619D02*
X161139047Y-63381000D01*
X161234285Y-63333380D01*
X161472380Y-63333380D01*
X161567619Y-63381000D01*
X161615238Y-63428619D01*
X161662857Y-63523857D01*
X161662857Y-63619095D01*
X161615238Y-63761952D01*
X161043809Y-64333380D01*
X161662857Y-64333380D01*
X179578095Y-97877380D02*
X179578095Y-98686904D01*
X179625714Y-98782142D01*
X179673333Y-98829761D01*
X179768571Y-98877380D01*
X179959047Y-98877380D01*
X180054285Y-98829761D01*
X180101904Y-98782142D01*
X180149523Y-98686904D01*
X180149523Y-97877380D01*
X180578095Y-97972619D02*
X180625714Y-97925000D01*
X180720952Y-97877380D01*
X180959047Y-97877380D01*
X181054285Y-97925000D01*
X181101904Y-97972619D01*
X181149523Y-98067857D01*
X181149523Y-98163095D01*
X181101904Y-98305952D01*
X180530476Y-98877380D01*
X181149523Y-98877380D01*
X182459642Y-97877380D02*
X183126309Y-97877380D01*
X182697738Y-98877380D01*
X183935833Y-98210714D02*
X183935833Y-98877380D01*
X183697738Y-97829761D02*
X183459642Y-98544047D01*
X184078690Y-98544047D01*
X184935833Y-98877380D02*
X184459642Y-98877380D01*
X184459642Y-97877380D01*
X185221547Y-98829761D02*
X185364404Y-98877380D01*
X185602500Y-98877380D01*
X185697738Y-98829761D01*
X185745357Y-98782142D01*
X185792976Y-98686904D01*
X185792976Y-98591666D01*
X185745357Y-98496428D01*
X185697738Y-98448809D01*
X185602500Y-98401190D01*
X185412023Y-98353571D01*
X185316785Y-98305952D01*
X185269166Y-98258333D01*
X185221547Y-98163095D01*
X185221547Y-98067857D01*
X185269166Y-97972619D01*
X185316785Y-97925000D01*
X185412023Y-97877380D01*
X185650119Y-97877380D01*
X185792976Y-97925000D01*
X186650119Y-98210714D02*
X186650119Y-98877380D01*
X186412023Y-97829761D02*
X186173928Y-98544047D01*
X186792976Y-98544047D01*
X187078690Y-97877380D02*
X187745357Y-97877380D01*
X187316785Y-98877380D01*
X168854523Y-106497380D02*
X168521190Y-106021190D01*
X168283095Y-106497380D02*
X168283095Y-105497380D01*
X168664047Y-105497380D01*
X168759285Y-105545000D01*
X168806904Y-105592619D01*
X168854523Y-105687857D01*
X168854523Y-105830714D01*
X168806904Y-105925952D01*
X168759285Y-105973571D01*
X168664047Y-106021190D01*
X168283095Y-106021190D01*
X169283095Y-106497380D02*
X169283095Y-105497380D01*
X169854523Y-106497380D01*
X169854523Y-105497380D01*
X170759285Y-105497380D02*
X170568809Y-105497380D01*
X170473571Y-105545000D01*
X170425952Y-105592619D01*
X170330714Y-105735476D01*
X170283095Y-105925952D01*
X170283095Y-106306904D01*
X170330714Y-106402142D01*
X170378333Y-106449761D01*
X170473571Y-106497380D01*
X170664047Y-106497380D01*
X170759285Y-106449761D01*
X170806904Y-106402142D01*
X170854523Y-106306904D01*
X170854523Y-106068809D01*
X170806904Y-105973571D01*
X170759285Y-105925952D01*
X170664047Y-105878333D01*
X170473571Y-105878333D01*
X170378333Y-105925952D01*
X170330714Y-105973571D01*
X170283095Y-106068809D01*
X169425952Y-107767380D02*
X168854523Y-107767380D01*
X169140238Y-107767380D02*
X169140238Y-106767380D01*
X169045000Y-106910238D01*
X168949761Y-107005476D01*
X168854523Y-107053095D01*
X169854523Y-107767380D02*
X169854523Y-106767380D01*
X169949761Y-107386428D02*
X170235476Y-107767380D01*
X170235476Y-107100714D02*
X169854523Y-107481666D01*
X159964523Y-106497380D02*
X159631190Y-106021190D01*
X159393095Y-106497380D02*
X159393095Y-105497380D01*
X159774047Y-105497380D01*
X159869285Y-105545000D01*
X159916904Y-105592619D01*
X159964523Y-105687857D01*
X159964523Y-105830714D01*
X159916904Y-105925952D01*
X159869285Y-105973571D01*
X159774047Y-106021190D01*
X159393095Y-106021190D01*
X160393095Y-106497380D02*
X160393095Y-105497380D01*
X160964523Y-106497380D01*
X160964523Y-105497380D01*
X161869285Y-105830714D02*
X161869285Y-106497380D01*
X161631190Y-105449761D02*
X161393095Y-106164047D01*
X162012142Y-106164047D01*
X160535952Y-107767380D02*
X159964523Y-107767380D01*
X160250238Y-107767380D02*
X160250238Y-106767380D01*
X160155000Y-106910238D01*
X160059761Y-107005476D01*
X159964523Y-107053095D01*
X160964523Y-107767380D02*
X160964523Y-106767380D01*
X161059761Y-107386428D02*
X161345476Y-107767380D01*
X161345476Y-107100714D02*
X160964523Y-107481666D01*
X155519523Y-106497380D02*
X155186190Y-106021190D01*
X154948095Y-106497380D02*
X154948095Y-105497380D01*
X155329047Y-105497380D01*
X155424285Y-105545000D01*
X155471904Y-105592619D01*
X155519523Y-105687857D01*
X155519523Y-105830714D01*
X155471904Y-105925952D01*
X155424285Y-105973571D01*
X155329047Y-106021190D01*
X154948095Y-106021190D01*
X155948095Y-106497380D02*
X155948095Y-105497380D01*
X156519523Y-106497380D01*
X156519523Y-105497380D01*
X156900476Y-105497380D02*
X157519523Y-105497380D01*
X157186190Y-105878333D01*
X157329047Y-105878333D01*
X157424285Y-105925952D01*
X157471904Y-105973571D01*
X157519523Y-106068809D01*
X157519523Y-106306904D01*
X157471904Y-106402142D01*
X157424285Y-106449761D01*
X157329047Y-106497380D01*
X157043333Y-106497380D01*
X156948095Y-106449761D01*
X156900476Y-106402142D01*
X156090952Y-107767380D02*
X155519523Y-107767380D01*
X155805238Y-107767380D02*
X155805238Y-106767380D01*
X155710000Y-106910238D01*
X155614761Y-107005476D01*
X155519523Y-107053095D01*
X156519523Y-107767380D02*
X156519523Y-106767380D01*
X156614761Y-107386428D02*
X156900476Y-107767380D01*
X156900476Y-107100714D02*
X156519523Y-107481666D01*
X105346666Y-64222261D02*
X105489523Y-64269880D01*
X105727619Y-64269880D01*
X105822857Y-64222261D01*
X105870476Y-64174642D01*
X105918095Y-64079404D01*
X105918095Y-63984166D01*
X105870476Y-63888928D01*
X105822857Y-63841309D01*
X105727619Y-63793690D01*
X105537142Y-63746071D01*
X105441904Y-63698452D01*
X105394285Y-63650833D01*
X105346666Y-63555595D01*
X105346666Y-63460357D01*
X105394285Y-63365119D01*
X105441904Y-63317500D01*
X105537142Y-63269880D01*
X105775238Y-63269880D01*
X105918095Y-63317500D01*
X106251428Y-63269880D02*
X106489523Y-64269880D01*
X106680000Y-63555595D01*
X106870476Y-64269880D01*
X107108571Y-63269880D01*
X107441904Y-63365119D02*
X107489523Y-63317500D01*
X107584761Y-63269880D01*
X107822857Y-63269880D01*
X107918095Y-63317500D01*
X107965714Y-63365119D01*
X108013333Y-63460357D01*
X108013333Y-63555595D01*
X107965714Y-63698452D01*
X107394285Y-64269880D01*
X108013333Y-64269880D01*
X120586666Y-64222261D02*
X120729523Y-64269880D01*
X120967619Y-64269880D01*
X121062857Y-64222261D01*
X121110476Y-64174642D01*
X121158095Y-64079404D01*
X121158095Y-63984166D01*
X121110476Y-63888928D01*
X121062857Y-63841309D01*
X120967619Y-63793690D01*
X120777142Y-63746071D01*
X120681904Y-63698452D01*
X120634285Y-63650833D01*
X120586666Y-63555595D01*
X120586666Y-63460357D01*
X120634285Y-63365119D01*
X120681904Y-63317500D01*
X120777142Y-63269880D01*
X121015238Y-63269880D01*
X121158095Y-63317500D01*
X121491428Y-63269880D02*
X121729523Y-64269880D01*
X121920000Y-63555595D01*
X122110476Y-64269880D01*
X122348571Y-63269880D01*
X123253333Y-64269880D02*
X122681904Y-64269880D01*
X122967619Y-64269880D02*
X122967619Y-63269880D01*
X122872380Y-63412738D01*
X122777142Y-63507976D01*
X122681904Y-63555595D01*
X200747380Y-90296904D02*
X201556904Y-90296904D01*
X201652142Y-90249285D01*
X201699761Y-90201666D01*
X201747380Y-90106428D01*
X201747380Y-89915952D01*
X201699761Y-89820714D01*
X201652142Y-89773095D01*
X201556904Y-89725476D01*
X200747380Y-89725476D01*
X201747380Y-89201666D02*
X201747380Y-89011190D01*
X201699761Y-88915952D01*
X201652142Y-88868333D01*
X201509285Y-88773095D01*
X201318809Y-88725476D01*
X200937857Y-88725476D01*
X200842619Y-88773095D01*
X200795000Y-88820714D01*
X200747380Y-88915952D01*
X200747380Y-89106428D01*
X200795000Y-89201666D01*
X200842619Y-89249285D01*
X200937857Y-89296904D01*
X201175952Y-89296904D01*
X201271190Y-89249285D01*
X201318809Y-89201666D01*
X201366428Y-89106428D01*
X201366428Y-88915952D01*
X201318809Y-88820714D01*
X201271190Y-88773095D01*
X201175952Y-88725476D01*
X203049166Y-92939761D02*
X203049166Y-92463571D01*
X203334880Y-93035000D02*
X202334880Y-92701666D01*
X203334880Y-92368333D01*
X202334880Y-92177857D02*
X202334880Y-91606428D01*
X203334880Y-91892142D02*
X202334880Y-91892142D01*
X202811071Y-90939761D02*
X202811071Y-91273095D01*
X203334880Y-91273095D02*
X202334880Y-91273095D01*
X202334880Y-90796904D01*
X203334880Y-89892142D02*
X203334880Y-90463571D01*
X203334880Y-90177857D02*
X202334880Y-90177857D01*
X202477738Y-90273095D01*
X202572976Y-90368333D01*
X202620595Y-90463571D01*
X202334880Y-89035000D02*
X202334880Y-89225476D01*
X202382500Y-89320714D01*
X202430119Y-89368333D01*
X202572976Y-89463571D01*
X202763452Y-89511190D01*
X203144404Y-89511190D01*
X203239642Y-89463571D01*
X203287261Y-89415952D01*
X203334880Y-89320714D01*
X203334880Y-89130238D01*
X203287261Y-89035000D01*
X203239642Y-88987380D01*
X203144404Y-88939761D01*
X202906309Y-88939761D01*
X202811071Y-88987380D01*
X202763452Y-89035000D01*
X202715833Y-89130238D01*
X202715833Y-89320714D01*
X202763452Y-89415952D01*
X202811071Y-89463571D01*
X202906309Y-89511190D01*
X202334880Y-88654047D02*
X203334880Y-88320714D01*
X202334880Y-87987380D01*
X202763452Y-87511190D02*
X202715833Y-87606428D01*
X202668214Y-87654047D01*
X202572976Y-87701666D01*
X202525357Y-87701666D01*
X202430119Y-87654047D01*
X202382500Y-87606428D01*
X202334880Y-87511190D01*
X202334880Y-87320714D01*
X202382500Y-87225476D01*
X202430119Y-87177857D01*
X202525357Y-87130238D01*
X202572976Y-87130238D01*
X202668214Y-87177857D01*
X202715833Y-87225476D01*
X202763452Y-87320714D01*
X202763452Y-87511190D01*
X202811071Y-87606428D01*
X202858690Y-87654047D01*
X202953928Y-87701666D01*
X203144404Y-87701666D01*
X203239642Y-87654047D01*
X203287261Y-87606428D01*
X203334880Y-87511190D01*
X203334880Y-87320714D01*
X203287261Y-87225476D01*
X203239642Y-87177857D01*
X203144404Y-87130238D01*
X202953928Y-87130238D01*
X202858690Y-87177857D01*
X202811071Y-87225476D01*
X202763452Y-87320714D01*
X202811071Y-86368333D02*
X202858690Y-86225476D01*
X202906309Y-86177857D01*
X203001547Y-86130238D01*
X203144404Y-86130238D01*
X203239642Y-86177857D01*
X203287261Y-86225476D01*
X203334880Y-86320714D01*
X203334880Y-86701666D01*
X202334880Y-86701666D01*
X202334880Y-86368333D01*
X202382500Y-86273095D01*
X202430119Y-86225476D01*
X202525357Y-86177857D01*
X202620595Y-86177857D01*
X202715833Y-86225476D01*
X202763452Y-86273095D01*
X202811071Y-86368333D01*
X202811071Y-86701666D01*
X179578095Y-82637380D02*
X179578095Y-83446904D01*
X179625714Y-83542142D01*
X179673333Y-83589761D01*
X179768571Y-83637380D01*
X179959047Y-83637380D01*
X180054285Y-83589761D01*
X180101904Y-83542142D01*
X180149523Y-83446904D01*
X180149523Y-82637380D01*
X180530476Y-82637380D02*
X181149523Y-82637380D01*
X180816190Y-83018333D01*
X180959047Y-83018333D01*
X181054285Y-83065952D01*
X181101904Y-83113571D01*
X181149523Y-83208809D01*
X181149523Y-83446904D01*
X181101904Y-83542142D01*
X181054285Y-83589761D01*
X180959047Y-83637380D01*
X180673333Y-83637380D01*
X180578095Y-83589761D01*
X180530476Y-83542142D01*
X182777142Y-82637380D02*
X183443809Y-82637380D01*
X183015238Y-83637380D01*
X184253333Y-82970714D02*
X184253333Y-83637380D01*
X184015238Y-82589761D02*
X183777142Y-83304047D01*
X184396190Y-83304047D01*
X185253333Y-83637380D02*
X184777142Y-83637380D01*
X184777142Y-82637380D01*
X185539047Y-83589761D02*
X185681904Y-83637380D01*
X185920000Y-83637380D01*
X186015238Y-83589761D01*
X186062857Y-83542142D01*
X186110476Y-83446904D01*
X186110476Y-83351666D01*
X186062857Y-83256428D01*
X186015238Y-83208809D01*
X185920000Y-83161190D01*
X185729523Y-83113571D01*
X185634285Y-83065952D01*
X185586666Y-83018333D01*
X185539047Y-82923095D01*
X185539047Y-82827857D01*
X185586666Y-82732619D01*
X185634285Y-82685000D01*
X185729523Y-82637380D01*
X185967619Y-82637380D01*
X186110476Y-82685000D01*
X186967619Y-82970714D02*
X186967619Y-83637380D01*
X186729523Y-82589761D02*
X186491428Y-83304047D01*
X187110476Y-83304047D01*
X187396190Y-82637380D02*
X188062857Y-82637380D01*
X187634285Y-83637380D01*
X200747380Y-78073095D02*
X201556904Y-78073095D01*
X201652142Y-78025476D01*
X201699761Y-77977857D01*
X201747380Y-77882619D01*
X201747380Y-77692142D01*
X201699761Y-77596904D01*
X201652142Y-77549285D01*
X201556904Y-77501666D01*
X200747380Y-77501666D01*
X201747380Y-76501666D02*
X201747380Y-77073095D01*
X201747380Y-76787380D02*
X200747380Y-76787380D01*
X200890238Y-76882619D01*
X200985476Y-76977857D01*
X201033095Y-77073095D01*
X200747380Y-75882619D02*
X200747380Y-75787380D01*
X200795000Y-75692142D01*
X200842619Y-75644523D01*
X200937857Y-75596904D01*
X201128333Y-75549285D01*
X201366428Y-75549285D01*
X201556904Y-75596904D01*
X201652142Y-75644523D01*
X201699761Y-75692142D01*
X201747380Y-75787380D01*
X201747380Y-75882619D01*
X201699761Y-75977857D01*
X201652142Y-76025476D01*
X201556904Y-76073095D01*
X201366428Y-76120714D01*
X201128333Y-76120714D01*
X200937857Y-76073095D01*
X200842619Y-76025476D01*
X200795000Y-75977857D01*
X200747380Y-75882619D01*
X203049166Y-80239761D02*
X203049166Y-79763571D01*
X203334880Y-80335000D02*
X202334880Y-80001666D01*
X203334880Y-79668333D01*
X202334880Y-79477857D02*
X202334880Y-78906428D01*
X203334880Y-79192142D02*
X202334880Y-79192142D01*
X202811071Y-78239761D02*
X202811071Y-78573095D01*
X203334880Y-78573095D02*
X202334880Y-78573095D01*
X202334880Y-78096904D01*
X203334880Y-77192142D02*
X203334880Y-77763571D01*
X203334880Y-77477857D02*
X202334880Y-77477857D01*
X202477738Y-77573095D01*
X202572976Y-77668333D01*
X202620595Y-77763571D01*
X202334880Y-76335000D02*
X202334880Y-76525476D01*
X202382500Y-76620714D01*
X202430119Y-76668333D01*
X202572976Y-76763571D01*
X202763452Y-76811190D01*
X203144404Y-76811190D01*
X203239642Y-76763571D01*
X203287261Y-76715952D01*
X203334880Y-76620714D01*
X203334880Y-76430238D01*
X203287261Y-76335000D01*
X203239642Y-76287380D01*
X203144404Y-76239761D01*
X202906309Y-76239761D01*
X202811071Y-76287380D01*
X202763452Y-76335000D01*
X202715833Y-76430238D01*
X202715833Y-76620714D01*
X202763452Y-76715952D01*
X202811071Y-76763571D01*
X202906309Y-76811190D01*
X202334880Y-75954047D02*
X203334880Y-75620714D01*
X202334880Y-75287380D01*
X202763452Y-74811190D02*
X202715833Y-74906428D01*
X202668214Y-74954047D01*
X202572976Y-75001666D01*
X202525357Y-75001666D01*
X202430119Y-74954047D01*
X202382500Y-74906428D01*
X202334880Y-74811190D01*
X202334880Y-74620714D01*
X202382500Y-74525476D01*
X202430119Y-74477857D01*
X202525357Y-74430238D01*
X202572976Y-74430238D01*
X202668214Y-74477857D01*
X202715833Y-74525476D01*
X202763452Y-74620714D01*
X202763452Y-74811190D01*
X202811071Y-74906428D01*
X202858690Y-74954047D01*
X202953928Y-75001666D01*
X203144404Y-75001666D01*
X203239642Y-74954047D01*
X203287261Y-74906428D01*
X203334880Y-74811190D01*
X203334880Y-74620714D01*
X203287261Y-74525476D01*
X203239642Y-74477857D01*
X203144404Y-74430238D01*
X202953928Y-74430238D01*
X202858690Y-74477857D01*
X202811071Y-74525476D01*
X202763452Y-74620714D01*
X202811071Y-73668333D02*
X202858690Y-73525476D01*
X202906309Y-73477857D01*
X203001547Y-73430238D01*
X203144404Y-73430238D01*
X203239642Y-73477857D01*
X203287261Y-73525476D01*
X203334880Y-73620714D01*
X203334880Y-74001666D01*
X202334880Y-74001666D01*
X202334880Y-73668333D01*
X202382500Y-73573095D01*
X202430119Y-73525476D01*
X202525357Y-73477857D01*
X202620595Y-73477857D01*
X202715833Y-73525476D01*
X202763452Y-73573095D01*
X202811071Y-73668333D01*
X202811071Y-74001666D01*
X152931904Y-65857380D02*
X152931904Y-64857380D01*
X153170000Y-64857380D01*
X153312857Y-64905000D01*
X153408095Y-65000238D01*
X153455714Y-65095476D01*
X153503333Y-65285952D01*
X153503333Y-65428809D01*
X153455714Y-65619285D01*
X153408095Y-65714523D01*
X153312857Y-65809761D01*
X153170000Y-65857380D01*
X152931904Y-65857380D01*
X154360476Y-65190714D02*
X154360476Y-65857380D01*
X154122380Y-64809761D02*
X153884285Y-65524047D01*
X154503333Y-65524047D01*
X147216904Y-65857380D02*
X147216904Y-64857380D01*
X147455000Y-64857380D01*
X147597857Y-64905000D01*
X147693095Y-65000238D01*
X147740714Y-65095476D01*
X147788333Y-65285952D01*
X147788333Y-65428809D01*
X147740714Y-65619285D01*
X147693095Y-65714523D01*
X147597857Y-65809761D01*
X147455000Y-65857380D01*
X147216904Y-65857380D01*
X148121666Y-64857380D02*
X148740714Y-64857380D01*
X148407380Y-65238333D01*
X148550238Y-65238333D01*
X148645476Y-65285952D01*
X148693095Y-65333571D01*
X148740714Y-65428809D01*
X148740714Y-65666904D01*
X148693095Y-65762142D01*
X148645476Y-65809761D01*
X148550238Y-65857380D01*
X148264523Y-65857380D01*
X148169285Y-65809761D01*
X148121666Y-65762142D01*
X141501904Y-65857380D02*
X141501904Y-64857380D01*
X141740000Y-64857380D01*
X141882857Y-64905000D01*
X141978095Y-65000238D01*
X142025714Y-65095476D01*
X142073333Y-65285952D01*
X142073333Y-65428809D01*
X142025714Y-65619285D01*
X141978095Y-65714523D01*
X141882857Y-65809761D01*
X141740000Y-65857380D01*
X141501904Y-65857380D01*
X142454285Y-64952619D02*
X142501904Y-64905000D01*
X142597142Y-64857380D01*
X142835238Y-64857380D01*
X142930476Y-64905000D01*
X142978095Y-64952619D01*
X143025714Y-65047857D01*
X143025714Y-65143095D01*
X142978095Y-65285952D01*
X142406666Y-65857380D01*
X143025714Y-65857380D01*
X135786904Y-65857380D02*
X135786904Y-64857380D01*
X136025000Y-64857380D01*
X136167857Y-64905000D01*
X136263095Y-65000238D01*
X136310714Y-65095476D01*
X136358333Y-65285952D01*
X136358333Y-65428809D01*
X136310714Y-65619285D01*
X136263095Y-65714523D01*
X136167857Y-65809761D01*
X136025000Y-65857380D01*
X135786904Y-65857380D01*
X137310714Y-65857380D02*
X136739285Y-65857380D01*
X137025000Y-65857380D02*
X137025000Y-64857380D01*
X136929761Y-65000238D01*
X136834523Y-65095476D01*
X136739285Y-65143095D01*
X99639523Y-76398380D02*
X99306190Y-75922190D01*
X99068095Y-76398380D02*
X99068095Y-75398380D01*
X99449047Y-75398380D01*
X99544285Y-75446000D01*
X99591904Y-75493619D01*
X99639523Y-75588857D01*
X99639523Y-75731714D01*
X99591904Y-75826952D01*
X99544285Y-75874571D01*
X99449047Y-75922190D01*
X99068095Y-75922190D01*
X100068095Y-76398380D02*
X100068095Y-75398380D01*
X100639523Y-76398380D01*
X100639523Y-75398380D01*
X101068095Y-75493619D02*
X101115714Y-75446000D01*
X101210952Y-75398380D01*
X101449047Y-75398380D01*
X101544285Y-75446000D01*
X101591904Y-75493619D01*
X101639523Y-75588857D01*
X101639523Y-75684095D01*
X101591904Y-75826952D01*
X101020476Y-76398380D01*
X101639523Y-76398380D01*
X103544761Y-76398380D02*
X102973333Y-76398380D01*
X103259047Y-76398380D02*
X103259047Y-75398380D01*
X103163809Y-75541238D01*
X103068571Y-75636476D01*
X102973333Y-75684095D01*
X104163809Y-75398380D02*
X104259047Y-75398380D01*
X104354285Y-75446000D01*
X104401904Y-75493619D01*
X104449523Y-75588857D01*
X104497142Y-75779333D01*
X104497142Y-76017428D01*
X104449523Y-76207904D01*
X104401904Y-76303142D01*
X104354285Y-76350761D01*
X104259047Y-76398380D01*
X104163809Y-76398380D01*
X104068571Y-76350761D01*
X104020952Y-76303142D01*
X103973333Y-76207904D01*
X103925714Y-76017428D01*
X103925714Y-75779333D01*
X103973333Y-75588857D01*
X104020952Y-75493619D01*
X104068571Y-75446000D01*
X104163809Y-75398380D01*
X104925714Y-76398380D02*
X104925714Y-75398380D01*
X105020952Y-76017428D02*
X105306666Y-76398380D01*
X105306666Y-75731714D02*
X104925714Y-76112666D01*
X114879523Y-76398380D02*
X114546190Y-75922190D01*
X114308095Y-76398380D02*
X114308095Y-75398380D01*
X114689047Y-75398380D01*
X114784285Y-75446000D01*
X114831904Y-75493619D01*
X114879523Y-75588857D01*
X114879523Y-75731714D01*
X114831904Y-75826952D01*
X114784285Y-75874571D01*
X114689047Y-75922190D01*
X114308095Y-75922190D01*
X115308095Y-76398380D02*
X115308095Y-75398380D01*
X115879523Y-76398380D01*
X115879523Y-75398380D01*
X116879523Y-76398380D02*
X116308095Y-76398380D01*
X116593809Y-76398380D02*
X116593809Y-75398380D01*
X116498571Y-75541238D01*
X116403333Y-75636476D01*
X116308095Y-75684095D01*
X118530761Y-76398380D02*
X117959333Y-76398380D01*
X118245047Y-76398380D02*
X118245047Y-75398380D01*
X118149809Y-75541238D01*
X118054571Y-75636476D01*
X117959333Y-75684095D01*
X119149809Y-75398380D02*
X119245047Y-75398380D01*
X119340285Y-75446000D01*
X119387904Y-75493619D01*
X119435523Y-75588857D01*
X119483142Y-75779333D01*
X119483142Y-76017428D01*
X119435523Y-76207904D01*
X119387904Y-76303142D01*
X119340285Y-76350761D01*
X119245047Y-76398380D01*
X119149809Y-76398380D01*
X119054571Y-76350761D01*
X119006952Y-76303142D01*
X118959333Y-76207904D01*
X118911714Y-76017428D01*
X118911714Y-75779333D01*
X118959333Y-75588857D01*
X119006952Y-75493619D01*
X119054571Y-75446000D01*
X119149809Y-75398380D01*
X119911714Y-76398380D02*
X119911714Y-75398380D01*
X120006952Y-76017428D02*
X120292666Y-76398380D01*
X120292666Y-75731714D02*
X119911714Y-76112666D01*
X100838095Y-94067380D02*
X100838095Y-94876904D01*
X100885714Y-94972142D01*
X100933333Y-95019761D01*
X101028571Y-95067380D01*
X101219047Y-95067380D01*
X101314285Y-95019761D01*
X101361904Y-94972142D01*
X101409523Y-94876904D01*
X101409523Y-94067380D01*
X102361904Y-94067380D02*
X101885714Y-94067380D01*
X101838095Y-94543571D01*
X101885714Y-94495952D01*
X101980952Y-94448333D01*
X102219047Y-94448333D01*
X102314285Y-94495952D01*
X102361904Y-94543571D01*
X102409523Y-94638809D01*
X102409523Y-94876904D01*
X102361904Y-94972142D01*
X102314285Y-95019761D01*
X102219047Y-95067380D01*
X101980952Y-95067380D01*
X101885714Y-95019761D01*
X101838095Y-94972142D01*
X105672380Y-94067380D02*
X106339047Y-94067380D01*
X105910476Y-95067380D01*
X107148571Y-94400714D02*
X107148571Y-95067380D01*
X106910476Y-94019761D02*
X106672380Y-94734047D01*
X107291428Y-94734047D01*
X107624761Y-94781666D02*
X108100952Y-94781666D01*
X107529523Y-95067380D02*
X107862857Y-94067380D01*
X108196190Y-95067380D01*
X109005714Y-95067380D02*
X108529523Y-95067380D01*
X108529523Y-94067380D01*
X109291428Y-95019761D02*
X109434285Y-95067380D01*
X109672380Y-95067380D01*
X109767619Y-95019761D01*
X109815238Y-94972142D01*
X109862857Y-94876904D01*
X109862857Y-94781666D01*
X109815238Y-94686428D01*
X109767619Y-94638809D01*
X109672380Y-94591190D01*
X109481904Y-94543571D01*
X109386666Y-94495952D01*
X109339047Y-94448333D01*
X109291428Y-94353095D01*
X109291428Y-94257857D01*
X109339047Y-94162619D01*
X109386666Y-94115000D01*
X109481904Y-94067380D01*
X109720000Y-94067380D01*
X109862857Y-94115000D01*
X110767619Y-94067380D02*
X110291428Y-94067380D01*
X110243809Y-94543571D01*
X110291428Y-94495952D01*
X110386666Y-94448333D01*
X110624761Y-94448333D01*
X110720000Y-94495952D01*
X110767619Y-94543571D01*
X110815238Y-94638809D01*
X110815238Y-94876904D01*
X110767619Y-94972142D01*
X110720000Y-95019761D01*
X110624761Y-95067380D01*
X110386666Y-95067380D01*
X110291428Y-95019761D01*
X110243809Y-94972142D01*
X111196190Y-94162619D02*
X111243809Y-94115000D01*
X111339047Y-94067380D01*
X111577142Y-94067380D01*
X111672380Y-94115000D01*
X111720000Y-94162619D01*
X111767619Y-94257857D01*
X111767619Y-94353095D01*
X111720000Y-94495952D01*
X111148571Y-95067380D01*
X111767619Y-95067380D01*
X112720000Y-95067380D02*
X112148571Y-95067380D01*
X112434285Y-95067380D02*
X112434285Y-94067380D01*
X112339047Y-94210238D01*
X112243809Y-94305476D01*
X112148571Y-94353095D01*
X100838095Y-108037380D02*
X100838095Y-108846904D01*
X100885714Y-108942142D01*
X100933333Y-108989761D01*
X101028571Y-109037380D01*
X101219047Y-109037380D01*
X101314285Y-108989761D01*
X101361904Y-108942142D01*
X101409523Y-108846904D01*
X101409523Y-108037380D01*
X102314285Y-108370714D02*
X102314285Y-109037380D01*
X102076190Y-107989761D02*
X101838095Y-108704047D01*
X102457142Y-108704047D01*
X105672380Y-108037380D02*
X106339047Y-108037380D01*
X105910476Y-109037380D01*
X107148571Y-108370714D02*
X107148571Y-109037380D01*
X106910476Y-107989761D02*
X106672380Y-108704047D01*
X107291428Y-108704047D01*
X107624761Y-108751666D02*
X108100952Y-108751666D01*
X107529523Y-109037380D02*
X107862857Y-108037380D01*
X108196190Y-109037380D01*
X109005714Y-109037380D02*
X108529523Y-109037380D01*
X108529523Y-108037380D01*
X109291428Y-108989761D02*
X109434285Y-109037380D01*
X109672380Y-109037380D01*
X109767619Y-108989761D01*
X109815238Y-108942142D01*
X109862857Y-108846904D01*
X109862857Y-108751666D01*
X109815238Y-108656428D01*
X109767619Y-108608809D01*
X109672380Y-108561190D01*
X109481904Y-108513571D01*
X109386666Y-108465952D01*
X109339047Y-108418333D01*
X109291428Y-108323095D01*
X109291428Y-108227857D01*
X109339047Y-108132619D01*
X109386666Y-108085000D01*
X109481904Y-108037380D01*
X109720000Y-108037380D01*
X109862857Y-108085000D01*
X110767619Y-108037380D02*
X110291428Y-108037380D01*
X110243809Y-108513571D01*
X110291428Y-108465952D01*
X110386666Y-108418333D01*
X110624761Y-108418333D01*
X110720000Y-108465952D01*
X110767619Y-108513571D01*
X110815238Y-108608809D01*
X110815238Y-108846904D01*
X110767619Y-108942142D01*
X110720000Y-108989761D01*
X110624761Y-109037380D01*
X110386666Y-109037380D01*
X110291428Y-108989761D01*
X110243809Y-108942142D01*
X111196190Y-108132619D02*
X111243809Y-108085000D01*
X111339047Y-108037380D01*
X111577142Y-108037380D01*
X111672380Y-108085000D01*
X111720000Y-108132619D01*
X111767619Y-108227857D01*
X111767619Y-108323095D01*
X111720000Y-108465952D01*
X111148571Y-109037380D01*
X111767619Y-109037380D01*
X112720000Y-109037380D02*
X112148571Y-109037380D01*
X112434285Y-109037380D02*
X112434285Y-108037380D01*
X112339047Y-108180238D01*
X112243809Y-108275476D01*
X112148571Y-108323095D01*
X188428333Y-67762380D02*
X188095000Y-67286190D01*
X187856904Y-67762380D02*
X187856904Y-66762380D01*
X188237857Y-66762380D01*
X188333095Y-66810000D01*
X188380714Y-66857619D01*
X188428333Y-66952857D01*
X188428333Y-67095714D01*
X188380714Y-67190952D01*
X188333095Y-67238571D01*
X188237857Y-67286190D01*
X187856904Y-67286190D01*
X189380714Y-67762380D02*
X188809285Y-67762380D01*
X189095000Y-67762380D02*
X189095000Y-66762380D01*
X188999761Y-66905238D01*
X188904523Y-67000476D01*
X188809285Y-67048095D01*
X187999761Y-69032380D02*
X187428333Y-69032380D01*
X187714047Y-69032380D02*
X187714047Y-68032380D01*
X187618809Y-68175238D01*
X187523571Y-68270476D01*
X187428333Y-68318095D01*
X188618809Y-68032380D02*
X188714047Y-68032380D01*
X188809285Y-68080000D01*
X188856904Y-68127619D01*
X188904523Y-68222857D01*
X188952142Y-68413333D01*
X188952142Y-68651428D01*
X188904523Y-68841904D01*
X188856904Y-68937142D01*
X188809285Y-68984761D01*
X188714047Y-69032380D01*
X188618809Y-69032380D01*
X188523571Y-68984761D01*
X188475952Y-68937142D01*
X188428333Y-68841904D01*
X188380714Y-68651428D01*
X188380714Y-68413333D01*
X188428333Y-68222857D01*
X188475952Y-68127619D01*
X188523571Y-68080000D01*
X188618809Y-68032380D01*
X189380714Y-69032380D02*
X189380714Y-68032380D01*
X189475952Y-68651428D02*
X189761666Y-69032380D01*
X189761666Y-68365714D02*
X189380714Y-68746666D01*
X128627142Y-95416666D02*
X128674761Y-95464285D01*
X128722380Y-95607142D01*
X128722380Y-95702380D01*
X128674761Y-95845238D01*
X128579523Y-95940476D01*
X128484285Y-95988095D01*
X128293809Y-96035714D01*
X128150952Y-96035714D01*
X127960476Y-95988095D01*
X127865238Y-95940476D01*
X127770000Y-95845238D01*
X127722380Y-95702380D01*
X127722380Y-95607142D01*
X127770000Y-95464285D01*
X127817619Y-95416666D01*
X127722380Y-95083333D02*
X127722380Y-94416666D01*
X128722380Y-94845238D01*
X127722380Y-93082857D02*
X127722380Y-92987619D01*
X127770000Y-92892380D01*
X127817619Y-92844761D01*
X127912857Y-92797142D01*
X128103333Y-92749523D01*
X128341428Y-92749523D01*
X128531904Y-92797142D01*
X128627142Y-92844761D01*
X128674761Y-92892380D01*
X128722380Y-92987619D01*
X128722380Y-93082857D01*
X128674761Y-93178095D01*
X128627142Y-93225714D01*
X128531904Y-93273333D01*
X128341428Y-93320952D01*
X128103333Y-93320952D01*
X127912857Y-93273333D01*
X127817619Y-93225714D01*
X127770000Y-93178095D01*
X127722380Y-93082857D01*
X128627142Y-92320952D02*
X128674761Y-92273333D01*
X128722380Y-92320952D01*
X128674761Y-92368571D01*
X128627142Y-92320952D01*
X128722380Y-92320952D01*
X128722380Y-91320952D02*
X128722380Y-91892380D01*
X128722380Y-91606666D02*
X127722380Y-91606666D01*
X127865238Y-91701904D01*
X127960476Y-91797142D01*
X128008095Y-91892380D01*
X128055714Y-90463809D02*
X128722380Y-90463809D01*
X128055714Y-90892380D02*
X128579523Y-90892380D01*
X128674761Y-90844761D01*
X128722380Y-90749523D01*
X128722380Y-90606666D01*
X128674761Y-90511428D01*
X128627142Y-90463809D01*
X128198571Y-89654285D02*
X128198571Y-89987619D01*
X128722380Y-89987619D02*
X127722380Y-89987619D01*
X127722380Y-89511428D01*
X128627142Y-106846666D02*
X128674761Y-106894285D01*
X128722380Y-107037142D01*
X128722380Y-107132380D01*
X128674761Y-107275238D01*
X128579523Y-107370476D01*
X128484285Y-107418095D01*
X128293809Y-107465714D01*
X128150952Y-107465714D01*
X127960476Y-107418095D01*
X127865238Y-107370476D01*
X127770000Y-107275238D01*
X127722380Y-107132380D01*
X127722380Y-107037142D01*
X127770000Y-106894285D01*
X127817619Y-106846666D01*
X127722380Y-105989523D02*
X127722380Y-106180000D01*
X127770000Y-106275238D01*
X127817619Y-106322857D01*
X127960476Y-106418095D01*
X128150952Y-106465714D01*
X128531904Y-106465714D01*
X128627142Y-106418095D01*
X128674761Y-106370476D01*
X128722380Y-106275238D01*
X128722380Y-106084761D01*
X128674761Y-105989523D01*
X128627142Y-105941904D01*
X128531904Y-105894285D01*
X128293809Y-105894285D01*
X128198571Y-105941904D01*
X128150952Y-105989523D01*
X128103333Y-106084761D01*
X128103333Y-106275238D01*
X128150952Y-106370476D01*
X128198571Y-106418095D01*
X128293809Y-106465714D01*
X127722380Y-104512857D02*
X127722380Y-104417619D01*
X127770000Y-104322380D01*
X127817619Y-104274761D01*
X127912857Y-104227142D01*
X128103333Y-104179523D01*
X128341428Y-104179523D01*
X128531904Y-104227142D01*
X128627142Y-104274761D01*
X128674761Y-104322380D01*
X128722380Y-104417619D01*
X128722380Y-104512857D01*
X128674761Y-104608095D01*
X128627142Y-104655714D01*
X128531904Y-104703333D01*
X128341428Y-104750952D01*
X128103333Y-104750952D01*
X127912857Y-104703333D01*
X127817619Y-104655714D01*
X127770000Y-104608095D01*
X127722380Y-104512857D01*
X128627142Y-103750952D02*
X128674761Y-103703333D01*
X128722380Y-103750952D01*
X128674761Y-103798571D01*
X128627142Y-103750952D01*
X128722380Y-103750952D01*
X128722380Y-102750952D02*
X128722380Y-103322380D01*
X128722380Y-103036666D02*
X127722380Y-103036666D01*
X127865238Y-103131904D01*
X127960476Y-103227142D01*
X128008095Y-103322380D01*
X128055714Y-101893809D02*
X128722380Y-101893809D01*
X128055714Y-102322380D02*
X128579523Y-102322380D01*
X128674761Y-102274761D01*
X128722380Y-102179523D01*
X128722380Y-102036666D01*
X128674761Y-101941428D01*
X128627142Y-101893809D01*
X128198571Y-101084285D02*
X128198571Y-101417619D01*
X128722380Y-101417619D02*
X127722380Y-101417619D01*
X127722380Y-100941428D01*
X101433333Y-81002142D02*
X101385714Y-81049761D01*
X101242857Y-81097380D01*
X101147619Y-81097380D01*
X101004761Y-81049761D01*
X100909523Y-80954523D01*
X100861904Y-80859285D01*
X100814285Y-80668809D01*
X100814285Y-80525952D01*
X100861904Y-80335476D01*
X100909523Y-80240238D01*
X101004761Y-80145000D01*
X101147619Y-80097380D01*
X101242857Y-80097380D01*
X101385714Y-80145000D01*
X101433333Y-80192619D01*
X102338095Y-80097380D02*
X101861904Y-80097380D01*
X101814285Y-80573571D01*
X101861904Y-80525952D01*
X101957142Y-80478333D01*
X102195238Y-80478333D01*
X102290476Y-80525952D01*
X102338095Y-80573571D01*
X102385714Y-80668809D01*
X102385714Y-80906904D01*
X102338095Y-81002142D01*
X102290476Y-81049761D01*
X102195238Y-81097380D01*
X101957142Y-81097380D01*
X101861904Y-81049761D01*
X101814285Y-81002142D01*
X103767142Y-80097380D02*
X103862380Y-80097380D01*
X103957619Y-80145000D01*
X104005238Y-80192619D01*
X104052857Y-80287857D01*
X104100476Y-80478333D01*
X104100476Y-80716428D01*
X104052857Y-80906904D01*
X104005238Y-81002142D01*
X103957619Y-81049761D01*
X103862380Y-81097380D01*
X103767142Y-81097380D01*
X103671904Y-81049761D01*
X103624285Y-81002142D01*
X103576666Y-80906904D01*
X103529047Y-80716428D01*
X103529047Y-80478333D01*
X103576666Y-80287857D01*
X103624285Y-80192619D01*
X103671904Y-80145000D01*
X103767142Y-80097380D01*
X104529047Y-81002142D02*
X104576666Y-81049761D01*
X104529047Y-81097380D01*
X104481428Y-81049761D01*
X104529047Y-81002142D01*
X104529047Y-81097380D01*
X105529047Y-81097380D02*
X104957619Y-81097380D01*
X105243333Y-81097380D02*
X105243333Y-80097380D01*
X105148095Y-80240238D01*
X105052857Y-80335476D01*
X104957619Y-80383095D01*
X106386190Y-80430714D02*
X106386190Y-81097380D01*
X105957619Y-80430714D02*
X105957619Y-80954523D01*
X106005238Y-81049761D01*
X106100476Y-81097380D01*
X106243333Y-81097380D01*
X106338571Y-81049761D01*
X106386190Y-81002142D01*
X107195714Y-80573571D02*
X106862380Y-80573571D01*
X106862380Y-81097380D02*
X106862380Y-80097380D01*
X107338571Y-80097380D01*
X109053333Y-96877142D02*
X109005714Y-96924761D01*
X108862857Y-96972380D01*
X108767619Y-96972380D01*
X108624761Y-96924761D01*
X108529523Y-96829523D01*
X108481904Y-96734285D01*
X108434285Y-96543809D01*
X108434285Y-96400952D01*
X108481904Y-96210476D01*
X108529523Y-96115238D01*
X108624761Y-96020000D01*
X108767619Y-95972380D01*
X108862857Y-95972380D01*
X109005714Y-96020000D01*
X109053333Y-96067619D01*
X109910476Y-96305714D02*
X109910476Y-96972380D01*
X109672380Y-95924761D02*
X109434285Y-96639047D01*
X110053333Y-96639047D01*
X111387142Y-95972380D02*
X111482380Y-95972380D01*
X111577619Y-96020000D01*
X111625238Y-96067619D01*
X111672857Y-96162857D01*
X111720476Y-96353333D01*
X111720476Y-96591428D01*
X111672857Y-96781904D01*
X111625238Y-96877142D01*
X111577619Y-96924761D01*
X111482380Y-96972380D01*
X111387142Y-96972380D01*
X111291904Y-96924761D01*
X111244285Y-96877142D01*
X111196666Y-96781904D01*
X111149047Y-96591428D01*
X111149047Y-96353333D01*
X111196666Y-96162857D01*
X111244285Y-96067619D01*
X111291904Y-96020000D01*
X111387142Y-95972380D01*
X112149047Y-96877142D02*
X112196666Y-96924761D01*
X112149047Y-96972380D01*
X112101428Y-96924761D01*
X112149047Y-96877142D01*
X112149047Y-96972380D01*
X113149047Y-96972380D02*
X112577619Y-96972380D01*
X112863333Y-96972380D02*
X112863333Y-95972380D01*
X112768095Y-96115238D01*
X112672857Y-96210476D01*
X112577619Y-96258095D01*
X114006190Y-96305714D02*
X114006190Y-96972380D01*
X113577619Y-96305714D02*
X113577619Y-96829523D01*
X113625238Y-96924761D01*
X113720476Y-96972380D01*
X113863333Y-96972380D01*
X113958571Y-96924761D01*
X114006190Y-96877142D01*
X114815714Y-96448571D02*
X114482380Y-96448571D01*
X114482380Y-96972380D02*
X114482380Y-95972380D01*
X114958571Y-95972380D01*
X192873333Y-82907142D02*
X192825714Y-82954761D01*
X192682857Y-83002380D01*
X192587619Y-83002380D01*
X192444761Y-82954761D01*
X192349523Y-82859523D01*
X192301904Y-82764285D01*
X192254285Y-82573809D01*
X192254285Y-82430952D01*
X192301904Y-82240476D01*
X192349523Y-82145238D01*
X192444761Y-82050000D01*
X192587619Y-82002380D01*
X192682857Y-82002380D01*
X192825714Y-82050000D01*
X192873333Y-82097619D01*
X193206666Y-82002380D02*
X193825714Y-82002380D01*
X193492380Y-82383333D01*
X193635238Y-82383333D01*
X193730476Y-82430952D01*
X193778095Y-82478571D01*
X193825714Y-82573809D01*
X193825714Y-82811904D01*
X193778095Y-82907142D01*
X193730476Y-82954761D01*
X193635238Y-83002380D01*
X193349523Y-83002380D01*
X193254285Y-82954761D01*
X193206666Y-82907142D01*
X191397142Y-83272380D02*
X191492380Y-83272380D01*
X191587619Y-83320000D01*
X191635238Y-83367619D01*
X191682857Y-83462857D01*
X191730476Y-83653333D01*
X191730476Y-83891428D01*
X191682857Y-84081904D01*
X191635238Y-84177142D01*
X191587619Y-84224761D01*
X191492380Y-84272380D01*
X191397142Y-84272380D01*
X191301904Y-84224761D01*
X191254285Y-84177142D01*
X191206666Y-84081904D01*
X191159047Y-83891428D01*
X191159047Y-83653333D01*
X191206666Y-83462857D01*
X191254285Y-83367619D01*
X191301904Y-83320000D01*
X191397142Y-83272380D01*
X192159047Y-84177142D02*
X192206666Y-84224761D01*
X192159047Y-84272380D01*
X192111428Y-84224761D01*
X192159047Y-84177142D01*
X192159047Y-84272380D01*
X193159047Y-84272380D02*
X192587619Y-84272380D01*
X192873333Y-84272380D02*
X192873333Y-83272380D01*
X192778095Y-83415238D01*
X192682857Y-83510476D01*
X192587619Y-83558095D01*
X194016190Y-83605714D02*
X194016190Y-84272380D01*
X193587619Y-83605714D02*
X193587619Y-84129523D01*
X193635238Y-84224761D01*
X193730476Y-84272380D01*
X193873333Y-84272380D01*
X193968571Y-84224761D01*
X194016190Y-84177142D01*
X194825714Y-83748571D02*
X194492380Y-83748571D01*
X194492380Y-84272380D02*
X194492380Y-83272380D01*
X194968571Y-83272380D01*
X193508333Y-98147142D02*
X193460714Y-98194761D01*
X193317857Y-98242380D01*
X193222619Y-98242380D01*
X193079761Y-98194761D01*
X192984523Y-98099523D01*
X192936904Y-98004285D01*
X192889285Y-97813809D01*
X192889285Y-97670952D01*
X192936904Y-97480476D01*
X192984523Y-97385238D01*
X193079761Y-97290000D01*
X193222619Y-97242380D01*
X193317857Y-97242380D01*
X193460714Y-97290000D01*
X193508333Y-97337619D01*
X193889285Y-97337619D02*
X193936904Y-97290000D01*
X194032142Y-97242380D01*
X194270238Y-97242380D01*
X194365476Y-97290000D01*
X194413095Y-97337619D01*
X194460714Y-97432857D01*
X194460714Y-97528095D01*
X194413095Y-97670952D01*
X193841666Y-98242380D01*
X194460714Y-98242380D01*
X190762142Y-98512380D02*
X190857380Y-98512380D01*
X190952619Y-98560000D01*
X191000238Y-98607619D01*
X191047857Y-98702857D01*
X191095476Y-98893333D01*
X191095476Y-99131428D01*
X191047857Y-99321904D01*
X191000238Y-99417142D01*
X190952619Y-99464761D01*
X190857380Y-99512380D01*
X190762142Y-99512380D01*
X190666904Y-99464761D01*
X190619285Y-99417142D01*
X190571666Y-99321904D01*
X190524047Y-99131428D01*
X190524047Y-98893333D01*
X190571666Y-98702857D01*
X190619285Y-98607619D01*
X190666904Y-98560000D01*
X190762142Y-98512380D01*
X191524047Y-99417142D02*
X191571666Y-99464761D01*
X191524047Y-99512380D01*
X191476428Y-99464761D01*
X191524047Y-99417142D01*
X191524047Y-99512380D01*
X192524047Y-99512380D02*
X191952619Y-99512380D01*
X192238333Y-99512380D02*
X192238333Y-98512380D01*
X192143095Y-98655238D01*
X192047857Y-98750476D01*
X191952619Y-98798095D01*
X193381190Y-98845714D02*
X193381190Y-99512380D01*
X192952619Y-98845714D02*
X192952619Y-99369523D01*
X193000238Y-99464761D01*
X193095476Y-99512380D01*
X193238333Y-99512380D01*
X193333571Y-99464761D01*
X193381190Y-99417142D01*
X194190714Y-98988571D02*
X193857380Y-98988571D01*
X193857380Y-99512380D02*
X193857380Y-98512380D01*
X194333571Y-98512380D01*
X201017142Y-111291666D02*
X201064761Y-111339285D01*
X201112380Y-111482142D01*
X201112380Y-111577380D01*
X201064761Y-111720238D01*
X200969523Y-111815476D01*
X200874285Y-111863095D01*
X200683809Y-111910714D01*
X200540952Y-111910714D01*
X200350476Y-111863095D01*
X200255238Y-111815476D01*
X200160000Y-111720238D01*
X200112380Y-111577380D01*
X200112380Y-111482142D01*
X200160000Y-111339285D01*
X200207619Y-111291666D01*
X201112380Y-110339285D02*
X201112380Y-110910714D01*
X201112380Y-110625000D02*
X200112380Y-110625000D01*
X200255238Y-110720238D01*
X200350476Y-110815476D01*
X200398095Y-110910714D01*
X201382380Y-113402857D02*
X201382380Y-113307619D01*
X201430000Y-113212380D01*
X201477619Y-113164761D01*
X201572857Y-113117142D01*
X201763333Y-113069523D01*
X202001428Y-113069523D01*
X202191904Y-113117142D01*
X202287142Y-113164761D01*
X202334761Y-113212380D01*
X202382380Y-113307619D01*
X202382380Y-113402857D01*
X202334761Y-113498095D01*
X202287142Y-113545714D01*
X202191904Y-113593333D01*
X202001428Y-113640952D01*
X201763333Y-113640952D01*
X201572857Y-113593333D01*
X201477619Y-113545714D01*
X201430000Y-113498095D01*
X201382380Y-113402857D01*
X202287142Y-112640952D02*
X202334761Y-112593333D01*
X202382380Y-112640952D01*
X202334761Y-112688571D01*
X202287142Y-112640952D01*
X202382380Y-112640952D01*
X202382380Y-111640952D02*
X202382380Y-112212380D01*
X202382380Y-111926666D02*
X201382380Y-111926666D01*
X201525238Y-112021904D01*
X201620476Y-112117142D01*
X201668095Y-112212380D01*
X201715714Y-110783809D02*
X202382380Y-110783809D01*
X201715714Y-111212380D02*
X202239523Y-111212380D01*
X202334761Y-111164761D01*
X202382380Y-111069523D01*
X202382380Y-110926666D01*
X202334761Y-110831428D01*
X202287142Y-110783809D01*
X201858571Y-109974285D02*
X201858571Y-110307619D01*
X202382380Y-110307619D02*
X201382380Y-110307619D01*
X201382380Y-109831428D01*
D14*
G36*
X114758000Y-82500000D02*
G01*
X114350000Y-82500000D01*
X114350000Y-82092000D01*
X114758000Y-82092000D01*
X114758000Y-82500000D01*
X114758000Y-82500000D01*
G37*
X114758000Y-82500000D02*
X114350000Y-82500000D01*
X114350000Y-82092000D01*
X114758000Y-82092000D01*
X114758000Y-82500000D01*
G36*
X115774000Y-82500000D02*
G01*
X115366000Y-82500000D01*
X115366000Y-82092000D01*
X115774000Y-82092000D01*
X115774000Y-82500000D01*
X115774000Y-82500000D01*
G37*
X115774000Y-82500000D02*
X115366000Y-82500000D01*
X115366000Y-82092000D01*
X115774000Y-82092000D01*
X115774000Y-82500000D01*
G36*
X116790000Y-81484000D02*
G01*
X116382000Y-81484000D01*
X116382000Y-81076000D01*
X116790000Y-81076000D01*
X116790000Y-81484000D01*
X116790000Y-81484000D01*
G37*
X116790000Y-81484000D02*
X116382000Y-81484000D01*
X116382000Y-81076000D01*
X116790000Y-81076000D01*
X116790000Y-81484000D01*
G36*
X117806000Y-82500000D02*
G01*
X117398000Y-82500000D01*
X117398000Y-82092000D01*
X117806000Y-82092000D01*
X117806000Y-82500000D01*
X117806000Y-82500000D01*
G37*
X117806000Y-82500000D02*
X117398000Y-82500000D01*
X117398000Y-82092000D01*
X117806000Y-82092000D01*
X117806000Y-82500000D01*
G36*
X118822000Y-82500000D02*
G01*
X118414000Y-82500000D01*
X118414000Y-82092000D01*
X118822000Y-82092000D01*
X118822000Y-82500000D01*
X118822000Y-82500000D01*
G37*
X118822000Y-82500000D02*
X118414000Y-82500000D01*
X118414000Y-82092000D01*
X118822000Y-82092000D01*
X118822000Y-82500000D01*
G36*
X123394000Y-82500000D02*
G01*
X122986000Y-82500000D01*
X122986000Y-82092000D01*
X123394000Y-82092000D01*
X123394000Y-82500000D01*
X123394000Y-82500000D01*
G37*
X123394000Y-82500000D02*
X122986000Y-82500000D01*
X122986000Y-82092000D01*
X123394000Y-82092000D01*
X123394000Y-82500000D01*
G36*
X122378000Y-82500000D02*
G01*
X121970000Y-82500000D01*
X121970000Y-82092000D01*
X122378000Y-82092000D01*
X122378000Y-82500000D01*
X122378000Y-82500000D01*
G37*
X122378000Y-82500000D02*
X121970000Y-82500000D01*
X121970000Y-82092000D01*
X122378000Y-82092000D01*
X122378000Y-82500000D01*
G36*
X121362000Y-82500000D02*
G01*
X120954000Y-82500000D01*
X120954000Y-82092000D01*
X121362000Y-82092000D01*
X121362000Y-82500000D01*
X121362000Y-82500000D01*
G37*
X121362000Y-82500000D02*
X120954000Y-82500000D01*
X120954000Y-82092000D01*
X121362000Y-82092000D01*
X121362000Y-82500000D01*
G36*
X124410000Y-82500000D02*
G01*
X124002000Y-82500000D01*
X124002000Y-82092000D01*
X124410000Y-82092000D01*
X124410000Y-82500000D01*
X124410000Y-82500000D01*
G37*
X124410000Y-82500000D02*
X124002000Y-82500000D01*
X124002000Y-82092000D01*
X124410000Y-82092000D01*
X124410000Y-82500000D01*
G36*
X120346000Y-82500000D02*
G01*
X119938000Y-82500000D01*
X119938000Y-82092000D01*
X120346000Y-82092000D01*
X120346000Y-82500000D01*
X120346000Y-82500000D01*
G37*
X120346000Y-82500000D02*
X119938000Y-82500000D01*
X119938000Y-82092000D01*
X120346000Y-82092000D01*
X120346000Y-82500000D01*
M02*
